<svg width="67" height="81" viewBox="0 0 67 81" fill="none" xmlns="http://www.w3.org/2000/svg">
<path d="M43.0957 55H33.6621L29.9121 45.2441H12.7441L9.19922 55H0L16.7285 12.0508H25.8984L43.0957 55ZM27.1289 38.0078L21.2109 22.0703L15.4102 38.0078H27.1289Z" fill="#9A9A9A"/>
<path d="M64.7051 68.5396V73H47.8716C48.0539 71.3138 48.6007 69.7188 49.5122 68.2148C50.4237 66.6995 52.2238 64.6943 54.9126 62.1992C57.0773 60.1826 58.4046 58.8154 58.8945 58.0977C59.5553 57.1064 59.8857 56.1266 59.8857 55.1582C59.8857 54.0872 59.5952 53.2669 59.0142 52.6973C58.4445 52.1162 57.6527 51.8257 56.6387 51.8257C55.6361 51.8257 54.8385 52.1276 54.2461 52.7314C53.6536 53.3353 53.3118 54.3379 53.2207 55.7393L48.4355 55.2607C48.7204 52.6175 49.6147 50.7205 51.1187 49.5698C52.6226 48.4191 54.5024 47.8438 56.7583 47.8438C59.2306 47.8438 61.1732 48.5103 62.5859 49.8433C63.9987 51.1763 64.7051 52.834 64.7051 54.8164C64.7051 55.9443 64.5 57.021 64.0898 58.0464C63.6911 59.0604 63.0531 60.1257 62.1758 61.2422C61.5947 61.9827 60.5465 63.048 59.0312 64.438C57.516 65.828 56.5532 66.7508 56.1431 67.2065C55.7443 67.6623 55.4196 68.1066 55.1689 68.5396H64.7051Z" fill="#9A9A9A"/>
</svg>
