<svg width="27" height="26" viewBox="0 0 27 26" fill="none" xmlns="http://www.w3.org/2000/svg">
<path fill-rule="evenodd" clip-rule="evenodd" d="M18.2918 7.40096L16.9008 2.55922C15.9204 -0.853059 11.0796 -0.853086 10.0992 2.55922L8.70817 7.40096L3.66842 7.22629C0.116581 7.10319 -1.37931 11.7019 1.56663 13.6877L5.74666 16.5054L4.02299 21.2392C2.8082 24.5754 6.72447 27.4176 9.52554 25.2326L13.5 22.1323L17.4745 25.2326C20.2755 27.4176 24.1918 24.5754 22.977 21.2392L21.2533 16.5054L25.4334 13.6877C28.3793 11.7019 26.8834 7.10319 23.3316 7.22629L18.2918 7.40096ZM14.6336 3.20915C14.3068 2.07172 12.6932 2.07171 12.3664 3.20914L10.7213 8.93516C10.572 9.45482 10.0877 9.80627 9.54681 9.78752L3.58663 9.58095C2.40268 9.53991 1.90405 11.0728 2.88603 11.7348L7.82948 15.0671C8.27812 15.3695 8.4631 15.9381 8.27809 16.4462L6.23961 22.0446C5.83468 23.1566 7.14011 24.104 8.07379 23.3757L12.7741 19.7092C13.2007 19.3764 13.7993 19.3764 14.2259 19.7092L18.9262 23.3757C19.8599 24.104 21.1653 23.1566 20.7604 22.0446L18.7219 16.4462C18.5369 15.9381 18.7219 15.3695 19.1705 15.0671L24.114 11.7348C25.0959 11.0728 24.5973 9.53991 23.4134 9.58095L17.4532 9.78752C16.9123 9.80627 16.428 9.45483 16.2787 8.93516L14.6336 3.20915Z" fill="white"/>
</svg>
