<svg width="71" height="70" viewBox="0 0 71 70" fill="none" xmlns="http://www.w3.org/2000/svg">
<path fill-rule="evenodd" clip-rule="evenodd" d="M64.7219 67.7307H6.27813C5.15604 67.7307 4.13508 67.2743 3.39426 66.5391C2.65344 65.8039 2.19356 64.7906 2.19356 63.677V6.23081C2.19356 5.11718 2.65344 4.10393 3.39426 3.3687C4.13508 2.63346 5.15604 2.17707 6.27813 2.17707H64.7219C65.844 2.17707 66.8649 2.63346 67.6058 3.3687C68.3466 4.10393 68.8064 5.11718 68.8064 6.23081V63.677C68.8064 64.7906 68.3466 65.8039 67.6058 66.5391C66.8649 67.2743 65.844 67.7307 64.7219 67.7307ZM6.27813 69.9077H64.7219C66.4496 69.9077 68.0193 69.2071 69.1567 68.0783C70.2941 66.9495 71 65.3915 71 63.677V6.23076C71 4.51612 70.2941 2.95825 69.1567 1.82944C68.0193 0.70062 66.4495 0 64.7219 0H6.27813C4.55046 0 2.98075 0.70062 1.84335 1.82944C0.705956 2.95825 0 4.51617 0 6.23076V63.677C0 65.3916 0.705956 66.9495 1.84335 68.0783C2.98075 69.2071 4.5505 69.9077 6.27813 69.9077ZM24.4522 7.75791C22.1454 6.68146 19.4271 8.46042 19.4271 10.9983H19.4273C19.4273 11.1845 19.485 11.6154 19.527 11.7903C20.3173 15.0764 24.7706 15.5867 26.2365 12.4553C27.0709 10.6728 26.2097 8.5781 24.4522 7.75791ZM19.4606 14.5317C18.3967 13.4681 18 12.3248 18 10.7753H18.0002C18.0002 8.92423 19.2469 7.27911 20.8687 6.46464C22.1454 5.82362 23.8652 5.86226 25.1514 6.47942C25.7109 6.74789 26.1175 7.05263 26.5295 7.4646C28.014 8.94867 28.4345 11.2387 27.515 13.1539C26.0242 16.2587 21.9119 16.9825 19.4606 14.5317ZM7.42708 22.9983C7.42708 20.4604 10.1454 18.6815 12.4522 19.7579C14.2097 20.5781 15.0709 22.6728 14.2365 24.4553C12.7706 27.5867 8.31727 27.0764 7.52704 23.7903C7.48504 23.6154 7.42727 23.1845 7.42727 22.9983H7.42708ZM6 22.7753C6 24.3248 6.39669 25.4681 7.46059 26.5317C9.02283 28.0936 11.2596 28.3661 13.0626 27.5547L13.3616 27.9284L14.9233 26.6791L14.6862 26.3826C15.0114 26.0279 15.2924 25.6174 15.515 25.1539C16.4345 23.2387 16.014 20.9487 14.5295 19.4646C14.1175 19.0526 13.7109 18.7479 13.1514 18.4794C11.8652 17.8623 10.1454 17.8236 8.86874 18.4646C7.24687 19.2791 6.0002 20.9242 6.0002 22.7753H6ZM30.2833 53.9972C30.2833 49.9367 34.6326 47.0903 38.3235 48.8126C41.1356 50.125 42.5135 53.4765 41.1785 56.3285C38.833 61.3387 31.7076 60.5222 30.4433 55.2644C30.3761 54.9847 30.2836 54.2953 30.2836 53.9972H30.2833ZM28 53.6405C28 56.1198 28.6347 57.949 30.337 59.6508C34.2591 63.5719 40.8387 62.4138 43.2239 57.4463C44.6953 54.382 44.0224 50.7179 41.6473 48.3434C40.9879 47.6842 40.3374 47.1966 39.4422 46.7671C37.3844 45.7796 34.6326 45.7178 32.59 46.7434C29.995 48.0466 28.0003 50.6788 28.0003 53.6405H28ZM50.2833 33.9972C50.2833 29.9367 54.6326 27.0903 58.3235 28.8126C61.1356 30.125 62.5135 33.4765 61.1785 36.3285C58.833 41.3387 51.7076 40.5222 50.4433 35.2644C50.3761 34.9847 50.2836 34.2953 50.2836 33.9972H50.2833ZM48 33.6405C48 36.1198 48.6347 37.949 50.3369 39.6508C54.2591 43.5719 60.8387 42.4138 63.2239 37.4463C64.6953 34.382 64.0224 30.7179 61.6473 28.3434C60.9879 27.6842 60.3374 27.1966 59.4422 26.7671C57.3844 25.7796 54.6326 25.7178 52.59 26.7434C52.0155 27.0319 51.4704 27.3856 50.9699 27.7935L50.6462 27.5863L49.6982 29.0675C48.6534 30.3591 48.0003 31.9459 48.0003 33.6405H48ZM15.933 31.1427L14.6473 29.5356L16.2091 28.2862L17.4948 29.8933L15.933 31.1427ZM18.5045 34.357L17.2188 32.7499L18.7805 31.5005L20.0662 33.1076L18.5045 34.357ZM21.0759 37.5713L19.7902 35.9642L21.3519 34.7148L22.6376 36.3219L21.0759 37.5713ZM23.6473 40.7856L22.3616 39.1785L23.9233 37.9291L25.2091 39.5362L23.6473 40.7856ZM26.2188 43.9999L24.933 42.3927L26.4948 41.1433L27.7805 42.7505L26.2188 43.9999ZM28.7902 47.2142L27.5045 45.607L29.0662 44.3576L30.3519 45.9648L28.7902 47.2142ZM28.1395 15.5565L29.9252 16.6994L31.0033 15.0149L29.2176 13.872L28.1395 15.5565ZM31.7109 17.8423L33.4967 18.9851L34.5748 17.3006L32.789 16.1577L31.7109 17.8423ZM35.2824 20.128L37.0681 21.2708L38.1462 19.5863L36.3605 18.4434L35.2824 20.128ZM38.8538 22.4137L40.6395 23.5565L41.7176 21.872L39.9319 20.7291L38.8538 22.4137ZM42.4252 24.6994L44.2109 25.8423L45.289 24.1577L43.5033 23.0149L42.4252 24.6994ZM45.9967 26.9851L47.7824 28.128L48.8605 26.4434L47.0748 25.3006L45.9967 26.9851Z" fill="#9A9A9A"/>
</svg>
