<svg width="36" height="31" viewBox="0 0 36 31" fill="none" xmlns="http://www.w3.org/2000/svg">
<path fill-rule="evenodd" clip-rule="evenodd" d="M0 1C0 0.447715 0.447715 0 1 0H35C35.5523 0 36 0.447715 36 1V4C36 4.55228 35.5523 5 35 5H1C0.447716 5 0 4.55228 0 4V1ZM0 14C0 13.4477 0.447715 13 1 13H35C35.5523 13 36 13.4477 36 14V17C36 17.5523 35.5523 18 35 18H1C0.447716 18 0 17.5523 0 17V14ZM1 26C0.447715 26 0 26.4477 0 27V30C0 30.5523 0.447716 31 1 31H35C35.5523 31 36 30.5523 36 30V27C36 26.4477 35.5523 26 35 26H1Z" fill="#9A9A9A"/>
</svg>
