<svg width="64" height="10" viewBox="0 0 64 10" fill="none" xmlns="http://www.w3.org/2000/svg">
<mask id="path-1-outside-1_64_1521" maskUnits="userSpaceOnUse" x="0.766602" y="0.295013" width="63" height="9" fill="black">
<rect fill="white" x="0.766602" y="0.295013" width="63" height="9"/>
<path fill-rule="evenodd" clip-rule="evenodd" d="M3.7666 4.79501C3.7666 3.96659 4.43817 3.29501 5.2666 3.29501L58.6755 3.29501C59.5039 3.29501 60.1755 3.96659 60.1755 4.79501C60.1755 5.62344 59.5039 6.29501 58.6755 6.29501L5.2666 6.29501C4.43817 6.29501 3.7666 5.62344 3.7666 4.79501Z"/>
</mask>
<path fill-rule="evenodd" clip-rule="evenodd" d="M3.7666 4.79501C3.7666 3.96659 4.43817 3.29501 5.2666 3.29501L58.6755 3.29501C59.5039 3.29501 60.1755 3.96659 60.1755 4.79501C60.1755 5.62344 59.5039 6.29501 58.6755 6.29501L5.2666 6.29501C4.43817 6.29501 3.7666 5.62344 3.7666 4.79501Z" fill="#6D6D6D"/>
<path d="M5.2666 0.295013C2.78132 0.295013 0.766602 2.30973 0.766602 4.79501H6.7666C6.7666 5.62344 6.09503 6.29501 5.2666 6.29501L5.2666 0.295013ZM58.6755 0.295013L5.2666 0.295013L5.2666 6.29501L58.6755 6.29501V0.295013ZM63.1755 4.79501C63.1755 2.30973 61.1607 0.295013 58.6755 0.295013V6.29501C57.847 6.29501 57.1755 5.62344 57.1755 4.79501L63.1755 4.79501ZM58.6755 9.29501C61.1607 9.29501 63.1755 7.2803 63.1755 4.79501L57.1755 4.79501C57.1755 3.96659 57.847 3.29501 58.6755 3.29501V9.29501ZM5.2666 9.29501L58.6755 9.29501V3.29501L5.2666 3.29501V9.29501ZM0.766602 4.79501C0.766602 7.28029 2.78132 9.29501 5.2666 9.29501V3.29501C6.09503 3.29501 6.7666 3.96659 6.7666 4.79501H0.766602Z" fill="#6D6D6D" mask="url(#path-1-outside-1_64_1521)"/>
</svg>
