<svg width="47" height="47" viewBox="0 0 47 47" fill="none" xmlns="http://www.w3.org/2000/svg">
<path fill-rule="evenodd" clip-rule="evenodd" d="M22.5768 46.6176C23.0867 47.1275 23.9133 47.1275 24.4232 46.6176L32.7317 38.3091C33.2415 37.7993 33.2415 36.9726 32.7317 36.4628C32.2218 35.9529 31.3952 35.9529 30.8853 36.4628L24.8056 42.5426V24.8056H42.5426L36.4628 30.8854C35.9529 31.3952 35.9529 32.2219 36.4628 32.7317C36.9726 33.2416 37.7993 33.2416 38.3091 32.7317L46.6176 24.4232C47.1275 23.9134 47.1275 23.0867 46.6176 22.5769L38.3091 14.2684C37.7993 13.7585 36.9726 13.7585 36.4628 14.2684C35.9529 14.7782 35.9529 15.6048 36.4628 16.1147L42.5426 22.1945L24.8056 22.1945V4.45744L30.8853 10.5372C31.3952 11.0471 32.2218 11.0471 32.7317 10.5372C33.2415 10.0274 33.2415 9.20074 32.7317 8.69089L24.4232 0.382387C23.9133 -0.127462 23.0867 -0.127462 22.5768 0.382387L14.2683 8.69089C13.7585 9.20074 13.7585 10.0274 14.2683 10.5372C14.7782 11.0471 15.6048 11.0471 16.1147 10.5372L22.1944 4.45744V22.1945L4.45745 22.1945L10.5372 16.1147C11.0471 15.6049 11.0471 14.7782 10.5372 14.2684C10.0274 13.7585 9.20074 13.7585 8.69089 14.2684L0.382388 22.5769C-0.127463 23.0867 -0.127463 23.9134 0.382388 24.4232L8.69089 32.7317C9.20075 33.2416 10.0274 33.2416 10.5372 32.7317C11.0471 32.2219 11.0471 31.3952 10.5372 30.8854L4.45745 24.8056H22.1944V42.5426L16.1147 36.4628C15.6048 35.9529 14.7782 35.9529 14.2683 36.4628C13.7585 36.9726 13.7585 37.7993 14.2683 38.3091L22.5768 46.6176Z" fill="#9A9A9A"/>
</svg>
