<svg width="63" height="63" viewBox="0 0 63 63" fill="none" xmlns="http://www.w3.org/2000/svg">
<mask id="path-1-outside-1_64_1524" maskUnits="userSpaceOnUse" x="0" y="0" width="63" height="63" fill="black">
<rect fill="white" width="63" height="63"/>
<path fill-rule="evenodd" clip-rule="evenodd" d="M4.5 30.295C3.67157 30.295 3 30.9666 3 31.795C3 32.6234 3.67157 33.295 4.5 33.295H29.705L29.705 58.5C29.705 59.3284 30.3766 60 31.205 60C32.0335 60 32.705 59.3284 32.705 58.5V33.295L57.9089 33.295C58.7373 33.295 59.4089 32.6234 59.4089 31.795C59.4089 30.9666 58.7373 30.295 57.9089 30.295L32.705 30.295L32.705 5.09114C32.705 4.26271 32.0335 3.59114 31.205 3.59114C30.3766 3.59114 29.705 4.26271 29.705 5.09114L29.705 30.295L4.5 30.295Z"/>
</mask>
<path fill-rule="evenodd" clip-rule="evenodd" d="M4.5 30.295C3.67157 30.295 3 30.9666 3 31.795C3 32.6234 3.67157 33.295 4.5 33.295H29.705L29.705 58.5C29.705 59.3284 30.3766 60 31.205 60C32.0335 60 32.705 59.3284 32.705 58.5V33.295L57.9089 33.295C58.7373 33.295 59.4089 32.6234 59.4089 31.795C59.4089 30.9666 58.7373 30.295 57.9089 30.295L32.705 30.295L32.705 5.09114C32.705 4.26271 32.0335 3.59114 31.205 3.59114C30.3766 3.59114 29.705 4.26271 29.705 5.09114L29.705 30.295L4.5 30.295Z" fill="white"/>
<path d="M29.705 33.295H32.705L29.705 30.295V33.295ZM32.705 33.295V30.295L29.705 33.295H32.705ZM32.705 30.295H29.705L32.705 33.295V30.295ZM29.705 30.295V33.295L32.705 30.295H29.705ZM6 31.795C6 32.6234 5.32843 33.295 4.5 33.295L4.5 27.295C2.01472 27.295 0 29.3097 0 31.795H6ZM4.5 30.295C5.32843 30.295 6 30.9666 6 31.795H0C0 34.2803 2.01472 36.295 4.5 36.295L4.5 30.295ZM29.705 30.295L4.5 30.295L4.5 36.295H29.705V30.295ZM32.705 58.5V33.295H26.705L26.705 58.5H32.705ZM31.205 57C32.0335 57 32.705 57.6716 32.705 58.5H26.705C26.705 60.9853 28.7198 63 31.205 63V57ZM29.705 58.5C29.705 57.6716 30.3766 57 31.205 57V63C33.6903 63 35.705 60.9853 35.705 58.5H29.705ZM29.705 33.295L29.705 58.5H35.705V33.295H29.705ZM57.9089 30.295L32.705 30.295V36.295L57.9089 36.295V30.295ZM56.4089 31.795C56.4089 30.9666 57.0804 30.295 57.9089 30.295V36.295C60.3941 36.295 62.4089 34.2803 62.4089 31.795H56.4089ZM57.9089 33.295C57.0804 33.295 56.4089 32.6234 56.4089 31.795H62.4089C62.4089 29.3097 60.3941 27.295 57.9089 27.295L57.9089 33.295ZM32.705 33.295L57.9089 33.295L57.9089 27.295L32.705 27.295V33.295ZM29.705 5.09114L29.705 30.295H35.705L35.705 5.09114L29.705 5.09114ZM31.205 6.59114C30.3766 6.59114 29.705 5.91957 29.705 5.09114L35.705 5.09114C35.705 2.60586 33.6903 0.591141 31.205 0.591141V6.59114ZM32.705 5.09114C32.705 5.91957 32.0335 6.59114 31.205 6.59114V0.591141C28.7198 0.591141 26.705 2.60586 26.705 5.09114H32.705ZM32.705 30.295L32.705 5.09114H26.705L26.705 30.295H32.705ZM4.5 33.295H29.705V27.295H4.5L4.5 33.295Z" fill="white" mask="url(#path-1-outside-1_64_1524)"/>
</svg>
