<svg width="63" height="63" viewBox="0 0 63 63" fill="none" xmlns="http://www.w3.org/2000/svg">
<mask id="path-1-outside-1_64_1466" maskUnits="userSpaceOnUse" x="0" y="0" width="63" height="63" fill="black">
<rect fill="white" width="63" height="63"/>
<path fill-rule="evenodd" clip-rule="evenodd" d="M32.705 4.5C32.705 3.67157 32.0334 3 31.205 3C30.3766 3 29.705 3.67157 29.705 4.5V29.705H4.5C3.67157 29.705 3 30.3766 3 31.205C3 32.0335 3.67157 32.705 4.5 32.705H29.705L29.705 57.9089C29.705 58.7373 30.3766 59.4089 31.205 59.4089C32.0334 59.4089 32.705 58.7373 32.705 57.9089V32.705H57.9089C58.7373 32.705 59.4089 32.0335 59.4089 31.205C59.4089 30.3766 58.7373 29.705 57.9089 29.705L32.705 29.705V4.5Z"/>
</mask>
<path fill-rule="evenodd" clip-rule="evenodd" d="M32.705 4.5C32.705 3.67157 32.0334 3 31.205 3C30.3766 3 29.705 3.67157 29.705 4.5V29.705H4.5C3.67157 29.705 3 30.3766 3 31.205C3 32.0335 3.67157 32.705 4.5 32.705H29.705L29.705 57.9089C29.705 58.7373 30.3766 59.4089 31.205 59.4089C32.0334 59.4089 32.705 58.7373 32.705 57.9089V32.705H57.9089C58.7373 32.705 59.4089 32.0335 59.4089 31.205C59.4089 30.3766 58.7373 29.705 57.9089 29.705L32.705 29.705V4.5Z" fill="#6D6D6D"/>
<path d="M29.705 29.705V32.705L32.705 29.705H29.705ZM29.705 32.705H32.705L29.705 29.705V32.705ZM32.705 32.705V29.705L29.705 32.705H32.705ZM32.705 29.705H29.705L32.705 32.705V29.705ZM31.205 6C30.3766 6 29.705 5.32843 29.705 4.5H35.705C35.705 2.01472 33.6903 0 31.205 0V6ZM32.705 4.5C32.705 5.32843 32.0334 6 31.205 6V0C28.7197 0 26.705 2.01472 26.705 4.5H32.705ZM32.705 29.705V4.5H26.705V29.705H32.705ZM4.5 32.705H29.705V26.705H4.5V32.705ZM6 31.205C6 32.0335 5.32843 32.705 4.5 32.705V26.705C2.01472 26.705 0 28.7198 0 31.205H6ZM4.5 29.705C5.32843 29.705 6 30.3766 6 31.205H0C0 33.6903 2.01472 35.705 4.5 35.705V29.705ZM29.705 29.705H4.5V35.705H29.705L29.705 29.705ZM32.705 57.9089V32.705H26.705L26.705 57.9089H32.705ZM31.205 56.4089C32.0334 56.4089 32.705 57.0804 32.705 57.9089H26.705C26.705 60.3941 28.7197 62.4089 31.205 62.4089V56.4089ZM29.705 57.9089C29.705 57.0804 30.3766 56.4089 31.205 56.4089V62.4089C33.6903 62.4089 35.705 60.3941 35.705 57.9089H29.705ZM29.705 32.705L29.705 57.9089H35.705V32.705H29.705ZM57.9089 29.705L32.705 29.705V35.705H57.9089V29.705ZM56.4089 31.205C56.4089 30.3766 57.0804 29.705 57.9089 29.705V35.705C60.3941 35.705 62.4089 33.6903 62.4089 31.205H56.4089ZM57.9089 32.705C57.0804 32.705 56.4089 32.0335 56.4089 31.205H62.4089C62.4089 28.7198 60.3941 26.705 57.9089 26.705V32.705ZM32.705 32.705H57.9089V26.705L32.705 26.705V32.705ZM29.705 4.5V29.705L35.705 29.705V4.5H29.705Z" fill="#6D6D6D" mask="url(#path-1-outside-1_64_1466)"/>
</svg>
