<svg width="38" height="10" viewBox="0 0 38 10" fill="none" xmlns="http://www.w3.org/2000/svg">
<path fill-rule="evenodd" clip-rule="evenodd" d="M9.5 4.75C9.5 7.37335 7.37335 9.5 4.75 9.5C2.12665 9.5 0 7.37335 0 4.75C0 2.12665 2.12665 0 4.75 0C7.37335 0 9.5 2.12665 9.5 4.75ZM23.75 4.75C23.75 7.37335 21.6234 9.5 19 9.5C16.3766 9.5 14.25 7.37335 14.25 4.75C14.25 2.12665 16.3766 0 19 0C21.6234 0 23.75 2.12665 23.75 4.75ZM33.25 9.5C35.8734 9.5 38 7.37335 38 4.75C38 2.12665 35.8734 0 33.25 0C30.6266 0 28.5 2.12665 28.5 4.75C28.5 7.37335 30.6266 9.5 33.25 9.5Z" fill="#646464"/>
</svg>
