<svg width="357" height="289" viewBox="0 0 357 289" fill="none" xmlns="http://www.w3.org/2000/svg">
<path fill-rule="evenodd" clip-rule="evenodd" d="M336.947 288.785L335.767 286.955L334.576 285.124L345.596 277.973H10.7995V11.3647L3.66126 22.373L0 20.0018L12.9864 0L25.9606 20.0018L22.2993 22.373L15.1611 11.3647V273.624H345.596L334.576 266.486L336.947 262.825L356.961 275.799L336.947 288.785ZM38.4314 237.663L40.4954 238.375L42.5472 239.076L38.3085 251.509L105.366 198.789L92.2814 199.981L91.8883 195.644L115.65 193.482L107.934 216.051L103.806 214.638L108.057 202.217L40.9992 254.925L54.0716 253.733L54.4648 258.07L30.7157 260.245L38.4314 237.663ZM200.215 185.508H239.653V71.5664H125.712V111.005H195.665L223.386 84.1971L210.498 86.7158L209.663 82.4402L233.068 77.8575L227.699 101.103L223.46 100.12L226.409 87.3301L200.215 112.661V185.508ZM200.215 189.869L241.828 189.869H244.002V67.2171H121.35V111.005V189.869L198.04 189.869H200.215ZM195.865 185.508V115.354H125.712V185.508L195.865 185.508ZM233.104 11.4877L233.927 13.5026V13.5271L234.751 15.5421L222.501 20.5794C229.517 22.1766 236.544 24.1301 243.191 26.9313C246.582 28.3319 249.838 29.8677 252.946 31.5509C258.61 34.5856 264.25 38.4311 269.103 42.6452C272.113 45.2499 274.926 48.0266 277.555 51.0121C281.352 55.2877 284.988 60.325 287.839 65.2886C290.517 69.8713 292.888 74.7612 294.94 79.9705C297.385 86.1258 299.191 92.404 300.715 98.8419L305.592 86.5313L309.647 88.1407L300.862 110.317L284.202 93.2518L287.323 90.2048L296.415 99.5177C295.751 96.5936 294.953 93.7064 294.105 90.8314L293.552 89.0622C290.05 78.2873 285.664 68.9744 279.017 59.7721L278.022 58.4452L276.99 57.1183L275.921 55.8037L274.84 54.5259L273.734 53.2605L272.641 52.0564C271.486 50.8524 270.343 49.6975 269.139 48.5303L267.948 47.4246L266.707 46.3065L265.454 45.2253L264.188 44.181L262.886 43.149C254.027 36.3916 245.095 31.944 234.579 28.3565C231.581 27.3736 228.644 26.5381 225.597 25.7518L223.754 25.3096L221.899 24.8918L231.323 33.8484L228.325 37.0059L211.038 20.5671L233.104 11.4877Z" fill="#9A9A9A"/>
</svg>
