<svg width="71" height="70" viewBox="0 0 71 70" fill="none" xmlns="http://www.w3.org/2000/svg">
<path fill-rule="evenodd" clip-rule="evenodd" d="M64.7219 67.7307H6.27813C5.15604 67.7307 4.13508 67.2743 3.39426 66.5391C2.65344 65.8039 2.19356 64.7906 2.19356 63.677V6.23081C2.19356 5.11718 2.65344 4.10393 3.39426 3.3687C4.13508 2.63346 5.15604 2.17707 6.27813 2.17707H64.7219C65.844 2.17707 66.8649 2.63346 67.6058 3.3687C68.3466 4.10393 68.8064 5.11718 68.8064 6.23081V63.677C68.8064 64.7906 68.3466 65.8039 67.6058 66.5391C66.8649 67.2743 65.844 67.7307 64.7219 67.7307ZM6.27813 69.9077H64.7219C66.4496 69.9077 68.0193 69.2071 69.1567 68.0783C70.2941 66.9495 71 65.3915 71 63.677V6.23076C71 4.51612 70.2941 2.95825 69.1567 1.82944C68.0193 0.70062 66.4495 0 64.7219 0H6.27813C4.55046 0 2.98075 0.70062 1.84335 1.82944C0.705956 2.95825 0 4.51617 0 6.23076V63.677C0 65.3916 0.705956 66.9495 1.84335 68.0783C2.98075 69.2071 4.5505 69.9077 6.27813 69.9077ZM43.5444 19.5768L28.1549 34.4999L43.5444 49.4231L41.456 51.5768L23.8455 34.4999L41.456 17.4231L43.5444 19.5768Z" fill="white"/>
</svg>
