<svg width="192" height="190" viewBox="0 0 192 190" fill="none" xmlns="http://www.w3.org/2000/svg">
<path fill-rule="evenodd" clip-rule="evenodd" d="M21.2863 72.179H35.8507V75.8958C35.8507 78.2356 38.2376 81.0993 42.1992 81.0993V85.9311C42.1992 88.3889 44.9578 91.1346 47.4276 91.1346C60.0191 91.1346 62.7387 92.4687 62.7387 81.0993C69.0144 81.0993 69.0872 75.8848 69.0872 72.179H118.008L118.016 72.1793C118.253 72.4276 118.494 72.673 118.738 72.9155C126.504 80.6452 137.233 85.4261 149.084 85.4261C149.683 85.4261 150.279 85.4133 150.871 85.3891V156.178H21.2866V72.179H21.2863ZM147.132 29.057L154.369 33.215H154.379L161.439 37.2718C164.427 38.8819 165.836 40.724 165.835 42.7726C165.834 44.8727 164.391 46.6063 161.679 48.0162L154.379 52.2109H154.369L147.315 56.264L147.32 56.272C144.423 58.0465 142.111 58.3402 140.323 57.3115C138.486 56.2546 137.703 54.1226 137.848 51.0447V34.6009C137.752 31.2173 138.651 29.0795 140.437 28.0545C142.278 26.9981 144.527 27.3893 147.134 29.0541L147.132 29.0568V29.057ZM151.694 37.8287L144.352 33.61L144.237 33.5473C143.416 33.0233 143.189 32.6242 143.104 32.6728C143.074 32.6903 143.167 33.2259 143.202 34.4548V51.2747C143.156 52.2461 142.928 52.6461 143.011 52.6934C143.044 52.7127 143.455 52.3602 144.507 51.7165L144.58 51.6853L151.694 47.5973L151.692 47.5928L159.042 43.3694L159.157 43.3066C160.021 42.8625 160.481 42.8726 160.481 42.7729C160.481 42.7388 159.97 42.5502 158.887 41.9678L151.692 37.8334L151.694 37.8288L151.694 37.8287ZM113.504 66.6039H69.0871V58.0554H109.02C110.193 61.0865 111.702 63.9515 113.504 66.6039ZM107.109 33.7771C106.111 33.8523 104.803 33.8967 103.07 33.8965L22.3976 33.8874C17.5264 33.8552 15.3112 35.4347 15.3112 40.215V155.806C15.3112 159.017 16.6479 162.125 19.7925 162.125H151.618C157.095 162.125 156.48 157.32 156.473 154.692L156.496 85.2113C156.527 85.0389 156.556 84.8962 156.584 84.7757C165.429 83.2238 173.34 78.9763 179.43 72.9156C187.196 65.1861 192 54.5077 192 42.7131C192 30.9184 187.196 20.2402 179.43 12.5106C171.664 4.7809 160.935 0 149.084 0C137.233 0 126.504 4.7809 118.738 12.5106C112.989 18.2317 108.865 25.5683 107.109 33.7771ZM107.295 52.4803C106.558 49.3434 106.168 46.0735 106.168 42.7131C106.168 41.7487 106.2 40.7917 106.264 39.8433H21.2865V52.4804H35.8508V50.2504C35.8508 47.0772 38.2641 44.6753 41.4524 44.6753H63.859C67.967 44.6753 69.0872 49.0952 69.0872 52.4804H107.296L107.295 52.4803ZM175.629 16.2931C168.836 9.53182 159.451 5.34992 149.084 5.34992C138.717 5.34992 129.332 9.53182 122.538 16.2931C115.745 23.0543 111.543 32.3953 111.543 42.7131C111.543 53.0308 115.745 62.3718 122.538 69.1331C129.331 75.8944 138.717 80.0763 149.084 80.0763C159.451 80.0763 168.836 75.8944 175.629 69.1331C182.423 62.3719 186.625 53.031 186.625 42.7131C186.625 32.3954 182.423 23.0544 175.629 16.2931ZM0.000137376 31.6664V176.991C0.000137376 183.592 6.4386 190 13.0705 190H159.087C165.876 190 172.157 183.363 172.157 176.62V87.046C172.157 85.1274 166.488 82.1445 166.54 88.8886L166.556 165.469C166.556 169.664 166.879 175.225 165.959 178.627C165.063 181.94 161.692 184.425 157.593 184.425H14.5643C8.96805 184.425 5.60175 180.543 5.60175 174.761V33.5249C5.60175 22.1899 17.2341 24.6047 24.6473 24.6047C48.2987 24.6047 71.95 24.6047 95.6015 24.6047C101.542 24.6047 106.805 25.9422 106.805 20.8879C106.805 19.6836 105.182 18.6579 103.817 18.6579H13.4441C6.5772 18.6579 0 25.2992 0 31.6665L0.000137376 31.6664ZM88.8795 142.426V120.497L98.5705 114.903C101.776 113.077 104.957 111.106 108.299 109.346V131.275L88.8795 142.426ZM29.1286 172.903C29.1286 177.025 34.3569 176.414 34.3569 173.274C34.3569 169.249 29.1286 170.449 29.1286 172.903ZM41.0789 173.274C41.0789 176.558 46.307 176.698 46.307 173.274C46.307 169.364 41.0789 170.187 41.0789 173.274ZM55.6431 175.876C58.5127 175.876 59.9978 170.673 55.2697 170.673C52.5905 170.673 52.2759 175.876 55.6431 175.876ZM58.123 110.357H58.1232C58.151 108.775 58.2572 107.111 58.2572 105.63C58.2572 102.18 61.7644 100.632 63.4667 99.6644L77.6569 91.4869C82.2066 88.8801 82.8019 87.7894 87.0124 87.7894C89.0454 87.7894 105.941 98.1829 109.174 99.9268C111.644 101.259 113.9 102.775 113.9 106.373V131.276C113.9 133.164 113.117 134.421 112.137 135.467C111.073 136.603 109.982 137.061 108.557 137.851L93.6664 146.446C92.4166 147.199 91.1835 147.924 89.8847 148.629C88.7075 149.269 87.1837 149.859 85.5186 149.859C83.6609 149.859 72.7994 143.082 70.4528 141.81C58.8658 135.527 58.2703 135.49 58.2549 128.904H58.123V111.699C58.1137 111.265 58.1151 110.817 58.123 110.363V110.357V110.357ZM63.874 110.357H63.922V127.63C63.9362 128.041 63.9326 128.469 63.922 128.902V128.904C63.9022 129.701 63.8589 130.514 63.8589 131.275C68.1046 134.105 73.9418 137.031 78.4973 139.75C80.2195 140.778 81.5172 141.498 83.2779 142.425V120.497L73.5877 114.902C70.4004 113.076 67.1357 111.072 63.8589 109.346C63.8589 109.682 63.8653 110.02 63.874 110.356V110.357ZM85.8921 93.3643L105.311 104.515C103.425 105.016 86.751 115.39 85.8921 115.293C85.3394 115.231 68.5954 104.979 66.8463 104.515L85.8921 93.3643ZM47.8009 81.0992H56.7636V85.5592H47.8009V81.0992ZM41.4523 50.2501H63.1119V75.1523H41.4523V50.2501ZM21.2863 58.0551H35.8507V66.6036H21.2863V58.0551Z" fill="#4B4B4B"/>
</svg>
