<svg width="37" height="38" viewBox="0 0 37 38" fill="none" xmlns="http://www.w3.org/2000/svg">
<path fill-rule="evenodd" clip-rule="evenodd" d="M6.78405 7.7181C6.3023 8.1619 5.93557 8.49975 5.93557 9.19059C5.93557 9.51232 6.10908 9.7033 6.27506 9.886C6.30891 9.92326 6.34245 9.96017 6.37414 9.99778C6.566 10.2253 6.71969 10.4232 6.8669 10.6711C7.97475 12.5373 7.29627 14.9447 5.50074 15.8684C5.13544 16.0562 5.01753 16.1154 4.61235 16.2188C4.37258 16.28 4.19157 16.2864 4.00237 16.293C3.85059 16.2984 3.69355 16.3039 3.49666 16.3381C2.37037 16.5335 2.4061 17.6762 2.44928 19.0572C2.45792 19.3333 2.46685 19.619 2.46685 19.9085C2.46685 21.2178 3.31415 21.2844 4.06548 21.3435C4.28423 21.3607 4.49484 21.3773 4.67403 21.4237C7.19097 22.0752 8.45081 25.2608 6.33802 27.6703C5.48258 28.6457 6.10364 29.2436 6.85248 29.9644C6.96306 30.0709 7.07643 30.18 7.18825 30.2935C7.25068 30.3568 7.32594 30.4401 7.4106 30.5337C7.78481 30.9477 8.34264 31.5648 8.78783 31.5648C9.35344 31.5648 9.49135 31.4329 9.75805 31.1779C9.90656 31.036 10.095 30.8558 10.4194 30.639C12.1277 29.4977 14.6532 30.1147 15.5982 32.0068C15.9948 32.801 15.9975 33.0122 16.0019 33.3459C16.0041 33.5151 16.0067 33.7158 16.0613 34.04C16.2538 35.183 17.3798 35.1467 18.7405 35.1029C19.0126 35.0942 19.2941 35.0851 19.5794 35.0851C20.8695 35.0851 20.9351 34.2252 20.9933 33.4627C21.0103 33.2407 21.0266 33.0269 21.0723 32.8451C21.1651 32.476 21.2195 32.368 21.3507 32.1078C21.3666 32.0763 21.3836 32.0427 21.4019 32.0061C22.4439 29.9193 25.228 29.3504 27.2274 31.1563C28.1881 32.0244 28.7774 31.3941 29.4877 30.6344C29.5926 30.5221 29.7003 30.407 29.8121 30.2935C29.8745 30.2301 29.9566 30.1537 30.0489 30.0678C30.4568 29.688 31.0648 29.1219 31.0648 28.6701C31.0648 28.1318 31.02 28.0807 30.7675 27.7924C30.7262 27.7453 30.6793 27.6918 30.6262 27.6288C28.8835 25.5627 29.4649 22.805 31.4996 21.7581C32.2505 21.3718 32.5255 21.3612 32.8886 21.3473C33.0563 21.3408 33.2428 21.3337 33.5037 21.2885C34.63 21.093 34.5943 19.9503 34.5511 18.5693C34.5424 18.2932 34.5335 18.0075 34.5335 17.718C34.5335 16.5086 33.948 16.4268 33.1067 16.3094C32.6326 16.2432 32.0772 16.1656 31.4996 15.8684C29.4931 14.8361 28.8522 12.0203 30.6623 9.95628C31.5177 8.98126 30.8966 8.38319 30.148 7.66237C30.0374 7.55582 29.924 7.4466 29.8121 7.33308C29.7497 7.26971 29.6744 7.18646 29.5898 7.0928C29.2156 6.67885 28.6577 6.06176 28.2125 6.06176C27.6821 6.06176 27.6318 6.10723 27.3477 6.36347C27.3013 6.40539 27.2486 6.45294 27.1865 6.50686C25.1606 8.26685 22.4378 7.69448 21.4019 5.62047C21.0212 4.85846 21.0108 4.57936 20.9971 4.21083C20.9907 4.04062 20.9837 3.85133 20.9391 3.58658C20.7465 2.44353 19.6206 2.4798 18.2598 2.52362C17.9877 2.53238 17.7062 2.54145 17.421 2.54145C16.1332 2.54145 16.0696 3.38861 16.0134 4.13643C15.9959 4.36992 15.9791 4.59373 15.926 4.77904C15.819 5.15186 15.7225 5.38322 15.5733 5.67269C14.5407 7.67269 11.7839 8.28621 9.77301 6.46986C8.81227 5.6018 8.22297 6.23211 7.51271 6.99181C7.40773 7.10409 7.30011 7.21921 7.18825 7.33273C7.04854 7.47445 6.91222 7.60002 6.78405 7.7181ZM5.73754 5.2029C6.64336 4.26766 7.40651 3.47972 8.94186 3.47972L8.9422 3.48075C9.4244 3.48075 10.0831 3.67131 10.4341 3.84389C10.9213 4.08326 11.0203 4.17642 11.3033 4.44273C11.3514 4.48807 11.405 4.53844 11.4666 4.5954C12.263 5.33066 13.378 5.0277 13.5505 3.93311C13.5733 3.78881 13.572 3.64812 13.5706 3.50636C13.5692 3.35424 13.5677 3.20089 13.5961 3.0405C13.8701 1.49113 15.3702 0.0382528 16.8819 0.0382528C17.2999 0.0382528 17.698 0.027772 18.0773 0.0177824C20.2468 -0.0393443 21.806 -0.0804027 23.0181 1.9466C23.2879 2.39794 23.3548 2.93991 23.417 3.44349C23.5227 4.29974 23.6146 5.04499 24.6671 5.04499C24.9458 5.04499 25.2378 4.81084 25.5964 4.52329C26.3594 3.91142 27.4239 3.05776 29.3033 3.70382C30.1108 3.98127 30.6589 4.56038 31.2275 5.16124C31.345 5.28539 31.4634 5.41047 31.5851 5.53401C31.6981 5.64868 31.8139 5.76191 31.9301 5.87554C32.7589 6.68592 33.6087 7.51685 33.6087 9.03461C33.6087 10.3667 33.0636 11.034 32.6289 11.5662C32.2648 12.012 31.9781 12.363 32.1539 12.9305C32.296 13.3891 32.5434 13.6817 33.0965 13.7785C33.2254 13.801 33.3729 13.8091 33.5356 13.8179C34.1369 13.8507 34.9451 13.8947 35.7876 14.724C36.3454 15.2732 37 16.1005 37 17.1705V20.2997C37 21.8366 35.839 23.183 34.6991 23.5969C34.2129 23.7736 33.7952 23.8046 33.4421 23.8308C32.8198 23.877 32.3978 23.9083 32.1539 24.696C31.9876 25.2324 32.2418 25.6661 32.5475 25.9915C32.9349 26.4041 33.0593 26.5594 33.3006 27.1048C33.8254 28.2917 33.6366 29.7038 32.9053 30.6946C32.5799 31.1359 30.5611 33.1778 30.1198 33.5001C29.1459 34.2115 27.731 34.3547 26.5663 33.7826C26.0791 33.5433 25.9801 33.4501 25.6971 33.1838C25.6489 33.1385 25.5954 33.0881 25.5337 33.0311C24.7377 32.2962 23.6203 32.5992 23.4499 33.6934C23.4206 33.8806 23.4191 34.0253 23.4176 34.1681C23.4145 34.4512 23.4116 34.7267 23.193 35.3102C22.7932 36.3782 21.4417 37.5879 20.1185 37.5879C19.7004 37.5879 19.3024 37.5984 18.923 37.6084C16.7536 37.6655 15.1944 37.7066 13.9822 35.6796C13.6367 35.1017 13.6079 34.6286 13.5806 34.1778C13.5709 34.0187 13.5614 33.8624 13.5382 33.7052C13.3736 32.5912 12.2518 32.2336 11.4643 33.0294C10.4784 34.0258 9.1177 34.411 7.69702 33.9227C7.34432 33.8017 7.06284 33.6381 6.79261 33.4327C6.41708 33.1473 4.24977 30.9699 4.02111 30.613C2.89861 28.8613 3.35831 27.3666 4.47161 25.9327C4.50174 25.8939 4.53175 25.8564 4.56111 25.8197C4.823 25.4926 5.03383 25.2292 4.8267 24.6358C4.65529 24.1448 4.35336 23.9075 3.83744 23.8366C3.54653 23.7966 3.35249 23.7869 3.19133 23.7788C2.89637 23.764 2.7115 23.7548 2.24433 23.5758C1.19577 23.1743 0 21.7986 0 20.4557V17.1702C0 16.1001 0.654623 15.2729 1.21247 14.7237C2.04504 13.9041 2.833 13.8491 3.47252 13.8045C4.13287 13.7584 4.63497 13.7233 4.86452 12.869C5.01314 12.3156 4.76233 12.0174 4.42226 11.613C4.19001 11.3369 3.91612 11.0113 3.69942 10.521C2.70136 8.26346 4.12526 6.83111 5.26807 5.68153C5.33095 5.61827 5.39299 5.55587 5.45372 5.49424C5.55048 5.39604 5.64476 5.2987 5.73754 5.2029ZM21.0187 13.1279C17.0317 11.2393 12.3334 14.3605 12.3334 18.8132H12.3338C12.3338 19.14 12.4336 19.896 12.5062 20.2028C13.872 25.9683 21.569 26.8637 24.1027 21.3696C25.5448 18.2422 24.0563 14.5669 21.0187 13.1279ZM12.3914 25.0127C10.5526 23.1466 9.86693 21.1407 9.86693 18.422H9.86727C9.86727 15.1742 12.022 12.2878 14.8252 10.8588C17.0317 9.73416 20.0042 9.80194 22.2271 10.8848C23.1942 11.3558 23.8969 11.8905 24.6091 12.6133C27.1747 15.2171 27.9016 19.2351 26.3123 22.5953C23.7357 28.0426 16.6282 29.3126 12.3914 25.0127Z" fill="#9A9A9A"/>
</svg>
