<svg width="178" height="177" viewBox="0 0 178 177" fill="none" xmlns="http://www.w3.org/2000/svg">
<path fill-rule="evenodd" clip-rule="evenodd" d="M122.758 39.3949C127.852 39.3949 129.756 41.9957 132.575 44.8214C135.395 47.6471 137.99 49.5545 137.99 54.6604C137.99 58.3228 135.825 60.6562 133.803 63.5827C131.524 66.8815 132.137 63.8025 135.206 72.4768C135.782 74.1032 136.091 73.4857 139.874 74.2391C141.819 74.6266 143.575 74.8272 145.14 75.639C148.933 77.6064 150.071 80.6995 150.366 84.2905V92.3456C150.366 95.8703 147.657 99.0886 145.297 100.384C143.562 101.336 139.426 101.994 137.235 102.322C134.305 102.761 136.098 102.845 133.392 108.249C132.027 110.974 132.043 110.037 133.705 112.382C136.12 115.787 137.99 117.764 137.99 121.921C137.99 126.522 134.944 128.91 132.575 131.283C129.756 134.109 127.852 136.71 122.758 136.71C119.103 136.71 116.775 134.54 113.854 132.514C110.563 130.23 113.635 130.844 104.979 133.92C103.357 134.497 103.973 134.807 103.221 138.597C102.83 140.569 102.639 142.278 101.821 143.873C99.8722 147.675 96.7835 148.816 93.198 149.113H85.1529C80.7047 149.113 76.1084 144.759 76.1084 140.287C76.1084 137.583 79.6301 136.479 81.4266 138.297C82.2722 139.153 82.0653 139.488 82.5317 140.529C83.9607 143.717 87.2614 142.911 92.293 142.911C95.1386 142.911 96.1984 141.702 96.6818 139.2C97.1453 136.802 97.4681 134.735 97.9011 132.313C98.7371 127.635 100.765 129.434 107.766 125.98C112.452 123.668 111.643 122.915 118.271 127.848C123.804 131.965 124.08 130.733 128.053 126.751C129.138 125.664 131.354 123.977 131.634 122.293C132.076 119.638 127.246 114.902 125.854 112.133C124.822 110.078 126.279 108.466 127.283 106.421C128.149 104.658 128.907 102.672 129.572 100.606C131.097 95.8686 131.623 96.8974 140.476 95.314C145.111 94.4847 144.178 90.8823 144.178 85.1896C144.178 80.2066 139.98 80.8094 133.604 79.5676C128.912 78.6539 130.794 76.8309 127.283 69.6822C126.872 68.8455 126.209 67.7527 125.888 67.0225C124.759 64.4489 126.839 62.2696 129.147 59.155C130.069 57.9109 131.946 55.6846 131.634 53.8106C131.359 52.1621 125.249 46.0388 123.604 45.7641C120.955 45.3211 116.23 50.1612 113.466 51.5559C112.434 52.0766 111.528 52.0097 110.421 51.5225C107.549 50.2575 106.566 49.1393 101.95 47.8437C99.3459 47.1129 98.3556 46.7141 97.8638 43.8289C95.8887 32.2429 97.1447 33.1929 86.5802 33.1929C83.7346 33.1929 82.6747 34.4018 82.1914 36.904C81.7279 39.3026 81.4051 41.3692 80.9721 43.7915C80.136 48.4691 78.1084 46.6705 71.1068 50.1244C66.4212 52.4357 67.2302 53.1892 60.6017 48.2561C55.0693 44.1388 54.7935 45.3709 50.8201 49.3528C46.5607 53.6214 45.7948 53.8469 49.7257 59.1555L53.0185 63.9713C54.0507 66.0266 52.5939 67.6383 51.59 69.6828C50.7833 71.3251 49.8648 73.5412 49.3142 75.5121C48.585 78.1219 48.187 79.1144 45.308 79.6073C33.7469 81.5866 34.6949 80.3279 34.6949 90.9152C34.6949 93.2633 35.4428 94.24 37.072 94.973C38.0086 95.3945 38.3936 95.2563 39.1776 95.9638C42.4964 98.9583 37.6208 105.04 31.1789 98.4938C29.4175 96.7037 28.7397 94.585 28.5068 92.183V83.7597C28.5068 80.235 31.2162 77.0167 33.5762 75.7217C35.3111 74.7694 39.4472 74.1111 41.6382 73.7831C44.3408 73.3786 42.8508 73.5344 45.4833 67.8575C46.9734 64.6443 47.208 66.933 42.4495 59.7696C41.3539 58.1205 40.8831 56.5706 40.8831 54.1839C40.8831 49.5834 43.9294 47.1956 46.2979 44.822C49.1175 41.9963 51.0208 39.3955 56.1156 39.3955C59.7702 39.3955 62.0985 41.5652 65.0188 43.5915C68.3104 45.8751 65.2381 45.261 73.8937 42.1855C75.5166 41.6088 74.9004 41.2984 75.6523 37.5079C76.0389 35.5586 76.239 33.7985 77.0491 32.2298C78.2949 29.8183 81.5555 26.9926 85.1518 26.9926H93.2126C96.7185 27.286 99.7348 28.402 101.741 32.0729C102.691 33.8115 103.348 37.9566 103.675 40.1523C104.113 43.0891 104.197 41.2921 109.59 44.004C112.702 45.5686 110.779 45.5556 117.659 40.9653C118.972 40.0889 120.673 39.3955 122.756 39.3955L122.758 39.3949ZM98.0051 63.4853C98.0051 72.7662 79.7477 75.6299 89.4931 84.6565C90.1025 85.2213 90.4286 85.3471 91.0476 85.9606C93.3093 88.2033 94.7361 90.6761 97.7666 90.6761C99.9073 90.6761 100.87 89.355 101.991 88.2311C104.947 85.266 109.745 78.9887 112.999 78.9887C120.044 78.9887 119.663 84.3143 119.663 88.7681C119.663 94.3844 117.081 100.83 114.053 104.852C110.696 109.308 107.094 112.286 101.894 114.61C98.6128 116.076 94.2986 117.152 89.674 117.152C87.5497 117.152 88.5237 116.587 84.7708 117.247C79.6646 118.146 76.408 122.741 72.2391 126.871C71.5907 127.513 71.4562 127.709 70.9067 128.398C70.4511 128.97 70.0317 129.324 69.5026 129.853C67.5908 131.766 65.7746 133.507 63.9046 135.454C61.9589 137.48 61.0324 138.711 58.4451 141.193C55.9964 143.542 52.0666 141.048 53.3475 137.765L61.4106 129.139C62.4648 128.088 63.0929 127.207 64.1471 126.157C66.4495 123.863 68.8723 121.611 70.9412 119.131C75.2786 113.931 80.677 110.704 87.769 110.713C93.4009 110.719 96.6835 110.451 101.652 107.69C109.259 103.463 113.474 95.7502 113.474 85.9068C112.554 86.1532 112.139 86.8851 111.51 87.5167C106.222 92.8305 102.396 98.5142 95.0588 96.7292C91.1432 95.7769 88.8532 92.8373 86.401 90.3793C82.0676 86.0365 80.3916 84.9613 80.3916 78.9898C80.3916 74.3847 84.9228 70.7189 88.1884 67.4836L91.3399 63.9634C83.0218 63.9634 75.7031 67.2106 71.2493 73.6449C63.8385 84.3506 68.8655 89.4009 65.605 98.0417C64.25 101.633 61.808 104.174 59.2688 106.719C57.9811 108.009 56.8708 109.129 55.5797 110.416L51.8907 114.351C50.1723 116.073 41.9057 125.035 40.605 125.473C37.6751 126.46 34.847 123.069 37.3687 120.31C42.8299 114.334 48.6839 108.712 54.2683 102.661C56.9099 99.799 60.6379 97.175 60.6379 91.3939C60.6379 89.8071 60.4655 89.0565 60.3931 87.8119C60.2523 85.3856 61.2189 80.0208 62.0335 77.7662C63.1776 74.6 65.3427 70.3977 67.7157 67.9567C69.2544 66.3739 69.3313 65.9042 71.5811 64.1979C76.1842 60.7072 82.162 57.7625 88.7221 57.7625H92.0544C95.3104 57.7625 98.0045 60.2387 98.0045 63.487L98.0051 63.4853ZM162.338 170.622H16.5359C13.7367 170.622 11.1895 169.472 9.34159 167.62C7.49369 165.768 6.34616 163.215 6.34616 160.41V15.696C6.34616 12.8907 7.49369 10.338 9.34159 8.48616C11.1895 6.63427 13.7367 5.48428 16.5359 5.48428H162.338C165.137 5.48428 167.684 6.63427 169.532 8.48616C171.38 10.338 172.528 12.8907 172.528 15.696V160.41C172.528 163.215 171.38 165.768 169.532 167.62C167.684 169.472 165.137 170.622 162.338 170.622ZM16.5359 176.106H162.338C166.648 176.106 170.564 174.341 173.401 171.497C176.239 168.654 178 164.729 178 160.41V15.696C178 11.3764 176.239 7.4523 173.401 4.60847C170.564 1.76465 166.648 0 162.338 0H16.5359C12.2257 0 8.30994 1.76521 5.47224 4.60847C2.63454 7.4523 0.873714 11.3764 0.873714 15.696V160.41C0.873714 164.729 2.6351 168.654 5.47224 171.497C8.30994 174.341 12.2257 176.106 16.5359 176.106Z" fill="#9A9A9A"/>
</svg>
