<svg width="57" height="58" viewBox="0 0 57 58" fill="none" xmlns="http://www.w3.org/2000/svg">
<g filter="url(#filter0_d_64_1958)">
<path fill-rule="evenodd" clip-rule="evenodd" d="M16.7841 17.7181C16.3023 18.1619 15.9356 18.4998 15.9356 19.1906C15.9356 19.5123 16.1091 19.7033 16.2751 19.886C16.3089 19.9233 16.3425 19.9602 16.3741 19.9978C16.566 20.2253 16.7197 20.4232 16.8669 20.6711C17.9747 22.5373 17.2963 24.9447 15.5007 25.8684C15.1354 26.0562 15.0175 26.1154 14.6124 26.2188C14.3726 26.28 14.1916 26.2864 14.0024 26.293C13.8506 26.2984 13.6935 26.3039 13.4967 26.3381C12.3704 26.5335 12.4061 27.6762 12.4493 29.0572C12.4579 29.3333 12.4668 29.619 12.4668 29.9085C12.4668 31.2178 13.3142 31.2844 14.0655 31.3435C14.2842 31.3607 14.4948 31.3773 14.674 31.4237C17.191 32.0752 18.4508 35.2608 16.338 37.6703C15.4826 38.6457 16.1036 39.2436 16.8525 39.9644C16.9631 40.0709 17.0764 40.18 17.1882 40.2935C17.2507 40.3568 17.3259 40.4401 17.4106 40.5337C17.7848 40.9477 18.3426 41.5648 18.7878 41.5648C19.3534 41.5648 19.4913 41.4329 19.758 41.1779C19.9066 41.036 20.095 40.8558 20.4194 40.639C22.1277 39.4977 24.6532 40.1147 25.5982 42.0068C25.9948 42.801 25.9975 43.0122 26.0019 43.3459C26.0041 43.5151 26.0067 43.7158 26.0613 44.04C26.2538 45.183 27.3798 45.1467 28.7405 45.1029C29.0126 45.0942 29.2941 45.0851 29.5794 45.0851C30.8695 45.0851 30.9351 44.2252 30.9933 43.4627C31.0103 43.2407 31.0266 43.0269 31.0723 42.8451C31.1651 42.476 31.2195 42.368 31.3507 42.1078C31.3666 42.0763 31.3836 42.0427 31.4019 42.0061C32.4439 39.9193 35.228 39.3504 37.2274 41.1563C38.1881 42.0244 38.7774 41.3941 39.4876 40.6344C39.5926 40.5221 39.7003 40.407 39.8121 40.2935C39.8745 40.2301 39.9566 40.1537 40.0489 40.0678C40.4568 39.688 41.0648 39.1219 41.0648 38.6701C41.0648 38.1318 41.02 38.0807 40.7675 37.7924C40.7262 37.7453 40.6793 37.6918 40.6262 37.6288C38.8835 35.5627 39.4649 32.805 41.4996 31.7581C42.2505 31.3718 42.5255 31.3612 42.8886 31.3473C43.0563 31.3408 43.2428 31.3337 43.5037 31.2885C44.63 31.093 44.5943 29.9503 44.5511 28.5693C44.5424 28.2932 44.5335 28.0075 44.5335 27.718C44.5335 26.5086 43.948 26.4268 43.1067 26.3094C42.6326 26.2432 42.0772 26.1656 41.4996 25.8684C39.4931 24.8361 38.8522 22.0203 40.6623 19.9563C41.5177 18.9813 40.8966 18.3832 40.148 17.6624C40.0374 17.5558 39.924 17.4466 39.8121 17.3331C39.7497 17.2697 39.6744 17.1865 39.5898 17.0928C39.2156 16.6788 38.6577 16.0618 38.2125 16.0618C37.6821 16.0618 37.6318 16.1072 37.3477 16.3635C37.3013 16.4054 37.2486 16.4529 37.1865 16.5069C35.1606 18.2668 32.4378 17.6945 31.4019 15.6205C31.0212 14.8585 31.0108 14.5794 30.9971 14.2108C30.9907 14.0406 30.9837 13.8513 30.9391 13.5866C30.7465 12.4435 29.6206 12.4798 28.2598 12.5236C27.9877 12.5324 27.7062 12.5414 27.421 12.5414C26.1332 12.5414 26.0696 13.3886 26.0134 14.1364C25.9959 14.3699 25.9791 14.5937 25.926 14.779C25.819 15.1519 25.7225 15.3832 25.5733 15.6727C24.5407 17.6727 21.7839 18.2862 19.773 16.4699C18.8123 15.6018 18.223 16.2321 17.5127 16.9918C17.4077 17.1041 17.3001 17.2192 17.1882 17.3327C17.0485 17.4744 16.9122 17.6 16.7841 17.7181ZM15.7375 15.2029C16.6432 14.2678 17.4063 13.4799 18.9413 13.4797C18.9416 13.4797 18.9419 13.4799 18.942 13.4802C18.9421 13.4805 18.9424 13.4808 18.9427 13.4808C19.4249 13.4809 20.0832 13.6714 20.4341 13.8439C20.9213 14.0833 21.0203 14.1764 21.3033 14.4427C21.3514 14.4881 21.405 14.5384 21.4666 14.5954C22.263 15.3307 23.378 15.0277 23.5505 13.9331C23.5733 13.7888 23.572 13.6481 23.5706 13.5064C23.5692 13.3542 23.5677 13.2009 23.5961 13.0405C23.8701 11.4911 25.3702 10.0383 26.8819 10.0383C27.2999 10.0383 27.698 10.0278 28.0773 10.0178C30.2468 9.96066 31.806 9.9196 33.0181 11.9466C33.2879 12.3979 33.3548 12.9399 33.417 13.4435C33.5227 14.2997 33.6146 15.045 34.6671 15.045C34.9458 15.045 35.2378 14.8108 35.5964 14.5233C36.3594 13.9114 37.4239 13.0578 39.3033 13.7038C40.1108 13.9813 40.6589 14.5604 41.2275 15.1612C41.345 15.2854 41.4634 15.4105 41.5851 15.534C41.6981 15.6487 41.8139 15.7619 41.9301 15.8755C42.7589 16.6859 43.6087 17.5169 43.6087 19.0346C43.6087 20.3667 43.0636 21.034 42.6289 21.5662C42.2648 22.012 41.9781 22.363 42.1539 22.9305C42.296 23.3891 42.5434 23.6817 43.0965 23.7785C43.2254 23.801 43.3729 23.8091 43.5356 23.8179C44.1369 23.8507 44.9451 23.8947 45.7876 24.724C46.3454 25.2732 47 26.1005 47 27.1705V30.2997C47 31.8366 45.839 33.183 44.6991 33.5969C44.2129 33.7736 43.7952 33.8046 43.4421 33.8308C42.8198 33.877 42.3978 33.9083 42.1539 34.696C41.9876 35.2324 42.2418 35.6661 42.5475 35.9915C42.9349 36.4041 43.0593 36.5594 43.3006 37.1048C43.8254 38.2917 43.6366 39.7038 42.9053 40.6946C42.5799 41.1359 40.5611 43.1778 40.1198 43.5001C39.1459 44.2115 37.731 44.3547 36.5663 43.7826C36.0791 43.5433 35.9801 43.4501 35.6971 43.1838C35.6489 43.1385 35.5954 43.0881 35.5337 43.0311C34.7377 42.2962 33.6203 42.5992 33.4499 43.6934C33.4206 43.8806 33.4191 44.0253 33.4176 44.1681C33.4145 44.4512 33.4116 44.7267 33.193 45.3102C32.7932 46.3782 31.4417 47.5879 30.1185 47.5879C29.7004 47.5879 29.3024 47.5984 28.923 47.6084C26.7536 47.6655 25.1943 47.7066 23.9822 45.6796C23.6367 45.1017 23.6079 44.6286 23.5806 44.1778C23.5709 44.0187 23.5614 43.8624 23.5382 43.7052C23.3736 42.5912 22.2518 42.2336 21.4643 43.0294C20.4784 44.0258 19.1177 44.411 17.697 43.9227C17.3443 43.8017 17.0628 43.6381 16.7926 43.4327C16.4171 43.1473 14.2498 40.9699 14.0211 40.613C12.8986 38.8613 13.3583 37.3666 14.4716 35.9327C14.5017 35.8939 14.5317 35.8564 14.5611 35.8197C14.823 35.4926 15.0338 35.2292 14.8267 34.6358C14.6553 34.1448 14.3534 33.9075 13.8374 33.8366C13.5465 33.7966 13.3525 33.7869 13.1913 33.7788C12.8964 33.764 12.7115 33.7548 12.2443 33.5758C11.1958 33.1743 10 31.7986 10 30.4557V27.1702C10 26.1001 10.6546 25.2729 11.2125 24.7237C12.045 23.9041 12.833 23.8491 13.4725 23.8045C14.1329 23.7584 14.635 23.7233 14.8645 22.869C15.0131 22.3156 14.7623 22.0174 14.4223 21.613C14.19 21.3369 13.9161 21.0113 13.6994 20.521C12.7014 18.2635 14.1253 16.8311 15.2681 15.6815C15.331 15.6183 15.393 15.5559 15.4537 15.4942C15.5505 15.396 15.6448 15.2987 15.7375 15.2029ZM31.0187 23.1279C27.0317 21.2393 22.3336 24.3604 22.3334 28.813C22.3334 28.8131 22.3335 28.8132 22.3336 28.8132C22.3337 28.8132 22.3338 28.8132 22.3338 28.8133C22.3338 29.1402 22.4336 29.8961 22.5062 30.2028C23.872 35.9683 31.569 36.8637 34.1027 31.3696C35.5448 28.2422 34.0563 24.5669 31.0187 23.1279ZM22.3914 35.0127C20.5526 33.1466 19.867 31.1408 19.8669 28.4222C19.8669 28.4221 19.867 28.422 19.8671 28.422C19.8672 28.422 19.8673 28.4219 19.8673 28.4219C19.8673 25.1741 22.022 22.2878 24.8252 20.8588C27.0317 19.7342 30.0042 19.8019 32.2271 20.8848C33.1942 21.3558 33.8969 21.8905 34.6091 22.6133C37.1747 25.2171 37.9016 29.2351 36.3123 32.5953C33.7357 38.0426 26.6282 39.3126 22.3914 35.0127Z" fill="#D9D9D9"/>
</g>
<defs>
<filter id="filter0_d_64_1958" x="0" y="0" width="57" height="57.6262" filterUnits="userSpaceOnUse" color-interpolation-filters="sRGB">
<feFlood flood-opacity="0" result="BackgroundImageFix"/>
<feColorMatrix in="SourceAlpha" type="matrix" values="0 0 0 0 0 0 0 0 0 0 0 0 0 0 0 0 0 0 127 0" result="hardAlpha"/>
<feOffset/>
<feGaussianBlur stdDeviation="5"/>
<feComposite in2="hardAlpha" operator="out"/>
<feColorMatrix type="matrix" values="0 0 0 0 1 0 0 0 0 1 0 0 0 0 1 0 0 0 1 0"/>
<feBlend mode="normal" in2="BackgroundImageFix" result="effect1_dropShadow_64_1958"/>
<feBlend mode="normal" in="SourceGraphic" in2="effect1_dropShadow_64_1958" result="shape"/>
</filter>
</defs>
</svg>
