<svg width="44" height="42" viewBox="0 0 44 42" fill="none" xmlns="http://www.w3.org/2000/svg">
<path fill-rule="evenodd" clip-rule="evenodd" d="M29.8089 11.9554L27.542 4.13412C25.9443 -1.37802 18.0557 -1.37806 16.458 4.13412L14.1911 11.9554L5.97816 11.6732C0.189984 11.4744 -2.24777 18.9031 2.55303 22.111L9.36493 26.6626L6.55598 34.3095C4.57633 39.6988 10.9584 44.29 15.5231 40.7604L22 35.7522L28.4769 40.7604C33.0416 44.29 39.4237 39.6988 37.444 34.3095L34.6351 26.6626L41.447 22.111C46.2477 18.9031 43.81 11.4744 38.0218 11.6732L29.8089 11.9554ZM23.8473 5.18401C23.3148 3.34662 20.6852 3.34661 20.1527 5.184L17.4717 14.4337C17.2284 15.2732 16.4393 15.8409 15.5578 15.8106L5.84487 15.4769C3.91548 15.4106 3.1029 17.8869 4.70316 18.9562L12.7592 24.3391C13.4903 24.8276 13.7917 25.7462 13.4902 26.567L10.1683 35.6104C9.50837 37.4069 11.6357 38.9373 13.1573 37.7607L20.8171 31.8379C21.5123 31.3003 22.4877 31.3003 23.1829 31.8379L30.8427 37.7607C32.3643 38.9373 34.4916 37.4069 33.8317 35.6104L30.5098 26.567C30.2083 25.7462 30.5097 24.8276 31.2408 24.3391L39.2968 18.9562C40.8971 17.8869 40.0845 15.4106 38.1551 15.4769L28.4422 15.8106C27.5607 15.8409 26.7716 15.2732 26.5283 14.4337L23.8473 5.18401Z" fill="#9A9A9A"/>
</svg>
