<svg width="46" height="38" viewBox="0 0 46 38" fill="none" xmlns="http://www.w3.org/2000/svg">
<path fill-rule="evenodd" clip-rule="evenodd" d="M46 12V32C46 35.3137 43.3137 38 40 38H6C2.68629 38 0 35.3137 0 32V6C0 2.68629 2.68629 0 6 0H14C17.3137 0 20 2.68629 20 6H40C43.3137 6 46 8.68629 46 12ZM6 3C4.34315 3 3 4.34315 3 6V32C3 33.6569 4.34315 35 6 35H40C41.6569 35 43 33.6569 43 32V12C43 10.3431 41.6569 9 40 9H20C18.3431 9 17 7.65685 17 6C17 4.34315 15.6569 3 14 3H6Z" fill="white"/>
<path fill-rule="evenodd" clip-rule="evenodd" d="M16.6984 13.249C17.0327 12.917 17.5747 12.917 17.909 13.249L23.3567 18.6583C23.691 18.9903 23.691 19.5285 23.3567 19.8604C23.0224 20.1924 22.4804 20.1924 22.1461 19.8604L18.1597 15.9021V28.3H31V30H16.4477V15.9021L12.4613 19.8604C12.127 20.1924 11.585 20.1924 11.2507 19.8604C10.9164 19.5285 10.9164 18.9903 11.2507 18.6583L16.6984 13.249Z" fill="#D9D9D9"/>
</svg>
