<svg width="167" height="37" viewBox="0 0 167 37" fill="none" xmlns="http://www.w3.org/2000/svg">
<path d="M61.9215 10.3945H59.1165L54.8685 16.0539L50.6202 10.3945H47.8179L53.389 18.05L47.2607 26.2269H50.4463L54.8674 20.1124L58.4153 24.9963C59.3014 26.2034 60.7969 26.6739 62.2348 26.0958L62.3356 26.0564L56.3734 18.0493L61.9215 10.3945H61.9215Z" fill="#0470C8"/>
<path d="M106.844 28.1704H122.602V25.4207H106.985V17.4032H120.08V14.6885H103.524V24.5896C103.524 26.7648 104.827 28.1705 106.844 28.1705V28.1704Z" fill="white"/>
<path d="M119.49 8.16457C121.113 8.16457 122.202 7.11172 122.344 5.44922H96.84L90.2714 24.6501L83.5526 5.44922H81.3575L74.6376 24.6501L68.0698 5.44922H64.5459L72.0735 26.3671C72.5443 27.6742 73.7306 28.5518 75.0266 28.5518H75.8539L82.4541 10.278L88.2427 26.2622C88.7167 27.6063 89.9507 28.5236 91.3158 28.5518H92.057L99.3879 8.16457H119.49Z" fill="white"/>
<path d="M130.06 28.1698H155.718C162.812 28.1698 166.639 22.3166 166.639 16.8094C166.639 11.3024 162.812 5.44922 155.718 5.44922H146.596C144.58 5.44922 143.277 6.8407 143.277 8.99451V18.6474C143.277 19.8456 144.25 21.2929 145.459 21.2929H146.738V8.19872H155.545C160.42 8.19872 162.971 12.5303 162.971 16.8094C162.971 21.1058 160.42 25.4548 155.545 25.4548H145.356L145.355 25.4202H130.201V5.44927H126.74V24.6244C126.74 26.7782 128.043 28.1699 130.06 28.1699V28.1698Z" fill="white"/>
<path fill-rule="evenodd" clip-rule="evenodd" d="M16.001 36.4254H26.412L21.2067 30.4307L16.001 36.4254Z" fill="url(#paint0_linear_269_5764)"/>
<path d="M21.9062 6.82638L30.9587 17.6724H42.4137L27.7475 0.0996094L21.9062 6.82638Z" fill="#0470C8"/>
<path d="M30.959 18.752L21.9531 29.5423L27.7944 36.269L42.4139 18.752H30.959Z" fill="#0470C8"/>
<path d="M14.6658 0.0996094L0 17.6724H11.4552L20.5071 6.82628L14.6658 0.0996094Z" fill="white"/>
<path d="M20.4604 29.5417L11.4552 18.752H0L14.6191 36.2691L20.4604 29.5417Z" fill="white"/>
<defs>
<linearGradient id="paint0_linear_269_5764" x1="16.0011" y1="33.4282" x2="26.412" y2="33.4282" gradientUnits="userSpaceOnUse">
<stop stop-color="white"/>
<stop offset="1" stop-color="#0470C8"/>
</linearGradient>
</defs>
</svg>
