<svg width="67" height="81" viewBox="0 0 67 81" fill="none" xmlns="http://www.w3.org/2000/svg">
<path d="M4.39453 12.0508H21.5625C24.9609 12.0508 27.4902 12.1973 29.1504 12.4902C30.8301 12.7637 32.3242 13.3496 33.6328 14.248C34.9609 15.1465 36.0645 16.3477 36.9434 17.8516C37.8223 19.3359 38.2617 21.0059 38.2617 22.8613C38.2617 24.873 37.7148 26.7188 36.6211 28.3984C35.5469 30.0781 34.082 31.3379 32.2266 32.1777C34.8438 32.9395 36.8555 34.2383 38.2617 36.0742C39.668 37.9102 40.3711 40.0684 40.3711 42.5488C40.3711 44.502 39.9121 46.4062 38.9941 48.2617C38.0957 50.0977 36.8555 51.5723 35.2734 52.6855C33.7109 53.7793 31.7773 54.4531 29.4727 54.707C28.0273 54.8633 24.541 54.9609 19.0137 55H4.39453V12.0508ZM13.0664 19.1992V29.1309H18.75C22.1289 29.1309 24.2285 29.082 25.0488 28.9844C26.5332 28.8086 27.6953 28.3008 28.5352 27.4609C29.3945 26.6016 29.8242 25.4785 29.8242 24.0918C29.8242 22.7637 29.4531 21.6895 28.7109 20.8691C27.9883 20.0293 26.9043 19.5215 25.459 19.3457C24.5996 19.248 22.1289 19.1992 18.0469 19.1992H13.0664ZM13.0664 36.2793V47.7637H21.0938C24.2188 47.7637 26.2012 47.6758 27.041 47.5C28.3301 47.2656 29.375 46.6992 30.1758 45.8008C30.9961 44.8828 31.4062 43.6621 31.4062 42.1387C31.4062 40.8496 31.0937 39.7559 30.4688 38.8574C29.8438 37.959 28.9355 37.3047 27.7441 36.8945C26.5723 36.4844 24.0137 36.2793 20.0684 36.2793H13.0664Z" fill="#9A9A9A"/>
<path d="M60.7744 73H55.9722V54.9019C54.2176 56.5425 52.1497 57.7559 49.7686 58.542V54.1841C51.0218 53.7739 52.3833 52.9992 53.853 51.8599C55.3228 50.7091 56.3311 49.3704 56.8779 47.8438H60.7744V73Z" fill="#9A9A9A"/>
</svg>
