<svg width="67" height="81" viewBox="0 0 67 81" fill="none" xmlns="http://www.w3.org/2000/svg">
<path d="M4.39453 12.0508H21.5625C24.9609 12.0508 27.4902 12.1973 29.1504 12.4902C30.8301 12.7637 32.3242 13.3496 33.6328 14.248C34.9609 15.1465 36.0645 16.3477 36.9434 17.8516C37.8223 19.3359 38.2617 21.0059 38.2617 22.8613C38.2617 24.873 37.7148 26.7188 36.6211 28.3984C35.5469 30.0781 34.082 31.3379 32.2266 32.1777C34.8438 32.9395 36.8555 34.2383 38.2617 36.0742C39.668 37.9102 40.3711 40.0684 40.3711 42.5488C40.3711 44.502 39.9121 46.4062 38.9941 48.2617C38.0957 50.0977 36.8555 51.5723 35.2734 52.6855C33.7109 53.7793 31.7773 54.4531 29.4727 54.707C28.0273 54.8633 24.541 54.9609 19.0137 55H4.39453V12.0508ZM13.0664 19.1992V29.1309H18.75C22.1289 29.1309 24.2285 29.082 25.0488 28.9844C26.5332 28.8086 27.6953 28.3008 28.5352 27.4609C29.3945 26.6016 29.8242 25.4785 29.8242 24.0918C29.8242 22.7637 29.4531 21.6895 28.7109 20.8691C27.9883 20.0293 26.9043 19.5215 25.459 19.3457C24.5996 19.248 22.1289 19.1992 18.0469 19.1992H13.0664ZM13.0664 36.2793V47.7637H21.0938C24.2188 47.7637 26.2012 47.6758 27.041 47.5C28.3301 47.2656 29.375 46.6992 30.1758 45.8008C30.9961 44.8828 31.4062 43.6621 31.4062 42.1387C31.4062 40.8496 31.0937 39.7559 30.4688 38.8574C29.8438 37.959 28.9355 37.3047 27.7441 36.8945C26.5723 36.4844 24.0137 36.2793 20.0684 36.2793H13.0664Z" fill="#9A9A9A"/>
<path d="M64.7051 68.5396V73H47.8716C48.0539 71.3138 48.6007 69.7188 49.5122 68.2148C50.4237 66.6995 52.2238 64.6943 54.9126 62.1992C57.0773 60.1826 58.4046 58.8154 58.8945 58.0977C59.5553 57.1064 59.8857 56.1266 59.8857 55.1582C59.8857 54.0872 59.5952 53.2669 59.0142 52.6973C58.4445 52.1162 57.6527 51.8257 56.6387 51.8257C55.6361 51.8257 54.8385 52.1276 54.2461 52.7314C53.6536 53.3353 53.3118 54.3379 53.2207 55.7393L48.4355 55.2607C48.7204 52.6175 49.6147 50.7205 51.1187 49.5698C52.6226 48.4191 54.5024 47.8438 56.7583 47.8438C59.2306 47.8438 61.1732 48.5103 62.5859 49.8433C63.9987 51.1763 64.7051 52.834 64.7051 54.8164C64.7051 55.9443 64.5 57.021 64.0898 58.0464C63.6911 59.0604 63.0531 60.1257 62.1758 61.2422C61.5947 61.9827 60.5465 63.048 59.0312 64.438C57.516 65.828 56.5532 66.7508 56.1431 67.2065C55.7443 67.6623 55.4196 68.1066 55.1689 68.5396H64.7051Z" fill="#9A9A9A"/>
</svg>
