<svg width="91" height="90" viewBox="0 0 91 90" fill="none" xmlns="http://www.w3.org/2000/svg">
<g filter="url(#filter0_d_273_8039)">
<path fill-rule="evenodd" clip-rule="evenodd" d="M74.7219 77.7307H16.2781C15.156 77.7307 14.1351 77.2743 13.3943 76.5391C12.6534 75.8039 12.1936 74.7906 12.1936 73.677V16.2308C12.1936 15.1172 12.6534 14.1039 13.3943 13.3687C14.1351 12.6335 15.156 12.1771 16.2781 12.1771H74.7219C75.844 12.1771 76.8649 12.6335 77.6058 13.3687C78.3466 14.1039 78.8064 15.1172 78.8064 16.2308V73.677C78.8064 74.7906 78.3466 75.8039 77.6058 76.5391C76.8649 77.2743 75.844 77.7307 74.7219 77.7307ZM16.2781 79.9077H74.7219C76.4496 79.9077 78.0193 79.2071 79.1567 78.0783C80.2941 76.9495 81 75.3915 81 73.677V16.2308C81 14.5161 80.2941 12.9583 79.1567 11.8294C78.0193 10.7006 76.4495 10 74.7219 10H16.2781C14.5505 10 12.9808 10.7006 11.8434 11.8294C10.706 12.9583 10 14.5162 10 16.2308V73.677C10 75.3916 10.706 76.9495 11.8434 78.0783C12.9808 79.2071 14.5505 79.9077 16.2781 79.9077ZM34.4522 17.7579C32.1454 16.6815 29.4271 18.4604 29.4271 20.9982C29.4271 20.9982 29.4271 20.9983 29.4272 20.9983C29.4272 20.9983 29.4273 20.9983 29.4273 20.9984C29.4273 21.1847 29.4851 21.6155 29.527 21.7903C30.3173 25.0764 34.7706 25.5867 36.2365 22.4553C37.0709 20.6728 36.2097 18.5781 34.4522 17.7579ZM29.4606 24.5317C28.3967 23.4681 28 22.3249 28 20.7754C28 20.7754 28 20.7753 28.0001 20.7753C28.0002 20.7753 28.0002 20.7753 28.0002 20.7752C28.0002 18.9242 29.2469 17.2791 30.8687 16.4646C32.1454 15.8236 33.8652 15.8623 35.1514 16.4794C35.7109 16.7479 36.1175 17.0526 36.5295 17.4646C38.014 18.9487 38.4345 21.2387 37.515 23.1539C36.0242 26.2587 31.9119 26.9825 29.4606 24.5317ZM17.4272 32.9983C17.4271 32.9983 17.4271 32.9982 17.4271 32.9982C17.4271 30.4604 20.1454 28.6815 22.4522 29.7579C24.2097 30.5781 25.0709 32.6728 24.2365 34.4553C22.7706 37.5867 18.3173 37.0764 17.527 33.7903C17.485 33.6155 17.4273 33.1847 17.4273 32.9984C17.4273 32.9983 17.4272 32.9983 17.4272 32.9983ZM16.0001 32.7753C16 32.7753 16 32.7754 16 32.7754C16 34.3249 16.3967 35.4681 17.4606 36.5317C18.9677 38.0385 21.1027 38.3453 22.8702 37.6365C22.9844 37.5907 23.1163 37.6218 23.1932 37.7179C23.2862 37.8342 23.4559 37.853 23.5722 37.76L24.7637 36.8068C24.8519 36.7362 24.8662 36.6076 24.7956 36.5194C24.7327 36.4407 24.7368 36.3281 24.8022 36.2515C25.0785 35.9278 25.3193 35.5614 25.515 35.1539C26.4345 33.2387 26.014 30.9487 24.5295 29.4646C24.1175 29.0526 23.7109 28.7479 23.1514 28.4794C21.8652 27.8623 20.1454 27.8236 18.8687 28.4646C17.2469 29.2791 16.0002 30.9242 16.0002 32.7752C16.0002 32.7753 16.0002 32.7753 16.0001 32.7753ZM40.2835 63.9972C40.2834 63.9972 40.2833 63.9972 40.2833 63.9971C40.2834 59.9366 44.6327 57.0904 48.3235 58.8126C51.1356 60.125 52.5135 63.4765 51.1785 66.3285C48.833 71.3387 41.7076 70.5222 40.4433 65.2644C40.3761 64.9847 40.2837 64.2955 40.2836 63.9974C40.2836 63.9973 40.2836 63.9972 40.2835 63.9972ZM38.0002 63.6405C38.0001 63.6405 38 63.6406 38 63.6407C38 66.1198 38.6347 67.949 40.337 69.6508C44.2591 73.5719 50.8387 72.4138 53.2239 67.4463C54.6953 64.382 54.0224 60.7179 51.6473 58.3434C50.9879 57.6842 50.3374 57.1966 49.4422 56.7671C47.3844 55.7796 44.6326 55.7178 42.59 56.7434C39.995 58.0466 38.0004 60.6787 38.0003 63.6404C38.0003 63.6405 38.0002 63.6405 38.0002 63.6405ZM60.2835 43.9972C60.2834 43.9972 60.2833 43.9972 60.2833 43.9971C60.2834 39.9366 64.6327 37.0904 68.3235 38.8126C71.1356 40.125 72.5135 43.4765 71.1785 46.3285C68.833 51.3387 61.7076 50.5222 60.4433 45.2644C60.3761 44.9847 60.2837 44.2955 60.2836 43.9974C60.2836 43.9973 60.2836 43.9972 60.2835 43.9972ZM58.0002 43.6405C58.0001 43.6405 58 43.6406 58 43.6407C58 46.1198 58.6348 47.949 60.3369 49.6508C64.2591 53.5719 70.8387 52.4138 73.2239 47.4463C74.6953 44.382 74.0224 40.7179 71.6473 38.3434C70.9879 37.6842 70.3374 37.1966 69.4422 36.7671C67.3844 35.7796 64.6326 35.7178 62.59 36.7434C62.0634 37.0079 61.5615 37.3271 61.0959 37.6926C61.0202 37.7521 60.9151 37.7584 60.834 37.7065C60.7303 37.6401 60.5924 37.6704 60.526 37.7741L59.6982 39.0675C58.6534 40.3591 58.0004 41.9458 58.0003 43.6404C58.0003 43.6405 58.0002 43.6405 58.0002 43.6405ZM26.7139 40.518C26.2826 40.863 25.6534 40.7931 25.3083 40.3619L25.272 40.3165C24.927 39.8852 24.9969 39.2559 25.4282 38.9109C25.8595 38.5659 26.4887 38.6358 26.8338 39.0671L26.8701 39.1125C27.2151 39.5437 27.1452 40.173 26.7139 40.518ZM29.2853 43.7323C28.8541 44.0773 28.2248 44.0074 27.8798 43.5762L27.8434 43.5307C27.4984 43.0995 27.5684 42.4702 27.9996 42.1252C28.4309 41.7802 29.0602 41.8501 29.4052 42.2814L29.4415 42.3268C29.7865 42.758 29.7166 43.3873 29.2853 43.7323ZM31.8568 46.9466C31.4255 47.2916 30.7962 47.2217 30.4512 46.7904L30.4149 46.745C30.0699 46.3138 30.1398 45.6845 30.571 45.3395C31.0023 44.9945 31.6316 45.0644 31.9766 45.4956L32.0129 45.541C32.3579 45.9723 32.288 46.6016 31.8568 46.9466ZM34.4282 50.1609C33.9969 50.5059 33.3676 50.436 33.0226 50.0047L32.9863 49.9593C32.6413 49.5281 32.7112 48.8988 33.1425 48.5538C33.5737 48.2087 34.203 48.2787 34.548 48.7099L34.5844 48.7553C34.9294 49.1866 34.8595 49.8159 34.4282 50.1609ZM36.9996 53.3752C36.5684 53.7202 35.9391 53.6503 35.5941 53.219L35.5577 53.1736C35.2127 52.7423 35.2826 52.1131 35.7139 51.768C36.1452 51.423 36.7745 51.493 37.1195 51.9242L37.1558 51.9696C37.5008 52.4009 37.4309 53.0302 36.9996 53.3752ZM39.571 56.5895C39.1398 56.9345 38.5105 56.8646 38.1655 56.4333L38.1292 56.3879C37.7842 55.9566 37.8541 55.3273 38.2853 54.9823C38.7166 54.6373 39.3459 54.7072 39.6909 55.1385L39.7272 55.1839C40.0722 55.6152 40.0023 56.2445 39.571 56.5895ZM38.6786 24.7143C38.3809 25.1794 38.5166 25.7979 38.9818 26.0956L39.083 26.1603C39.5481 26.4581 40.1666 26.3223 40.4643 25.8571C40.762 25.392 40.6262 24.7735 40.1611 24.4758L40.0599 24.4111C39.5947 24.1133 38.9763 24.2491 38.6786 24.7143ZM42.25 27C41.9523 27.4652 42.088 28.0836 42.5532 28.3813L42.6544 28.4461C43.1196 28.7438 43.738 28.608 44.0357 28.1428C44.3334 27.6777 44.1977 27.0592 43.7325 26.7615L43.6313 26.6968C43.1661 26.3991 42.5477 26.5348 42.25 27ZM45.8214 29.2857C45.5237 29.7509 45.6595 30.3693 46.1246 30.667L46.2258 30.7318C46.691 31.0295 47.3094 30.8937 47.6071 30.4286C47.9048 29.9634 47.7691 29.3449 47.3039 29.0472L47.2027 28.9825C46.7376 28.6848 46.1191 28.8205 45.8214 29.2857ZM49.3928 31.5714C49.0951 32.0366 49.2309 32.655 49.6961 32.9527L49.7972 33.0175C50.2624 33.3152 50.8809 33.1794 51.1786 32.7143C51.4763 32.2491 51.3405 31.6307 50.8753 31.3329L50.7742 31.2682C50.309 30.9705 49.6906 31.1062 49.3928 31.5714ZM52.9643 33.8571C52.6666 34.3223 52.8023 34.9407 53.2675 35.2385L53.3687 35.3032C53.8338 35.6009 54.4523 35.4652 54.75 35C55.0477 34.5348 54.9119 33.9164 54.4468 33.6187L54.3456 33.5539C53.8804 33.2562 53.262 33.392 52.9643 33.8571ZM56.5357 36.1428C56.238 36.608 56.3737 37.2265 56.8389 37.5242L56.9401 37.5889C57.4053 37.8866 58.0237 37.7509 58.3214 37.2857C58.6191 36.8205 58.4834 36.2021 58.0182 35.9044L57.917 35.8396C57.4519 35.5419 56.8334 35.6777 56.5357 36.1428Z" fill="#D9D9D9"/>
</g>
<defs>
<filter id="filter0_d_273_8039" x="0" y="0" width="91" height="89.9077" filterUnits="userSpaceOnUse" color-interpolation-filters="sRGB">
<feFlood flood-opacity="0" result="BackgroundImageFix"/>
<feColorMatrix in="SourceAlpha" type="matrix" values="0 0 0 0 0 0 0 0 0 0 0 0 0 0 0 0 0 0 127 0" result="hardAlpha"/>
<feOffset/>
<feGaussianBlur stdDeviation="5"/>
<feComposite in2="hardAlpha" operator="out"/>
<feColorMatrix type="matrix" values="0 0 0 0 1 0 0 0 0 1 0 0 0 0 1 0 0 0 1 0"/>
<feBlend mode="normal" in2="BackgroundImageFix" result="effect1_dropShadow_273_8039"/>
<feBlend mode="normal" in="SourceGraphic" in2="effect1_dropShadow_273_8039" result="shape"/>
</filter>
</defs>
</svg>
