<svg width="40" height="33" viewBox="0 0 40 33" fill="none" xmlns="http://www.w3.org/2000/svg">
<path fill-rule="evenodd" clip-rule="evenodd" d="M25.9719 2.44482C23.435 2.34439 20.6581 2.39631 18.134 2.56441C17.9064 2.57948 17.6677 2.59535 17.4422 2.63176C14.4023 3.12113 13.349 5.1824 12.0005 7.69632C11.5994 8.44383 11.2286 9.20675 10.8387 9.95995C10.4916 10.63 10.0733 11.2677 9.79385 11.9714C7.84404 11.9293 7.40473 12.9773 6.5627 14.6963C6.22359 15.3884 1.35172 24.9263 0.998391 25.6127C0.786998 26.0233 0.576042 26.4352 0.37396 26.8505C0.27985 27.0442 0.0616899 27.4632 0.0448752 27.6732C-0.0194881 28.477 0.490094 29.0779 1.2703 29.1404C1.71582 29.1761 2.17564 29.0123 2.38817 28.5945L8.87571 15.9439C9.09392 15.5381 9.33083 15.1338 9.51062 14.7066C10.4422 14.9011 12.6545 15.5326 13.5175 15.8951C13.4114 16.1183 13.3025 16.3404 13.1934 16.5622C12.8139 17.3337 12.4277 18.1025 12.0413 18.8703C11.3316 20.2845 10.3174 22.1735 8.00744 26.6666C7.47833 27.6956 6.95435 28.7366 6.41419 29.7619C5.17073 32.1217 7.93338 32.7625 8.68195 31.1046L10.869 26.8054C11.899 24.7815 15.1636 18.497 15.4057 18.0728C15.8023 17.3775 16.1538 16.666 16.219 15.8524C16.2578 15.3676 16.1942 14.9418 15.9263 14.5335C15.8081 14.3534 15.6581 14.1952 15.5331 14.0207C15.7016 13.5782 15.9459 13.1725 16.1636 12.7526L17.7175 9.7537C17.8632 9.47276 18.0699 9.04067 18.2776 8.80503C18.3926 8.67457 18.4909 8.63927 18.6612 8.61764C20.4628 8.38943 24.0869 8.51003 25.9926 8.53537C26.1018 9.38385 26.6202 10.3559 27.4581 10.423L27.5062 10.4269L38.5465 8.97258L38.5691 8.96706C39.0665 8.84915 39.3024 8.68604 39.6214 8.30046L39.728 8.17131L39.8266 2.92693L39.7945 2.84084C39.6707 2.51038 39.5607 2.27951 39.2504 2.07689C38.8248 1.79902 38.1656 1.72959 37.6725 1.69632C37.1511 1.66106 36.6978 1.53588 36.1894 1.46695C35.6035 1.3873 35.0096 1.377 34.4208 1.32901C34.1802 1.30946 33.965 1.27078 33.73 1.21839C33.4543 1.15709 33.1977 1.11228 32.9197 1.08946L27.8087 0.572422C27.2304 0.526112 26.6266 0.828502 26.3077 1.32357C26.0394 1.73972 25.9917 2.0556 25.9714 2.44421L25.9719 2.44482ZM13.092 12.9615C12.952 12.9201 12.8137 12.8701 12.6786 12.8226C12.5833 12.789 12.4883 12.7557 12.3931 12.7247L13.1256 11.2912L13.1279 11.2863C13.4577 10.6034 13.8126 9.93539 14.1612 9.26268C14.6923 8.23692 15.4472 6.42433 16.4424 5.84065C17.3863 5.28699 18.5482 5.18985 19.6136 5.17104C21.6733 5.13449 23.8846 5.24976 25.932 5.14084C25.9374 5.34387 25.9452 5.54681 25.9552 5.7502C25.9571 5.78901 25.9609 5.84124 25.9645 5.89739C25.8895 5.88998 25.8144 5.88396 25.7386 5.87959C23.3912 5.74947 20.7237 5.83188 18.3606 5.99142C18.1931 6.00283 17.9722 6.01364 17.8106 6.05798C16.0566 6.53916 15.7047 7.93649 14.9294 9.38175C14.5742 10.0441 14.2461 10.7266 13.9094 11.3991C13.6517 11.9138 13.3851 12.4576 13.0917 12.962L13.092 12.9615ZM28.5954 3.26747C29.7935 3.38231 30.9943 3.55352 32.1846 3.71372C33.6884 3.91597 35.1986 4.12069 36.711 4.24377C36.9692 4.26473 37.2044 4.32475 37.4432 4.37717C37.4289 4.76316 37.4341 5.14705 37.4459 5.53569C37.4548 5.83212 37.4672 6.13023 37.4664 6.42785C37.4544 6.42886 37.4424 6.43016 37.4304 6.43117C37.1504 6.45757 36.8704 6.49074 36.5911 6.52537C35.8244 6.62002 35.0583 6.72685 34.2932 6.83545C33.0765 7.00806 31.8594 7.20152 30.6425 7.3665C30.0946 7.44085 29.5462 7.52533 28.998 7.59317C28.9186 7.6029 28.7306 7.6282 28.5811 7.63597C28.5852 7.58833 28.5902 7.54303 28.5925 7.51104C28.6106 7.26729 28.6175 7.02913 28.6036 6.78478C28.587 6.49678 28.5926 6.19586 28.5944 5.90707C28.5968 5.48344 28.6025 5.0598 28.6054 4.63622C28.6082 4.23153 28.6102 3.82566 28.5994 3.42129C28.5981 3.3752 28.5971 3.32319 28.5954 3.26804L28.5954 3.26747Z" fill="white"/>
</svg>
