<svg width="46" height="46" viewBox="0 0 46 46" fill="none" xmlns="http://www.w3.org/2000/svg">
<path fill-rule="evenodd" clip-rule="evenodd" d="M41.4579 44.4951H4.02149C3.30273 44.4951 2.64875 44.1953 2.17421 43.7123C1.69967 43.2293 1.4051 42.5637 1.4051 41.8321V4.09328C1.4051 3.36169 1.69967 2.69604 2.17421 2.21304C2.64875 1.73003 3.30273 1.43021 4.02149 1.43021H41.4579C42.1767 1.43021 42.8307 1.73003 43.3052 2.21304C43.7798 2.69604 44.0743 3.36169 44.0743 4.09328V41.8321C44.0743 42.5637 43.7798 43.2293 43.3052 43.7123C42.8307 44.1953 42.1767 44.4951 41.4579 44.4951ZM4.02149 45.9253H41.4579C42.5646 45.9253 43.5701 45.465 44.2987 44.7235C45.0272 43.9819 45.4794 42.9584 45.4794 41.832V4.09325C45.4794 2.96683 45.0272 1.9434 44.2987 1.20183C43.5701 0.460267 42.5646 0 41.4579 0H4.02149C2.91482 0 1.90934 0.460267 1.18077 1.20183C0.452204 1.9434 0 2.96686 0 4.09325V41.832C0 42.9585 0.452204 43.9819 1.18077 44.7235C1.90934 45.465 2.91485 45.9253 4.02149 45.9253ZM11.4831 5.73999C9.28121 4.6703 6.6866 6.4381 6.6866 8.96002H6.68678C6.68678 9.14513 6.74192 9.57332 6.78201 9.74706C7.53629 13.0125 11.787 13.5197 13.1862 10.408C13.9826 8.63663 13.1606 6.55503 11.4831 5.73999ZM6.71859 12.4713C5.7031 11.4144 5.32446 10.2783 5.32446 8.73849H5.32465C5.32465 6.899 6.51459 5.2642 8.06266 4.45483C9.28121 3.81784 10.9228 3.85623 12.1504 4.46952C12.6845 4.73631 13.0725 5.03914 13.4659 5.44852C14.8828 6.92329 15.2842 9.19899 14.4064 11.1021C12.9835 14.1874 9.05839 14.9067 6.71859 12.4713ZM24.1296 5.79859C21.9277 4.7289 19.3331 6.4967 19.3331 9.01862H19.3333C19.3333 9.20373 19.3885 9.63192 19.4285 9.80566C20.1828 13.0711 24.4335 13.5783 25.8327 10.4666C26.6292 8.69523 25.8071 6.61364 24.1296 5.79859ZM19.3651 12.5299C18.3496 11.473 17.971 10.3369 17.971 8.79709H17.9712C17.9712 6.9576 19.1611 5.3228 20.7092 4.51343C21.9277 3.87644 23.5693 3.91483 24.7969 4.52812C25.331 4.79491 25.7191 5.09774 26.1124 5.50712C27.5293 6.98189 27.9307 9.25759 27.053 11.1607C25.6301 14.246 21.7049 14.9653 19.3651 12.5299ZM31.9791 9.07768C31.9791 6.55575 34.5737 4.78796 36.7756 5.85765C38.4531 6.67269 39.2752 8.75429 38.4787 10.5256C37.0795 13.6373 32.8288 13.1302 32.0745 9.86472C32.0345 9.69097 31.9793 9.26279 31.9793 9.07768H31.9791ZM30.617 8.85614C30.617 10.3959 30.9956 11.532 32.0111 12.589C34.3509 15.0243 38.2761 14.3051 39.699 11.2198C40.5767 9.31665 40.1753 7.04094 38.7584 5.56618C38.3651 5.15679 37.977 4.85397 37.4429 4.58718C36.2154 3.97389 34.5737 3.93549 33.3552 4.57249C31.8071 5.38186 30.6172 7.01665 30.6172 8.85614H30.617ZM11.4831 19.6591C9.28121 18.5894 6.6866 20.3572 6.6866 22.8791H6.68678C6.68678 23.0642 6.74192 23.4924 6.78201 23.6662C7.53629 26.9316 11.787 27.4388 13.1862 24.327C13.9826 22.5557 13.1606 20.4741 11.4831 19.6591ZM6.71859 26.3904C5.7031 25.3335 5.32446 24.1974 5.32446 22.6576H5.32465C5.32465 20.8181 6.51459 19.1833 8.06266 18.3739C9.28121 17.7369 10.9228 17.7753 12.1504 18.3886C12.6845 18.6554 13.0725 18.9582 13.4659 19.3676C14.8828 20.8424 15.2842 23.1181 14.4064 25.0212C12.9835 28.1065 9.05839 28.8258 6.71859 26.3904ZM24.1296 19.7176C21.9277 18.6479 19.3331 20.4157 19.3331 22.9376H19.3333C19.3333 23.1228 19.3885 23.5509 19.4285 23.7247C20.1828 26.9902 24.4335 27.4973 25.8327 24.3856C26.6292 22.6143 25.8071 20.5327 24.1296 19.7176ZM19.3651 26.449C18.3496 25.392 17.971 24.2559 17.971 22.7161H17.9712C17.9712 20.8766 19.1611 19.2418 20.7092 18.4325C21.9277 17.7955 23.5693 17.8339 24.7969 18.4471C25.331 18.7139 25.7191 19.0168 26.1124 19.4261C27.5293 20.9009 27.9307 23.1766 27.053 25.0798C25.6301 28.165 21.7049 28.8843 19.3651 26.449ZM31.9791 22.9962C31.9791 20.4743 34.5737 18.7065 36.7756 19.7762C38.4531 20.5912 39.2752 22.6728 38.4787 24.4441C37.0795 27.5558 32.8288 27.0487 32.0745 23.7832C32.0345 23.6095 31.9793 23.1813 31.9793 22.9962H31.9791ZM30.617 22.7747C30.617 24.3145 30.9956 25.4506 32.0111 26.5075C34.3509 28.9429 38.2761 28.2236 39.699 25.1383C40.5767 23.2352 40.1753 20.9595 38.7584 19.4847C38.3651 19.0753 37.977 18.7725 37.4429 18.5057C36.2154 17.8924 34.5737 17.854 33.3552 18.491C31.8071 19.3004 30.6172 20.9352 30.6172 22.7747H30.617ZM6.6866 35.5834C6.6866 33.0615 9.28121 31.2937 11.4831 32.3634C13.1606 33.1784 13.9826 35.26 13.1862 37.0313C11.787 40.143 7.53629 39.6359 6.78201 36.3704C6.74192 36.1967 6.68678 35.7685 6.68678 35.5834H6.6866ZM5.32446 35.3619C5.32446 36.9017 5.7031 38.0378 6.71859 39.0947C9.05839 41.5301 12.9835 40.8108 14.4064 37.7255C15.2842 35.8224 14.8828 33.5467 13.4659 32.0719C13.0725 31.6625 12.6845 31.3597 12.1504 31.0929C10.9228 30.4796 9.28121 30.4412 8.06266 31.0782C6.51459 31.8876 5.32465 33.5224 5.32465 35.3619H5.32446ZM19.3331 35.642C19.3331 33.12 21.9277 31.3522 24.1296 32.4219C25.8071 33.237 26.6292 35.3186 25.8327 37.0899C24.4335 40.2016 20.1828 39.6945 19.4285 36.429C19.3885 36.2553 19.3333 35.8271 19.3333 35.642H19.3331ZM17.971 35.4204C17.971 36.9602 18.3496 38.0963 19.3651 39.1533C21.7049 41.5886 25.6301 40.8694 27.053 37.7841C27.9307 35.8809 27.5293 33.6052 26.1124 32.1305C25.7191 31.7211 25.331 31.4183 24.7969 31.1515C23.5693 30.5382 21.9277 30.4998 20.7092 31.1368C19.1611 31.9461 17.9712 33.5809 17.9712 35.4204H17.971ZM36.7756 32.4801C34.5737 31.4105 31.9791 33.1783 31.9791 35.7002H31.9793C31.9793 35.8853 32.0345 36.3135 32.0745 36.4872C32.8288 39.7527 37.0795 40.2598 38.4787 37.1481C39.2752 35.3768 38.4531 33.2952 36.7756 32.4801ZM32.0111 39.2115C30.9956 38.1545 30.617 37.0184 30.617 35.4786H30.6172C30.6172 33.6392 31.8071 32.0044 33.3552 31.195C34.5737 30.558 36.2154 30.5964 37.4429 31.2097C37.977 31.4765 38.3651 31.7793 38.7584 32.1887C40.1753 33.6634 40.5767 35.9392 39.699 37.8423C38.2761 40.9276 34.3509 41.6468 32.0111 39.2115Z" fill="#9A9A9A"/>
</svg>
