<svg width="99" height="99" viewBox="0 0 99 99" fill="none" xmlns="http://www.w3.org/2000/svg">
<g filter="url(#filter0_d_97_202)">
<path fill-rule="evenodd" clip-rule="evenodd" d="M81.2479 86.4675H16.9112C15.6759 86.4675 14.552 85.9522 13.7365 85.1222C12.921 84.2921 12.4147 83.1481 12.4147 81.8909V17.0345C12.4147 15.7773 12.921 14.6333 13.7365 13.8032C14.552 12.9732 15.6759 12.4579 16.9112 12.4579H81.2479C82.4831 12.4579 83.607 12.9732 84.4225 13.8032C85.2381 14.6333 85.7443 15.7773 85.7443 17.0345V81.8909C85.7443 83.1481 85.2381 84.2921 84.4225 85.1222C83.607 85.9522 82.4831 86.4675 81.2479 86.4675ZM16.9112 88.9253H81.2479C83.1498 88.9253 84.8777 88.1343 86.1298 86.8599C87.3819 85.5854 88.159 83.8266 88.159 81.8908V17.0345C88.159 15.0987 87.3819 13.3398 86.1298 12.0654C84.8777 10.791 83.1497 10 81.2479 10H16.9112C15.0093 10 13.2813 10.791 12.0292 12.0654C10.7771 13.3398 10 15.0987 10 17.0345V81.8908C10 83.8266 10.7771 85.5854 12.0292 86.8599C13.2813 88.1343 15.0093 88.9253 16.9112 88.9253ZM29.7346 19.8645C25.9506 18.0262 21.4916 21.0642 21.4916 25.3983H21.492C21.492 25.7164 21.5867 26.4523 21.6556 26.7509C22.9519 32.3628 30.257 33.2343 32.6616 27.8867C34.0303 24.8426 32.6176 21.2652 29.7346 19.8645ZM21.5466 31.4327C19.8014 29.6163 19.1507 27.6638 19.1507 25.0176H19.151C19.151 21.8563 21.196 19.0468 23.8565 17.6559C25.9506 16.5612 28.7718 16.6272 30.8815 17.6811C31.7994 18.1396 32.4662 18.6601 33.1422 19.3636C35.5772 21.8981 36.2671 25.809 34.7586 29.0797C32.3133 34.3819 25.5677 35.618 21.5466 31.4327ZM51.4677 19.9652C47.6837 18.1269 43.2247 21.165 43.2247 25.499H43.225C43.225 25.8171 43.3198 26.553 43.3887 26.8516C44.6849 32.4635 51.99 33.3351 54.3947 27.9874C55.7634 24.9433 54.3507 21.3659 51.4677 19.9652ZM43.2797 31.5334C41.5345 29.717 40.8838 27.7645 40.8838 25.1183H40.8841C40.8841 21.957 42.9291 19.1475 45.5895 17.7566C47.6837 16.6619 50.5049 16.7279 52.6145 17.7818C53.5324 18.2403 54.1993 18.7608 54.8753 19.4643C57.3103 21.9988 58.0001 25.9097 56.4917 29.1804C54.0463 34.4826 47.3008 35.7187 43.2797 31.5334ZM64.9578 25.6005C64.9578 21.2664 69.4168 18.2284 73.2008 20.0667C76.0837 21.4674 77.4964 25.0448 76.1277 28.0889C73.7231 33.4365 66.418 32.565 65.1217 26.9531C65.0529 26.6545 64.9581 25.9186 64.9581 25.6005H64.9578ZM62.6169 25.2198C62.6169 27.866 63.2676 29.8185 65.0127 31.6349C69.0338 35.8202 75.7794 34.5841 78.2248 29.2819C79.7332 26.0112 79.0434 22.1003 76.6083 19.5658C75.9324 18.8623 75.2655 18.3418 74.3476 17.8833C72.2379 16.8294 69.4168 16.7634 67.3226 17.8581C64.6622 19.249 62.6172 22.0585 62.6172 25.2198H62.6169ZM29.7346 43.7853C25.9506 41.947 21.4916 44.985 21.4916 49.3191H21.492C21.492 49.6372 21.5867 50.3731 21.6556 50.6717C22.9519 56.2836 30.257 57.1551 32.6616 51.8074C34.0303 48.7633 32.6176 45.186 29.7346 43.7853ZM21.5466 55.3535C19.8014 53.537 19.1507 51.5846 19.1507 48.9384H19.151C19.151 45.7771 21.196 42.9676 23.8565 41.5767C25.9506 40.482 28.7718 40.5479 30.8815 41.6019C31.7994 42.0604 32.4662 42.5808 33.1422 43.2844C35.5772 45.8188 36.2671 49.7298 34.7586 53.0005C32.3133 58.3027 25.5677 59.5388 21.5466 55.3535ZM51.4677 43.8859C47.6837 42.0475 43.2247 45.0856 43.2247 49.4197H43.225C43.225 49.7378 43.3198 50.4737 43.3887 50.7723C44.6849 56.3842 51.99 57.2557 54.3947 51.908C55.7634 48.8639 54.3507 45.2866 51.4677 43.8859ZM43.2797 55.4541C41.5345 53.6376 40.8838 51.6852 40.8838 49.039H40.8841C40.8841 45.8777 42.9291 43.0682 45.5895 41.6773C47.6837 40.5825 50.5049 40.6485 52.6145 41.7025C53.5324 42.161 54.1993 42.6814 54.8753 43.385C57.3103 45.9194 58.0001 49.8304 56.4917 53.101C54.0463 58.4033 47.3008 59.6394 43.2797 55.4541ZM64.9578 49.5203C64.9578 45.1862 69.4168 42.1482 73.2008 43.9865C76.0837 45.3872 77.4964 48.9645 76.1277 52.0087C73.7231 57.3563 66.418 56.4848 65.1217 50.8729C65.0529 50.5743 64.9581 49.8384 64.9581 49.5203H64.9578ZM62.6169 49.1396C62.6169 51.7858 63.2676 53.7383 65.0127 55.5547C69.0338 59.74 75.7794 58.5039 78.2248 53.2017C79.7332 49.931 79.0434 46.0201 76.6083 43.4856C75.9324 42.782 75.2655 42.2616 74.3476 41.8031C72.2379 40.7491 69.4168 40.6832 67.3226 41.7779C64.6622 43.1688 62.6172 45.9783 62.6172 49.1396H62.6169ZM21.4916 71.1521C21.4916 66.8181 25.9506 63.78 29.7346 65.6183C32.6176 67.019 34.0303 70.5964 32.6616 73.6405C30.2569 78.9882 22.9519 78.1166 21.6556 72.5047C21.5867 72.2061 21.4919 71.4703 21.4919 71.1521H21.4916ZM19.1507 70.7714C19.1507 73.4176 19.8014 75.3701 21.5466 77.1865C25.5677 81.3718 32.3132 80.1357 34.7586 74.8335C36.2671 71.5628 35.5772 67.6519 33.1422 65.1174C32.4662 64.4139 31.7993 63.8934 30.8815 63.435C28.7718 62.381 25.9506 62.315 23.8565 63.4097C21.196 64.8007 19.151 67.6101 19.151 70.7714H19.1507ZM43.2248 71.2528C43.2248 66.9187 47.6838 63.8807 51.4678 65.719C54.3508 67.1197 55.7635 70.697 54.3948 73.7412C51.9902 79.0888 44.6851 78.2173 43.3888 72.6054C43.3199 72.3068 43.2252 71.5709 43.2252 71.2528H43.2248ZM40.8839 70.8721C40.8839 73.5183 41.5346 75.4707 43.2798 77.2872C47.3009 81.4725 54.0465 80.2364 56.4919 74.9342C58.0003 71.6635 57.3104 67.7526 54.8754 65.2181C54.1995 64.5145 53.5326 63.9941 52.6147 63.5356C50.505 62.4816 47.6838 62.4157 45.5897 63.5104C42.9292 64.9013 40.8843 67.7108 40.8843 70.8721H40.8839ZM73.2008 65.819C69.4168 63.9807 64.9578 67.0188 64.9578 71.3529H64.9581C64.9581 71.671 65.0528 72.4068 65.1217 72.7054C66.418 78.3173 73.7231 79.1889 76.1277 73.8412C77.4964 70.7971 76.0837 67.2197 73.2008 65.819ZM65.0127 77.3872C63.2676 75.5708 62.6169 73.6184 62.6169 70.9721H62.6172C62.6172 67.8109 64.6622 65.0014 67.3226 63.6104C69.4168 62.5157 72.2379 62.5817 74.3476 63.6357C75.2655 64.0942 75.9324 64.6146 76.6083 65.3181C79.0434 67.8526 79.7332 71.7635 78.2248 75.0342C75.7794 80.3364 69.0338 81.5725 65.0127 77.3872Z" fill="#D9D9D9"/>
</g>
<defs>
<filter id="filter0_d_97_202" x="0" y="0" width="98.1592" height="98.9253" filterUnits="userSpaceOnUse" color-interpolation-filters="sRGB">
<feFlood flood-opacity="0" result="BackgroundImageFix"/>
<feColorMatrix in="SourceAlpha" type="matrix" values="0 0 0 0 0 0 0 0 0 0 0 0 0 0 0 0 0 0 127 0" result="hardAlpha"/>
<feOffset/>
<feGaussianBlur stdDeviation="5"/>
<feComposite in2="hardAlpha" operator="out"/>
<feColorMatrix type="matrix" values="0 0 0 0 1 0 0 0 0 1 0 0 0 0 1 0 0 0 1 0"/>
<feBlend mode="normal" in2="BackgroundImageFix" result="effect1_dropShadow_97_202"/>
<feBlend mode="normal" in="SourceGraphic" in2="effect1_dropShadow_97_202" result="shape"/>
</filter>
</defs>
</svg>
