<svg width="21" height="21" viewBox="0 0 21 21" fill="none" xmlns="http://www.w3.org/2000/svg">
<path fill-rule="evenodd" clip-rule="evenodd" d="M1.64055 6.6689C1.64055 6.18053 1.9313 5.83463 2.29783 5.6167L3.93721 4.73052C4.9287 4.22525 6.22211 3.44953 7.23123 2.93098C8.56635 2.24521 9.06562 1.73692 10.6633 1.73692C11.9749 1.73692 13.1538 2.64243 14.2722 3.21229C14.4636 3.31008 14.6305 3.39943 14.8073 3.50507C15.4869 3.91073 16.8848 4.58443 17.5709 5.00639C18.2446 5.42111 19.3583 5.67103 19.3583 6.66829C19.3583 7.64986 18.2446 7.91849 17.6026 8.32054C17.0916 8.64048 15.9544 9.18861 15.3876 9.54297C15.0363 9.7627 14.6493 9.92147 14.2898 10.143C13.9227 10.3688 13.5679 10.5282 13.1931 10.7443C12.1676 11.3341 11.6871 11.6431 10.3349 11.6431C9.33523 11.6431 8.46943 11.1409 7.83153 10.76L6.17571 9.84842C5.44501 9.39869 4.12399 8.76967 3.42149 8.33744C2.70488 7.89676 1.64055 7.63839 1.64055 6.6689ZM10.6639 19.2723C9.327 19.2723 8.7778 18.9379 7.72404 18.3312C7.34166 18.1108 6.97337 17.946 6.5904 17.7257L2.03703 15.2392C1.76625 15.1015 1.13012 14.6772 0.820569 14.6772C0.337743 14.6772 0.0370049 15.0671 0 15.4752V15.643C0.021733 15.8797 0.136272 16.1048 0.360064 16.2461L2.92574 17.6557C3.16656 17.7788 3.33984 17.8905 3.56833 18.007C3.798 18.1241 3.97597 18.2394 4.21093 18.3583C4.45528 18.4827 4.61387 18.5871 4.85352 18.7097L7.11023 19.9315C8.22273 20.5116 8.98632 21 10.5 21C11.0615 21 11.7682 20.8805 12.2075 20.732C12.7461 20.5497 13.1209 20.3589 13.5767 20.1156C13.6983 20.0504 13.7547 20.0021 13.8898 19.9315L17.7318 17.8102C17.854 17.7426 17.9362 17.7076 18.0608 17.6424L18.701 17.2886C19.1122 17.0429 19.5639 16.822 19.9762 16.5757C20.6 16.2032 21 16.1785 21 15.436C21 15.0001 20.5929 14.6349 20.1794 14.6349C19.77 14.6349 16.2604 16.7146 15.5444 17.0792C15.3471 17.1794 15.1985 17.2784 14.9835 17.3882C14.8666 17.448 14.8149 17.486 14.7227 17.5416C14.624 17.6001 14.5365 17.6382 14.4231 17.6973C14.3003 17.7613 14.2751 17.7873 14.1635 17.8519L12.1112 18.9463C11.6912 19.1184 11.2307 19.2711 10.6639 19.2711V19.2723ZM10.6639 15.4788C9.62891 15.4788 9.16489 15.3322 8.3126 14.8607C8.09586 14.7406 7.93491 14.6597 7.72404 14.5383C7.34166 14.3186 6.97337 14.1532 6.5904 13.9328L4.88113 12.9917C4.78832 12.9446 4.70961 12.9084 4.60741 12.8517L2.03703 11.4463C1.76625 11.3087 1.13012 10.8843 0.820569 10.8843C0.337743 10.8843 0.0370049 11.2743 0 11.6824V11.8502C0.021733 12.0868 0.136272 12.312 0.360064 12.4533L4.85352 14.9168C5.09434 15.0394 5.27526 15.1559 5.49611 15.2682C5.72578 15.3853 5.90375 15.5 6.13871 15.6195L6.78071 15.9708C6.907 16.0354 6.98395 16.0729 7.11023 16.1381C8.22273 16.7182 8.98632 17.2065 10.5 17.2065C11.0615 17.2065 11.7682 17.087 12.2075 16.9385C12.7461 16.7562 13.1209 16.5654 13.5767 16.3222L17.4182 14.2003C17.555 14.1302 17.6044 14.0874 17.7318 14.0168L18.701 13.4952C19.1122 13.2495 19.5639 13.0285 19.9762 12.7823C20.6 12.4098 21 12.385 21 11.6425C21 11.2067 20.5929 10.8415 20.1794 10.8415C19.8481 10.8415 18.8426 11.4886 18.4296 11.6987C18.2082 11.811 18.0537 11.9142 17.8417 12.0216C17.6449 12.1212 17.4957 12.2208 17.2807 12.3307L15.8452 13.1318C15.7371 13.194 15.6443 13.2332 15.5444 13.2863L14.9841 13.5954C14.7796 13.7004 14.6375 13.7928 14.4237 13.9045L13.0157 14.6917C12.9077 14.7538 12.8149 14.7931 12.715 14.8462C12.604 14.9054 12.5406 14.9579 12.4295 15.0164C11.9872 15.2501 11.2477 15.4788 10.6651 15.4788H10.6639ZM21 6.51677V6.87415C20.9665 7.43737 20.7739 7.9855 20.4167 8.4298C20.0026 8.94473 19.79 9.03347 19.2349 9.36488C18.5289 9.78685 17.1092 10.4829 16.4807 10.8759C16.355 10.9549 16.2722 10.9948 16.1324 11.066L13.7324 12.3935C12.9282 12.8963 11.7781 13.3714 10.5 13.3714C8.90879 13.3714 7.96604 12.7672 6.88996 12.1919C6.04531 11.7403 4.97217 11.0968 4.1422 10.6742L3.44733 10.2927C3.32868 10.2215 3.24821 10.1708 3.10371 10.0977L1.07784 8.93386C0.348903 8.37849 0 7.55388 0 6.54273C0 5.8799 0.278418 5.31789 0.562122 4.92852C0.803535 4.59711 1.06962 4.36409 1.42146 4.1679L4.49757 2.48185C5.6177 1.8975 7.86619 0.580292 8.70027 0.309244C11.0862 -0.465263 12.5952 0.337013 14.4648 1.3717L16.1729 2.31403C16.2992 2.37862 16.3761 2.41605 16.5024 2.48125C16.6481 2.55731 16.6969 2.60319 16.8431 2.67925L19.2637 3.98499C19.7495 4.23249 20.1277 4.50173 20.4379 4.92792C20.7774 5.39455 20.9665 5.95355 21 6.51617V6.51677Z" fill="white"/>
</svg>
