<svg width="70" height="70" viewBox="0 0 70 70" fill="none" xmlns="http://www.w3.org/2000/svg">
<path fill-rule="evenodd" clip-rule="evenodd" d="M15.8498 26.878C15.8498 25.8427 16.4783 25.1095 17.2705 24.6475L20.814 22.7688C22.9571 21.6977 25.7528 20.0533 27.934 18.954C30.8198 17.5002 31.899 16.4227 35.3523 16.4227C38.1874 16.4227 40.7355 18.3423 43.1528 19.5503C43.5667 19.7576 43.9273 19.947 44.3094 20.171C45.7784 21.031 48.8 22.4591 50.2829 23.3537C51.7392 24.2328 54.1464 24.7626 54.1464 26.8767C54.1464 28.9576 51.7392 29.5271 50.3515 30.3793C49.2469 31.0576 46.789 32.2196 45.5638 32.9708C44.8046 33.4366 43.9679 33.7732 43.1909 34.2428C42.3974 34.7214 41.6305 35.0593 40.8205 35.5174C38.6038 36.7677 37.5653 37.4229 34.6426 37.4229C32.4817 37.4229 30.6103 36.3582 29.2315 35.5507L25.6525 33.6183C24.0731 32.6649 21.2177 31.3315 19.6993 30.4152C18.1504 29.481 15.8498 28.9333 15.8498 26.878ZM35.3536 53.5961C32.464 53.5961 31.2769 52.8871 28.9992 51.601C28.1727 51.1339 27.3766 50.7845 26.5488 50.3174L16.7068 45.0463C16.1215 44.7545 14.7465 43.8548 14.0774 43.8548C13.0338 43.8548 12.3838 44.6815 12.3038 45.5466V45.9024C12.3508 46.404 12.5983 46.8814 13.0821 47.1808L18.6277 50.169C19.1483 50.43 19.5228 50.6668 20.0167 50.9138C20.5131 51.1621 20.8978 51.4065 21.4056 51.6586C21.9338 51.9222 22.2766 52.1436 22.7946 52.4034L27.6724 54.9935C30.0771 56.2234 31.7276 57.2587 34.9994 57.2587C36.2131 57.2587 37.7405 57.0053 38.6901 56.6905C39.8544 56.304 40.6644 55.8996 41.6496 55.3839C41.9124 55.2457 42.0343 55.1433 42.3263 54.9935L50.6308 50.4966C50.8949 50.3533 51.0726 50.279 51.3418 50.1408L52.7257 49.3909C53.6144 48.8701 54.5907 48.4017 55.482 47.8796C56.8303 47.09 57.6949 47.0375 57.6949 45.4634C57.6949 44.5395 56.8151 43.7653 55.9213 43.7653C55.0364 43.7653 47.4504 48.1739 45.9028 48.9469C45.4762 49.1593 45.155 49.3692 44.6903 49.6021C44.4377 49.7288 44.3259 49.8094 44.1266 49.9271C43.9133 50.0513 43.7241 50.1319 43.4791 50.2573C43.2137 50.3929 43.1592 50.448 42.9179 50.5849L38.4819 52.905C37.5741 53.2698 36.5788 53.5935 35.3536 53.5935V53.5961ZM35.3536 45.5543C33.1165 45.5543 32.1135 45.2433 30.2713 44.2439C29.8028 43.9892 29.455 43.8177 28.9992 43.5605C28.1727 43.0947 27.3766 42.744 26.5488 42.2769L22.8543 40.2818C22.6537 40.182 22.4835 40.1052 22.2626 39.985L16.7068 37.0058C16.1215 36.714 14.7465 35.8143 14.0774 35.8143C13.0338 35.8143 12.3838 36.641 12.3038 37.5061V37.8619C12.3508 38.3635 12.5983 38.8409 13.0821 39.1403L22.7946 44.3629C23.3151 44.6227 23.7062 44.8697 24.1836 45.1077C24.68 45.356 25.0647 45.5991 25.5725 45.8525L26.9602 46.5973C27.2332 46.7342 27.3995 46.8136 27.6724 46.9518C30.0771 48.1816 31.7276 49.2169 34.9994 49.2169C36.2131 49.2169 37.7405 48.9635 38.6901 48.6487C39.8544 48.2622 40.6644 47.8578 41.6496 47.3421L49.9528 42.8439C50.2487 42.6954 50.3553 42.6045 50.6308 42.4548L52.7257 41.3491C53.6144 40.8283 54.5907 40.3599 55.482 39.8378C56.8303 39.0482 57.6949 38.9957 57.6949 37.4217C57.6949 36.4977 56.8151 35.7235 55.9213 35.7235C55.2052 35.7235 53.0316 37.0953 52.1391 37.5407C51.6605 37.7787 51.3266 37.9975 50.8682 38.2253C50.4429 38.4365 50.1204 38.6476 49.6558 38.8806L46.5528 40.5787C46.3192 40.7106 46.1186 40.7937 45.9028 40.9064L44.6916 41.5616C44.2497 41.7842 43.9425 41.98 43.4804 42.2168L40.4371 43.8855C40.2035 44.0174 40.0029 44.1005 39.7871 44.2132C39.5471 44.3386 39.41 44.4499 39.17 44.574C38.214 45.0693 36.6156 45.5543 35.3561 45.5543H35.3536ZM6.18935 67.8202H63.8094C64.9152 67.8202 65.922 67.3633 66.652 66.6275C67.3821 65.8917 67.8353 64.8768 67.8353 63.7622V6.23993C67.8353 5.12529 67.3821 4.11047 66.652 3.37463C65.922 2.63879 64.9152 2.18193 63.8094 2.18193H6.18935C5.08352 2.18193 4.07672 2.63879 3.34669 3.37463C2.61667 4.11047 2.16342 5.12529 2.16342 6.23993V63.7622C2.16342 64.8768 2.61667 65.8917 3.34669 66.6275C4.07672 67.3633 5.08352 67.8202 6.18935 67.8202ZM63.8094 69.9996H6.18935C4.48554 69.9996 2.93788 69.2983 1.81681 68.1683C0.695747 67.0383 0 65.4783 0 63.7609V6.23865C0 4.52126 0.695747 2.96128 1.81681 1.83128C2.93788 0.701288 4.48554 0 6.18935 0H63.8094C65.5132 0 67.0609 0.701288 68.1819 1.83128C69.303 2.96128 69.9987 4.52126 69.9987 6.23865V63.7609C69.9987 65.4783 69.303 67.0383 68.1819 68.1683C67.0609 69.2983 65.5132 69.9996 63.8094 69.9996ZM57.6949 26.5555V27.3131C57.6226 28.5071 57.2061 29.6691 56.4342 30.611C55.5391 31.7026 55.0795 31.8907 53.8797 32.5933C52.3537 33.4878 49.285 34.9633 47.9265 35.7964C47.6548 35.9641 47.4758 36.0485 47.1737 36.1995L41.986 39.0136C40.2479 40.0797 37.762 41.0868 34.9994 41.0868C31.56 41.0868 29.5223 39.8058 27.1963 38.5862C25.3706 37.629 23.0511 36.2648 21.2571 35.369L19.7551 34.5602C19.4987 34.4092 19.3247 34.3017 19.0124 34.1469L14.6335 31.6795C13.0579 30.5022 12.3038 28.7541 12.3038 26.6106C12.3038 25.2054 12.9056 24.014 13.5188 23.1886C14.0406 22.486 14.6158 21.992 15.3763 21.5761L22.0252 18.0019C24.4464 16.7631 29.3064 13.9707 31.1093 13.3961C36.2664 11.7543 39.5281 13.455 43.5692 15.6485L47.2613 17.6461C47.5342 17.783 47.7006 17.8624 47.9735 18.0006C48.2884 18.1618 48.3938 18.2591 48.7099 18.4203L53.942 21.1884C54.9919 21.7131 55.8096 22.2838 56.4799 23.1873C57.2137 24.1765 57.6226 25.3616 57.6949 26.5543V26.5555Z" fill="#9A9A9A"/>
</svg>
