<svg width="64" height="10" viewBox="0 0 64 10" fill="none" xmlns="http://www.w3.org/2000/svg">
<mask id="path-1-outside-1_64_1464" maskUnits="userSpaceOnUse" x="0.699219" y="0.404205" width="63" height="9" fill="black">
<rect fill="white" x="0.699219" y="0.404205" width="63" height="9"/>
<path fill-rule="evenodd" clip-rule="evenodd" d="M3.69922 4.90421C3.69922 4.07578 4.37079 3.40421 5.19922 3.40421L58.6081 3.40421C59.4365 3.40421 60.1081 4.07578 60.1081 4.90421C60.1081 5.73263 59.4365 6.40421 58.6081 6.40421L5.19922 6.40421C4.37079 6.40421 3.69922 5.73263 3.69922 4.90421Z"/>
</mask>
<path fill-rule="evenodd" clip-rule="evenodd" d="M3.69922 4.90421C3.69922 4.07578 4.37079 3.40421 5.19922 3.40421L58.6081 3.40421C59.4365 3.40421 60.1081 4.07578 60.1081 4.90421C60.1081 5.73263 59.4365 6.40421 58.6081 6.40421L5.19922 6.40421C4.37079 6.40421 3.69922 5.73263 3.69922 4.90421Z" fill="white"/>
<path d="M5.19922 0.404205C2.71394 0.404205 0.699219 2.41892 0.699219 4.90421H6.69922C6.69922 5.73263 6.02765 6.40421 5.19922 6.40421V0.404205ZM58.6081 0.404205L5.19922 0.404205V6.40421L58.6081 6.40421V0.404205ZM63.1081 4.90421C63.1081 2.41892 61.0934 0.404205 58.6081 0.404205V6.40421C57.7797 6.40421 57.1081 5.73263 57.1081 4.90421L63.1081 4.90421ZM58.6081 9.40421C61.0934 9.40421 63.1081 7.38949 63.1081 4.90421L57.1081 4.90421C57.1081 4.07578 57.7797 3.40421 58.6081 3.40421V9.40421ZM5.19922 9.40421L58.6081 9.40421V3.40421L5.19922 3.40421V9.40421ZM0.699219 4.90421C0.699219 7.38949 2.71394 9.40421 5.19922 9.40421V3.40421C6.02765 3.40421 6.69922 4.07578 6.69922 4.90421H0.699219Z" fill="white" mask="url(#path-1-outside-1_64_1464)"/>
</svg>
