<svg width="174" height="171" viewBox="0 0 174 171" fill="none" xmlns="http://www.w3.org/2000/svg">
<path fill-rule="evenodd" clip-rule="evenodd" d="M57.3361 119.397H64.7521V127.478C64.7521 131.421 69.9432 131.421 69.9432 127.478V119.397H76.3705C76.3705 122.978 75.7124 125.519 79.0898 125.519C81.9427 125.519 81.3145 121.975 81.3145 119.397H87.7416C87.7416 122.067 87.1883 125.519 90.4608 125.519C93.49 125.519 92.9329 121.459 92.9329 119.397H99.3602V128.213C99.3602 131.171 104.304 131.171 104.304 128.213V119.397H110.731C110.731 122.067 110.178 125.519 113.451 125.519C116.48 125.519 115.922 121.459 115.922 119.397H122.35C122.35 122.978 121.691 125.519 125.069 125.519C127.922 125.519 127.294 121.975 127.294 119.397H133.721V127.478C133.721 131.421 138.912 131.421 138.912 127.478V119.397H145.339V143.884H32.3693C33.1959 142.662 50.9605 125.346 53.9374 122.397C54.5547 121.786 56.5412 119.397 57.3361 119.397ZM81.0671 28.3052H145.339V91.9718H81.0671V28.3052ZM115.675 72.6269V61.6078L125.563 55.9757V67.2399L120.632 69.9461C119.661 70.4998 116.632 72.4061 115.675 72.6269ZM128.035 35.4065C128.035 38.8808 130.854 38.1001 135.451 38.1001C135.451 42.6544 134.663 45.4463 138.17 45.4463C139.392 45.4463 140.395 44.4527 140.395 43.2425V35.4066C140.395 34.1964 139.392 33.2029 138.17 33.2029H130.26C129.038 33.2029 128.035 34.1963 128.035 35.4065ZM86.0112 35.4065V43.2424C86.0112 46.2004 90.9551 46.2004 90.9551 43.2424V38.1C95.5527 38.1 98.371 38.8808 98.371 35.4064C98.371 34.1962 97.3682 33.2027 96.1464 33.2027H88.236C87.0142 33.2027 86.0112 34.1963 86.0112 35.4065ZM135.451 77.0346V82.177C130.853 82.177 128.035 81.3963 128.035 84.8706C128.035 86.0809 129.038 87.0743 130.26 87.0743H138.17C139.392 87.0743 140.395 86.0809 140.395 84.8706V77.0348C140.395 74.0767 135.451 74.0766 135.451 77.0346ZM86.0112 77.0346V84.8705C86.0112 86.0808 87.0141 87.0742 88.2359 87.0742H96.1462C99.1324 87.0742 99.1324 82.1769 96.1462 82.1769H90.955C90.955 77.6226 91.7432 74.8308 88.2358 74.8308C87.014 74.8308 86.0112 75.8243 86.0112 77.0346ZM15.3858 165.675H158.614C161.364 165.675 163.866 164.559 165.682 162.76C167.497 160.962 168.624 158.483 168.624 155.759V15.2411C168.624 12.5171 167.497 10.0385 165.682 8.2401C163.866 6.44167 161.364 5.32528 158.614 5.32528H15.3858C12.6359 5.32528 10.1339 6.44167 8.31833 8.2401C6.5028 10.0385 5.37577 12.5171 5.37577 15.2411V155.759C5.37577 158.483 6.5028 160.962 8.31833 162.76C10.1339 164.559 12.6359 165.675 15.3858 165.675ZM158.614 171H15.3858C11.1519 171 7.30494 169.286 4.51751 166.525C1.73009 163.764 0 159.953 0 155.759V15.241C0 11.0469 1.73009 7.23613 4.51751 4.47495C7.30494 1.71377 11.1518 0 15.3858 0H158.614C162.848 0 166.695 1.71377 169.483 4.47495C172.27 7.23613 174 11.0468 174 15.241V155.759C174 159.953 172.27 163.764 169.483 166.525C166.695 169.286 162.848 171 158.614 171ZM100.843 55.9756L110.731 61.6077V72.6268C109.774 72.4059 106.745 70.4996 105.774 69.9459C104.933 69.4661 104.305 69.1314 103.423 68.602C102.732 68.1876 101.542 67.4245 100.843 67.2396V55.9756ZM113.203 46.1808C113.432 46.1808 122.293 51.0686 122.844 51.8129C122.046 52.0238 121.22 52.6872 120.448 53.1129C111.001 58.3254 115.333 58.1726 106.119 53.1981C105.299 52.7554 104.381 52.0296 103.562 51.8129C104.113 51.0686 112.974 46.1808 113.203 46.1808ZM95.8991 51.0782V69.1987C95.8991 69.5334 96.2759 70.0955 96.4899 70.3275C97.0396 70.9245 112.427 79.6234 113.203 79.6234C114.438 79.6233 126.528 72.3937 128.733 71.1149C129.287 70.7941 130.507 70.1356 130.507 69.1987V51.0782C130.507 50.1934 129.447 49.5743 128.89 49.252C128.075 48.7809 127.532 48.4204 126.714 47.9789C124.703 46.8936 114.453 40.6535 113.203 40.6535C112.139 40.6535 105.571 44.6146 104.259 45.4016L96.6139 49.8273C96.3956 50.0288 95.8991 50.6911 95.8991 51.0782ZM76.1232 25.6116V94.6653C76.1232 95.8756 77.1262 96.8691 78.348 96.8691H148.058C149.28 96.8691 150.283 95.8756 150.283 94.6653V25.6116C150.283 24.4013 149.28 23.4078 148.058 23.4078H78.348C77.1262 23.4078 76.1232 24.4013 76.1232 25.6116ZM42.257 37.1205C42.257 38.8802 43.4692 39.8141 45.2233 39.8141H53.3809V46.1808C49.7659 46.1808 47.201 45.5289 47.201 48.8745C47.201 51.7006 50.7785 51.0782 53.3809 51.0782V57.4449C50.6855 57.4449 47.201 56.8967 47.201 60.1386C47.201 63.1392 51.2997 62.5872 53.3809 62.5872V68.954H44.4818C41.4957 68.954 41.4957 73.8512 44.4818 73.8512H53.3809V80.218C50.6855 80.218 47.201 79.6698 47.201 82.9117C47.201 85.9122 51.2997 85.3603 53.3809 85.3603V91.727C49.7659 91.727 47.201 91.075 47.201 94.4206C47.201 97.2468 50.7785 96.6244 53.3809 96.6244V102.991H45.2233C41.2429 102.991 41.2429 108.133 45.2233 108.133H53.3809C53.3809 117.927 54.6948 114.546 47.3865 121.785C44.9623 124.186 29.8663 139.412 28.6611 140.212V28.3053H53.381V34.6721H45.2235C43.6279 34.6721 42.257 35.5885 42.257 37.1205ZM23.7172 25.6116V146.578C23.7172 147.788 24.7201 148.782 25.942 148.782H148.058C149.28 148.782 150.283 147.788 150.283 146.578V116.704C150.283 115.493 149.28 114.5 148.058 114.5H58.3249V25.6116C58.3249 24.4013 57.322 23.4078 56.1001 23.4078H25.942C24.7201 23.4078 23.7172 24.4013 23.7172 25.6116Z" fill="#4B4B4B"/>
</svg>
