<svg width="67" height="67" viewBox="0 0 67 67" fill="none" xmlns="http://www.w3.org/2000/svg">
<g filter="url(#filter0_d_64_1417)">
<path fill-rule="evenodd" clip-rule="evenodd" d="M32.5768 56.6176C33.0867 57.1275 33.9133 57.1275 34.4232 56.6176L42.7317 48.3091C43.2415 47.7993 43.2415 46.9726 42.7317 46.4628C42.2218 45.9529 41.3952 45.9529 40.8853 46.4628L39.9269 47.4212C38.037 49.3111 34.8056 47.9726 34.8056 45.2999V37.8056C34.8056 36.1487 36.1487 34.8056 37.8056 34.8056H45.2999C47.9726 34.8056 49.3111 38.037 47.4212 39.9269L46.4628 40.8854C45.9529 41.3952 45.9529 42.2219 46.4628 42.7317C46.9726 43.2416 47.7993 43.2416 48.3091 42.7317L56.6176 34.4232C57.1275 33.9134 57.1275 33.0867 56.6176 32.5769L48.3091 24.2684C47.7993 23.7585 46.9726 23.7585 46.4628 24.2684C45.9529 24.7782 45.9529 25.6048 46.4628 26.1147L47.4212 27.0732C49.3111 28.9631 47.9726 32.1945 45.2999 32.1945H37.8056C36.1487 32.1945 34.8056 30.8513 34.8056 29.1945V21.7001C34.8056 19.0274 38.037 17.6889 39.9269 19.5788L40.8853 20.5372C41.3952 21.0471 42.2218 21.0471 42.7317 20.5372C43.2415 20.0274 43.2415 19.2007 42.7317 18.6909L34.4232 10.3824C33.9133 9.87254 33.0867 9.87254 32.5768 10.3824L24.2683 18.6909C23.7585 19.2007 23.7585 20.0274 24.2683 20.5372C24.7782 21.0471 25.6048 21.0471 26.1147 20.5372L27.0731 19.5788C28.963 17.6889 32.1944 19.0274 32.1944 21.7001V29.1945C32.1944 30.8513 30.8513 32.1945 29.1944 32.1945H21.7001C19.0274 32.1945 17.6889 28.9631 19.5788 27.0732L20.5372 26.1147C21.0471 25.6049 21.0471 24.7782 20.5372 24.2684C20.0274 23.7585 19.2007 23.7585 18.6909 24.2684L10.3824 32.5769C9.87254 33.0867 9.87254 33.9134 10.3824 34.4232L18.6909 42.7317C19.2007 43.2416 20.0274 43.2416 20.5372 42.7317C21.0471 42.2219 21.0471 41.3952 20.5372 40.8854L19.5788 39.9269C17.6889 38.037 19.0274 34.8056 21.7001 34.8056H29.1944C30.8513 34.8056 32.1944 36.1487 32.1944 37.8056V45.2999C32.1944 47.9726 28.963 49.3111 27.0731 47.4212L26.1147 46.4628C25.6048 45.9529 24.7782 45.9529 24.2683 46.4628C23.7585 46.9726 23.7585 47.7993 24.2683 48.3091L32.5768 56.6176Z" fill="#D9D9D9"/>
</g>
<defs>
<filter id="filter0_d_64_1417" x="0" y="0" width="67" height="67" filterUnits="userSpaceOnUse" color-interpolation-filters="sRGB">
<feFlood flood-opacity="0" result="BackgroundImageFix"/>
<feColorMatrix in="SourceAlpha" type="matrix" values="0 0 0 0 0 0 0 0 0 0 0 0 0 0 0 0 0 0 127 0" result="hardAlpha"/>
<feOffset/>
<feGaussianBlur stdDeviation="5"/>
<feComposite in2="hardAlpha" operator="out"/>
<feColorMatrix type="matrix" values="0 0 0 0 1 0 0 0 0 1 0 0 0 0 1 0 0 0 1 0"/>
<feBlend mode="normal" in2="BackgroundImageFix" result="effect1_dropShadow_64_1417"/>
<feBlend mode="normal" in="SourceGraphic" in2="effect1_dropShadow_64_1417" result="shape"/>
</filter>
</defs>
</svg>
