<svg width="20" height="20" viewBox="0 0 20 20" fill="none" xmlns="http://www.w3.org/2000/svg">
<mask id="path-1-inside-1_59_3377" fill="white">
<path fill-rule="evenodd" clip-rule="evenodd" d="M10 0C8.89543 0 8 0.895432 8 2V2.88889C8 3.06097 8.02173 3.22797 8.0626 3.3873C7.58274 3.52766 7.12457 3.71883 6.69432 3.9546C6.61051 3.81287 6.5077 3.67926 6.3859 3.55746L5.75736 2.92892C4.97631 2.14787 3.70998 2.14787 2.92893 2.92892C2.14788 3.70997 2.14788 4.9763 2.92893 5.75735L3.55747 6.38589C3.67927 6.50769 3.81287 6.61049 3.9546 6.69431C3.71883 7.12456 3.52765 7.58274 3.38729 8.0626C3.22796 8.02173 3.06096 8 2.88889 8H2C0.895431 8 0 8.89543 0 10C0 11.1046 0.895432 12 2 12H2.88889C3.06096 12 3.22796 11.9783 3.38728 11.9374C3.52764 12.4173 3.71881 12.8754 3.95458 13.3057C3.81286 13.3895 3.67926 13.4923 3.55746 13.6141L2.92893 14.2426C2.14788 15.0237 2.14788 16.29 2.92893 17.0711C3.70997 17.8521 4.9763 17.8521 5.75735 17.0711L6.38589 16.4425C6.50769 16.3207 6.61049 16.1871 6.6943 16.0454C7.12456 16.2812 7.58274 16.4724 8.06261 16.6127C8.02174 16.7721 8.00001 16.9391 8.00001 17.1111V18C8.00001 19.1046 8.89544 20 10 20C11.1046 20 12 19.1046 12 18V17.1111C12 16.9391 11.9783 16.7721 11.9374 16.6127C12.4173 16.4724 12.8754 16.2812 13.3057 16.0454C13.3895 16.1871 13.4923 16.3207 13.6141 16.4425L14.2426 17.0711C15.0237 17.8521 16.29 17.8521 17.0711 17.0711C17.8521 16.29 17.8521 15.0237 17.0711 14.2426L16.4425 13.6141C16.3207 13.4923 16.1871 13.3895 16.0454 13.3057C16.2812 12.8754 16.4724 12.4173 16.6127 11.9374C16.772 11.9783 16.939 12 17.1111 12H18C19.1046 12 20 11.1046 20 10C20 8.89543 19.1046 8 18 8H17.1111C16.939 8 16.772 8.02173 16.6127 8.0626C16.4724 7.58273 16.2812 7.12456 16.0454 6.6943C16.1871 6.61049 16.3207 6.50769 16.4425 6.38589L17.0711 5.75735C17.8521 4.9763 17.8521 3.70997 17.0711 2.92892C16.29 2.14787 15.0237 2.14787 14.2426 2.92892L13.6141 3.55746C13.4923 3.67926 13.3895 3.81287 13.3057 3.95459C12.8754 3.71883 12.4173 3.52766 11.9374 3.3873C11.9783 3.22797 12 3.06097 12 2.88889V2C12 0.895431 11.1046 0 10 0Z"/>
</mask>
<path d="M8.0626 3.3873L8.34334 4.34708L9.27152 4.07559L9.03124 3.13884L8.0626 3.3873ZM6.69432 3.9546L5.83357 4.46362L6.32618 5.29662L7.17487 4.83156L6.69432 3.9546ZM6.3859 3.55746L5.67879 4.26457L5.67879 4.26457L6.3859 3.55746ZM5.75736 2.92892L5.05025 3.63603L5.75736 2.92892ZM2.92893 5.75735L2.22183 6.46446L2.22183 6.46446L2.92893 5.75735ZM3.55747 6.38589L4.26458 5.67878V5.67878L3.55747 6.38589ZM3.9546 6.69431L4.83156 7.17486L5.29662 6.32617L4.46363 5.83356L3.9546 6.69431ZM3.38729 8.0626L3.13884 9.03124L4.07558 9.27152L4.34708 8.34334L3.38729 8.0626ZM3.38728 11.9374L4.34707 11.6567L4.07558 10.7285L3.13884 10.9688L3.38728 11.9374ZM3.95458 13.3057L4.46361 14.1664L5.2966 13.6738L4.83155 12.8251L3.95458 13.3057ZM3.55746 13.6141L2.85036 12.907L2.85036 12.907L3.55746 13.6141ZM2.92893 14.2426L2.22182 13.5355H2.22182L2.92893 14.2426ZM2.92893 17.0711L3.63603 16.364L3.63603 16.364L2.92893 17.0711ZM6.38589 16.4425L5.67879 15.7354L5.67878 15.7354L6.38589 16.4425ZM6.6943 16.0454L7.17485 15.1685L6.32618 14.7034L5.83356 15.5364L6.6943 16.0454ZM8.06261 16.6127L9.03125 16.8612L9.27152 15.9244L8.34334 15.6529L8.06261 16.6127ZM11.9374 16.6127L11.6567 15.6529L10.7285 15.9244L10.9688 16.8612L11.9374 16.6127ZM13.3057 16.0454L14.1664 15.5364L13.6738 14.7034L12.8251 15.1685L13.3057 16.0454ZM13.6141 16.4425L12.907 17.1496L12.907 17.1496L13.6141 16.4425ZM17.0711 14.2426L16.364 14.9497L16.364 14.9497L17.0711 14.2426ZM16.0454 13.3057L15.1685 12.8251L14.7034 13.6738L15.5364 14.1664L16.0454 13.3057ZM16.6127 11.9374L16.8612 10.9688L15.9244 10.7285L15.6529 11.6567L16.6127 11.9374ZM16.6127 8.0626L15.6529 8.34334L15.9244 9.27151L16.8612 9.03124L16.6127 8.0626ZM16.0454 6.6943L15.5364 5.83355L14.7034 6.32617L15.1684 7.17486L16.0454 6.6943ZM16.4425 6.38589L17.1496 7.093L17.1496 7.09299L16.4425 6.38589ZM17.0711 5.75735L17.7782 6.46446V6.46446L17.0711 5.75735ZM17.0711 2.92892L16.364 3.63603L16.364 3.63603L17.0711 2.92892ZM14.2426 2.92892L14.9497 3.63603L14.9497 3.63603L14.2426 2.92892ZM13.6141 3.55746L14.3212 4.26457L14.3212 4.26457L13.6141 3.55746ZM13.3057 3.95459L12.8251 4.83156L13.6738 5.29661L14.1664 4.46362L13.3057 3.95459ZM11.9374 3.3873L10.9688 3.13884L10.7285 4.07559L11.6567 4.34708L11.9374 3.3873ZM9 2C9 1.44772 9.44772 1 10 1V-1C8.34315 -1 7 0.343148 7 2H9ZM9 2.88889V2H7V2.88889H9ZM9.03124 3.13884C9.01102 3.06001 9 2.97646 9 2.88889H7C7 3.14547 7.03244 3.39593 7.09396 3.63576L9.03124 3.13884ZM7.17487 4.83156C7.54251 4.63011 7.93375 4.46689 8.34334 4.34708L7.78186 2.42751C7.23173 2.58843 6.70664 2.80755 6.21377 3.07763L7.17487 4.83156ZM5.67879 4.26457C5.74077 4.32655 5.7921 4.3935 5.83357 4.46362L7.55507 3.44557C7.42892 3.23224 7.27463 3.03198 7.093 2.85035L5.67879 4.26457ZM5.05025 3.63603L5.67879 4.26457L7.093 2.85035L6.46447 2.22182L5.05025 3.63603ZM3.63604 3.63603C4.02656 3.2455 4.65973 3.2455 5.05025 3.63603L6.46447 2.22182C5.29289 1.05024 3.3934 1.05024 2.22183 2.22182L3.63604 3.63603ZM3.63604 5.05024C3.24551 4.65972 3.24552 4.02655 3.63604 3.63603L2.22183 2.22182C1.05025 3.39339 1.05025 5.29288 2.22183 6.46446L3.63604 5.05024ZM4.26458 5.67878L3.63604 5.05024L2.22183 6.46446L2.85036 7.093L4.26458 5.67878ZM4.46363 5.83356C4.3935 5.79209 4.32656 5.74077 4.26458 5.67878L2.85036 7.093C3.03198 7.27461 3.23224 7.4289 3.44557 7.55506L4.46363 5.83356ZM4.34708 8.34334C4.46688 7.93375 4.6301 7.5425 4.83156 7.17486L3.07763 6.21375C2.80755 6.70662 2.58842 7.23172 2.42751 7.78186L4.34708 8.34334ZM2.88889 9C2.97646 9 3.06 9.01102 3.13884 9.03124L3.63575 7.09396C3.39592 7.03244 3.14547 7 2.88889 7V9ZM2 9H2.88889V7H2V9ZM1 10C1 9.44772 1.44772 9 2 9V7C0.343146 7 -1 8.34315 -1 10H1ZM2 11C1.44772 11 1 10.5523 1 10H-1C-1 11.6569 0.343148 13 2 13V11ZM2.88889 11H2V13H2.88889V11ZM3.13884 10.9688C3.06 10.989 2.97645 11 2.88889 11V13C3.14547 13 3.39592 12.9676 3.63573 12.906L3.13884 10.9688ZM4.83155 12.8251C4.63009 12.4575 4.46687 12.0663 4.34707 11.6567L2.4275 12.2181C2.58841 12.7683 2.80754 13.2934 3.07761 13.7862L4.83155 12.8251ZM4.26457 14.3212C4.32655 14.2592 4.3935 14.2079 4.46361 14.1664L3.44555 12.4449C3.23223 12.5711 3.03197 12.7254 2.85036 12.907L4.26457 14.3212ZM3.63603 14.9497L4.26457 14.3212L2.85036 12.907L2.22182 13.5355L3.63603 14.9497ZM3.63603 16.364C3.24551 15.9734 3.24551 15.3403 3.63603 14.9497L2.22182 13.5355C1.05025 14.7071 1.05024 16.6066 2.22182 17.7782L3.63603 16.364ZM5.05025 16.364C4.65972 16.7545 4.02656 16.7545 3.63603 16.364L2.22182 17.7782C3.39339 18.9497 5.29289 18.9497 6.46446 17.7782L5.05025 16.364ZM5.67878 15.7354L5.05025 16.364L6.46446 17.7782L7.093 17.1496L5.67878 15.7354ZM5.83356 15.5364C5.79209 15.6065 5.74076 15.6734 5.67879 15.7354L7.093 17.1496C7.27461 16.968 7.42889 16.7678 7.55504 16.5545L5.83356 15.5364ZM8.34334 15.6529C7.93375 15.5331 7.5425 15.3699 7.17485 15.1685L6.21374 16.9224C6.70662 17.1925 7.23173 17.4116 7.78188 17.5725L8.34334 15.6529ZM9.00001 17.1111C9.00001 17.0236 9.01103 16.94 9.03125 16.8612L7.09396 16.3643C7.03245 16.6041 7.00001 16.8545 7.00001 17.1111H9.00001ZM9.00001 18V17.1111H7.00001V18H9.00001ZM10 19C9.44773 19 9.00001 18.5523 9.00001 18H7.00001C7.00001 19.6569 8.34316 21 10 21V19ZM11 18C11 18.5523 10.5523 19 10 19V21C11.6569 21 13 19.6569 13 18H11ZM11 17.1111V18H13V17.1111H11ZM10.9688 16.8612C10.989 16.94 11 17.0236 11 17.1111H13C13 16.8545 12.9676 16.6041 12.9061 16.3643L10.9688 16.8612ZM12.8251 15.1685C12.4575 15.3699 12.0663 15.5331 11.6567 15.6529L12.2181 17.5725C12.7683 17.4116 13.2934 17.1925 13.7863 16.9224L12.8251 15.1685ZM14.3212 15.7354C14.2592 15.6734 14.2079 15.6065 14.1664 15.5364L12.445 16.5545C12.5711 16.7678 12.7254 16.968 12.907 17.1496L14.3212 15.7354ZM14.9498 16.364L14.3212 15.7354L12.907 17.1496L13.5355 17.7782L14.9498 16.364ZM16.364 16.364C15.9734 16.7545 15.3403 16.7545 14.9498 16.364L13.5355 17.7782C14.7071 18.9497 16.6066 18.9497 17.7782 17.7782L16.364 16.364ZM16.364 14.9497C16.7545 15.3403 16.7545 15.9734 16.364 16.364L17.7782 17.7782C18.9498 16.6066 18.9498 14.7071 17.7782 13.5355L16.364 14.9497ZM15.7354 14.3212L16.364 14.9497L17.7782 13.5355L17.1496 12.907L15.7354 14.3212ZM15.5364 14.1664C15.6065 14.2079 15.6734 14.2592 15.7354 14.3212L17.1496 12.907C16.968 12.7254 16.7678 12.5711 16.5545 12.445L15.5364 14.1664ZM15.6529 11.6567C15.5331 12.0663 15.3699 12.4575 15.1685 12.8251L16.9224 13.7862C17.1925 13.2934 17.4116 12.7683 17.5725 12.2181L15.6529 11.6567ZM17.1111 11C17.0235 11 16.94 10.989 16.8612 10.9688L16.3643 12.906C16.6041 12.9676 16.8545 13 17.1111 13V11ZM18 11H17.1111V13H18V11ZM19 10C19 10.5523 18.5523 11 18 11V13C19.6569 13 21 11.6569 21 10H19ZM18 9C18.5523 9 19 9.44772 19 10H21C21 8.34315 19.6569 7 18 7V9ZM17.1111 9H18V7H17.1111V9ZM16.8612 9.03124C16.94 9.01102 17.0235 9 17.1111 9V7C16.8545 7 16.6041 7.03244 16.3643 7.09395L16.8612 9.03124ZM15.1684 7.17486C15.3699 7.5425 15.5331 7.93374 15.6529 8.34334L17.5725 7.78186C17.4116 7.23172 17.1925 6.70662 16.9224 6.21375L15.1684 7.17486ZM15.7354 5.67878C15.6734 5.74076 15.6065 5.79209 15.5364 5.83355L16.5544 7.55505C16.7678 7.42889 16.968 7.27461 17.1496 7.093L15.7354 5.67878ZM16.364 5.05024L15.7354 5.67878L17.1496 7.09299L17.7782 6.46446L16.364 5.05024ZM16.364 3.63603C16.7545 4.02655 16.7545 4.65972 16.364 5.05024L17.7782 6.46446C18.9497 5.29288 18.9497 3.39339 17.7782 2.22181L16.364 3.63603ZM14.9497 3.63603C15.3403 3.2455 15.9734 3.2455 16.364 3.63603L17.7782 2.22181C16.6066 1.05024 14.7071 1.05024 13.5355 2.22181L14.9497 3.63603ZM14.3212 4.26457L14.9497 3.63603L13.5355 2.22181L12.907 2.85035L14.3212 4.26457ZM14.1664 4.46362C14.2079 4.39349 14.2592 4.32655 14.3212 4.26457L12.907 2.85035C12.7254 3.03197 12.5711 3.23224 12.4449 3.44556L14.1664 4.46362ZM11.6567 4.34708C12.0662 4.46689 12.4575 4.6301 12.8251 4.83156L13.7862 3.07762C13.2934 2.80755 12.7683 2.58842 12.2181 2.42751L11.6567 4.34708ZM11 2.88889C11 2.97646 10.989 3.06001 10.9688 3.13884L12.906 3.63576C12.9676 3.39592 13 3.14547 13 2.88889H11ZM11 2V2.88889H13V2H11ZM10 1C10.5523 1 11 1.44772 11 2H13C13 0.343146 11.6569 -1 10 -1V1Z" fill="white" mask="url(#path-1-inside-1_59_3377)"/>
</svg>
