<svg width="22" height="25" viewBox="0 0 22 25" fill="none" xmlns="http://www.w3.org/2000/svg">
<path fill-rule="evenodd" clip-rule="evenodd" d="M3 0C1.34315 0 0 1.34315 0 3V21.9834C0 23.6402 1.34314 24.9834 3 24.9834H4.80731C6.46416 24.9834 7.80731 23.6402 7.80731 21.9834V3C7.80731 1.34315 6.46416 0 4.80731 0H3ZM16.2724 0C14.6156 0 13.2724 1.34315 13.2724 3V21.9834C13.2724 23.6402 14.6156 24.9834 16.2724 24.9834H18.0797C19.7366 24.9834 21.0797 23.6402 21.0797 21.9834V3C21.0797 1.34315 19.7366 0 18.0797 0H16.2724Z" fill="#646464"/>
</svg>
