<svg width="369" height="293" viewBox="0 0 369 293" fill="none" xmlns="http://www.w3.org/2000/svg">
<path fill-rule="evenodd" clip-rule="evenodd" d="M142.965 23H148L138.822 0H133.928L125 23H129.91L131.801 17.7756H140.964L142.965 23ZM136.32 5.36562L139.479 13.9004H133.224L136.32 5.36562ZM155.382 33H158V19H155.876C155.578 19.8496 155.028 20.5947 154.227 21.2351C153.425 21.8691 152.683 22.3003 152 22.5285V24.9538C153.298 24.5163 154.425 23.841 155.382 22.928V33ZM66 106H60.9653L58.964 100.776H49.8015L47.9096 106H43L51.9279 83H56.8219L66 106ZM57.4786 96.9004L54.3202 88.3656L51.2243 96.9004H57.4786ZM335.767 290.955L336.947 292.785L356.961 279.811L336.947 266.837L334.576 270.486L345.596 277.624H15.1611V15.3647L22.2993 26.3853L25.9606 24.0141L12.9864 4L0 24.0141L3.66126 26.3853L10.7995 15.3647V281.986H345.596L334.576 289.136L335.767 290.955ZM190.964 35.8473C194.613 37.1127 197.426 38.9188 199.257 41.0197C200.461 42.3958 201.259 43.8824 201.628 45.4427C202.009 47.0522 201.935 48.7108 201.358 50.3572C200.967 51.4748 200.349 52.5783 199.496 53.6356L203.967 54.7651L203.722 55.7347L198.754 54.4796C198.705 54.5308 198.656 54.5818 198.606 54.6327L199.49 55.075L195.706 56.9671C195.288 57.2374 194.858 57.4954 194.441 57.7288C193.937 58.0114 193.458 58.2571 193.015 58.466C176.491 67.7297 162.742 77.276 150.8 88.2476C138.846 99.2191 128.685 111.628 119.336 126.605L119.299 126.666L119.258 126.737C119.229 126.786 119.201 126.835 119.172 126.885L119.096 127.016L119.095 127.017C119.016 127.155 118.936 127.293 118.856 127.428C118.672 127.723 118.476 128.018 118.267 128.325L118.254 128.337C117.751 129.05 117.186 129.762 116.571 130.45C115.957 131.126 115.293 131.777 114.581 132.416C109.384 136.999 102.209 139.776 94.8862 140.562C87.5391 141.348 79.9955 140.12 74.0858 136.716C71.6409 135.303 69.6751 133.632 68.1885 131.802C66.0999 129.209 64.9573 126.298 64.773 123.275C64.5764 120.29 65.3258 117.231 66.9967 114.331C68.2868 112.095 70.1174 109.969 72.4886 108.065C73.1767 107.512 73.9015 106.984 74.6387 106.492L74.479 106.333C74.5779 106.285 74.8766 106.132 75.2399 105.946L75.2402 105.946L75.2404 105.946L75.2416 105.945C76.0069 105.553 77.0579 105.014 77.1328 105.006C77.4482 104.824 77.7996 104.654 78.1751 104.472L78.1894 104.465L79.1969 103.986C98.1789 94.5258 113.487 85.176 126.253 75.2611C138.932 65.4077 149.08 55.0013 157.816 43.3664C158.012 43.0346 158.246 42.6783 158.516 42.322C158.749 42.0149 158.995 41.7077 159.253 41.4129C159.253 41.4129 159.649 40.7987 160 40.5002C160.213 40.319 160.592 40.0983 160.592 40.0983L161.047 39.7174C164.524 36.8916 169.586 35.0732 174.992 34.3975C180.312 33.7341 186.049 34.1886 190.988 35.8964L190.964 35.8473ZM195.989 43.8701C194.637 42.322 192.45 40.946 189.551 39.9508C185.263 38.4642 180.226 38.0956 175.495 38.6731C170.851 39.2505 166.588 40.7494 163.762 43.0469C163.553 43.2189 163.344 43.4032 163.123 43.5998C162.982 43.7173 162.83 43.8796 162.656 44.0654L162.656 44.0657L162.632 44.0912L162.558 44.165C162.337 44.4107 162.14 44.6441 161.968 44.8653C161.809 45.0741 161.661 45.3076 161.514 45.5656L161.477 45.6393L161.366 45.7867C152.348 57.8271 141.905 68.5529 128.894 78.6644C115.908 88.7513 100.366 98.2485 81.1135 107.844L80.0938 108.323L79.1723 108.802C78.4474 109.195 77.7594 109.601 77.0959 110.043C76.4325 110.473 75.8059 110.94 75.2039 111.419C73.2504 112.992 71.7638 114.7 70.7563 116.469C69.5277 118.607 68.9748 120.83 69.11 122.98C69.2451 125.106 70.0683 127.182 71.5795 129.05C72.7344 130.487 74.2947 131.802 76.2482 132.932C81.3346 135.869 87.9446 136.913 94.4316 136.213C100.222 135.597 105.874 133.606 110.23 130.354L108.209 128.907L108.791 128.094L111.051 129.713C111.278 129.528 111.5 129.34 111.718 129.148C112.32 128.62 112.873 128.067 113.365 127.526C113.868 126.973 114.311 126.408 114.704 125.843L114.716 125.831C114.848 125.649 114.971 125.458 115.099 125.26L115.099 125.259L115.183 125.13C115.33 124.885 115.478 124.639 115.601 124.406L115.662 124.295C125.221 108.987 135.627 96.2827 147.876 85.0409C160.113 73.8114 174.156 64.0562 191.001 54.6205L191.148 54.5467C191.615 54.3256 192.02 54.129 192.352 53.9324C192.647 53.7727 192.929 53.6007 193.187 53.441L193.47 53.2567C193.728 53.0847 193.998 52.9004 194.256 52.6915C194.514 52.495 194.76 52.2984 194.957 52.1264C196.148 51.0821 196.922 50.0009 197.279 48.9443C197.561 48.1088 197.598 47.2734 197.402 46.4502C197.193 45.5779 196.714 44.7056 196.001 43.8824L195.989 43.8701ZM184.046 42.4173L185.544 41.1551L186.245 41.9783L185.21 42.8495C186.355 43.365 187.253 44.0175 187.879 44.7422C188.37 45.3074 188.69 45.934 188.837 46.5728C188.985 47.224 188.948 47.8997 188.714 48.5509C188.536 49.0616 188.233 49.5664 187.806 50.049L189.023 50.4928L188.642 51.5125L186.915 50.8823C185.384 52.0797 183.189 52.8551 180.839 53.1459C178.487 53.4282 175.955 53.2263 173.781 52.4758L172.226 53.7852L171.526 52.9621L172.647 52.0181C171.539 51.4973 170.682 50.8485 170.089 50.1358C169.609 49.5707 169.314 48.9441 169.179 48.3052C169.044 47.654 169.106 46.9906 169.339 46.3394C169.536 45.8179 169.851 45.3023 170.294 44.8175L169.18 44.4111L169.561 43.3914L171.211 43.9934C172.726 42.847 174.868 42.1081 177.153 41.8181C179.454 41.5363 181.913 41.7146 184.046 42.4173ZM187.695 48.1946C187.524 48.6862 187.195 49.1778 186.699 49.6451L184.499 48.8423C184.667 48.6105 184.794 48.3721 184.882 48.1337C185.029 47.716 185.054 47.2737 184.968 46.856C184.882 46.4505 184.673 46.0574 184.366 45.6888C184.045 45.3088 183.602 44.9636 183.045 44.6732L184.281 43.6321C185.516 44.1126 186.45 44.7457 187.056 45.4425H187.068C187.437 45.8848 187.682 46.3394 187.781 46.8063C187.891 47.2609 187.854 47.7277 187.695 48.1946ZM183.874 47.7897C183.791 48.0114 183.645 48.233 183.437 48.4547L182.398 48.0756C182.427 48.0181 182.452 47.9597 182.473 47.9004C182.572 47.6178 182.596 47.3352 182.535 47.0526C182.486 46.7823 182.35 46.5243 182.154 46.2909C182.02 46.1337 181.85 45.9848 181.649 45.8494L182.136 45.4386C182.759 45.6959 183.231 46.0237 183.542 46.3891L183.555 46.4014C183.751 46.6226 183.874 46.8683 183.923 47.1017C183.972 47.3229 183.96 47.5563 183.874 47.7897ZM182.376 49.2262L181.591 48.9399C181.056 49.2994 180.345 49.5381 179.598 49.6327C178.86 49.7183 178.067 49.6735 177.355 49.466L176.972 49.7878C177.931 50.0023 178.974 50.0359 179.967 49.9152C180.852 49.8057 181.691 49.5747 182.376 49.2262ZM181.454 47.5318C181.437 47.5859 181.409 47.6423 181.369 47.7001L180.031 47.2118L180.77 46.5891C181.015 46.7063 181.203 46.8454 181.331 46.9912V47.0035C181.404 47.0895 181.454 47.1878 181.478 47.2861C181.49 47.3598 181.478 47.4458 181.454 47.5318ZM180.156 48.416L179.071 48.0202L178.427 48.5628C178.775 48.5976 179.133 48.5943 179.475 48.5515C179.712 48.5214 179.941 48.4763 180.156 48.416ZM179.483 46.2599L178.86 46.7846L177.819 46.4045C178.022 46.3491 178.236 46.3071 178.456 46.2786C178.793 46.2364 179.143 46.2297 179.483 46.2599ZM177.901 47.5931L176.585 47.113C176.537 47.1767 176.501 47.239 176.478 47.2984C176.441 47.3844 176.441 47.4704 176.453 47.5441C176.478 47.6301 176.527 47.7284 176.601 47.8267C176.719 47.9721 176.904 48.1108 177.147 48.2279L177.901 47.5931ZM178.308 45.1974C177.57 45.291 176.876 45.5166 176.345 45.8667L175.678 45.6235C176.347 45.2948 177.156 45.0712 178.014 44.9639C178.965 44.8461 179.97 44.8754 180.9 45.0665L180.553 45.3596C179.84 45.1572 179.05 45.1114 178.308 45.1974ZM175.528 46.7274L174.585 46.3831C174.365 46.6071 174.216 46.8421 174.131 47.0771C174.045 47.3106 174.033 47.544 174.07 47.7652C174.119 47.9986 174.242 48.232 174.426 48.4655C174.721 48.8126 175.168 49.1327 175.761 49.395L176.266 48.9696C176.067 48.8339 175.899 48.6846 175.765 48.527C175.568 48.2935 175.446 48.0355 175.384 47.7652C175.323 47.4827 175.347 47.2001 175.446 46.9175C175.469 46.8531 175.496 46.7897 175.528 46.7274ZM177.866 43.8705C176.531 44.0388 175.267 44.4736 174.347 45.1375L172.458 44.4483C173.768 43.6421 175.48 43.1082 177.3 42.887C179.217 42.6462 181.249 42.7534 183.07 43.2391L181.923 44.2055C180.659 43.8056 179.215 43.7104 177.866 43.8705ZM173.472 45.9772L171.417 45.2271C170.894 45.7058 170.542 46.2022 170.359 46.708C170.187 47.1626 170.15 47.6294 170.236 48.084C170.334 48.5386 170.555 49.0055 170.924 49.4355C171.492 50.1285 172.386 50.748 173.576 51.2356L174.863 50.1511C174.322 49.8586 173.89 49.5114 173.578 49.1412C173.271 48.7726 173.075 48.3795 172.989 47.9617C172.903 47.544 172.939 47.1017 173.087 46.684C173.174 46.4416 173.302 46.2054 173.472 45.9772ZM185.681 50.4321L183.643 49.6884C182.719 50.3697 181.434 50.8037 180.078 50.9718C178.713 51.1424 177.254 51.0288 175.983 50.6214L174.768 51.6448C176.636 52.1753 178.73 52.2971 180.716 52.0647C182.592 51.8315 184.35 51.2804 185.681 50.4321ZM103.097 110.58L106.201 107.967L106.889 108.802L104.128 111.127C105.366 111.846 106.385 112.684 107.185 113.618C108.377 114.995 109.089 116.555 109.286 118.189C109.482 119.811 109.175 121.506 108.34 123.14C107.777 124.234 106.976 125.302 105.936 126.306L108.4 127.625L107.897 128.583L105.076 127.074C102.092 129.539 98.0748 131.042 93.9773 131.483C89.8679 131.923 85.6546 131.302 82.289 129.517L78.9623 132.318L78.262 131.495L81.2942 128.941C80.168 128.228 79.2414 127.404 78.5213 126.519C77.3542 125.094 76.703 123.497 76.5679 121.838C76.4327 120.192 76.8259 118.484 77.735 116.862C78.3351 115.786 79.1705 114.745 80.2264 113.775L78.029 112.599L78.545 111.641L81.118 113.018C84.0359 110.739 87.8854 109.329 91.8272 108.888C95.7624 108.448 99.8012 108.986 103.097 110.58ZM107.369 122.636C106.813 123.715 106.005 124.772 104.917 125.76L100.837 123.576C101.362 123.037 101.782 122.465 102.085 121.887C102.601 120.892 102.797 119.848 102.687 118.853C102.576 117.845 102.146 116.887 101.421 116.039C101.005 115.55 100.488 115.101 99.8764 114.707L103.242 111.873C104.521 112.574 105.567 113.399 106.362 114.319C107.406 115.535 108.033 116.899 108.205 118.312C108.377 119.725 108.106 121.211 107.369 122.636ZM101.102 121.359C100.803 121.935 100.374 122.493 99.8075 123.025L97.6639 121.877C97.8763 121.628 98.0509 121.371 98.1901 121.113C98.4973 120.511 98.6201 119.885 98.5587 119.283C98.4973 118.681 98.2393 118.103 97.8092 117.587C97.6275 117.372 97.4126 117.171 97.1685 116.987L99.0028 115.443C99.6532 115.823 100.185 116.263 100.598 116.739L100.586 116.727C101.163 117.403 101.507 118.165 101.593 118.951C101.679 119.737 101.519 120.56 101.102 121.359ZM98.8949 123.766L96.8208 122.656C95.8238 123.395 94.5466 123.854 93.2388 123.988C91.9385 124.133 90.6081 123.966 89.4931 123.45L87.6539 124.999C89.363 125.729 91.3978 125.97 93.3861 125.745C95.3918 125.531 97.3507 124.857 98.8949 123.766ZM97.2441 120.622C97.1082 120.867 96.9255 121.118 96.6911 121.356L93.8113 119.814L96.3129 117.708C96.5839 117.884 96.805 118.079 96.9861 118.288L96.9983 118.3C97.2932 118.644 97.4652 119.025 97.5021 119.418C97.5389 119.811 97.4529 120.216 97.2441 120.622ZM95.7505 122.083L92.9174 120.567L90.429 122.662C91.2569 122.94 92.2058 123.022 93.1405 122.919C94.0751 122.817 94.9884 122.536 95.7505 122.083ZM95.2323 117.204L92.7849 119.265L90.0276 117.789C90.7789 117.352 91.6693 117.075 92.5876 116.973C93.4918 116.871 94.4167 116.943 95.2323 117.204ZM91.8908 120.018L89.0723 118.509C88.8342 118.745 88.6447 118.992 88.5086 119.246C88.2875 119.651 88.2015 120.057 88.2383 120.462C88.2752 120.855 88.4349 121.236 88.7298 121.58C88.8971 121.783 89.1086 121.973 89.3642 122.145L91.8908 120.018ZM92.4525 115.879C91.1662 116.025 89.9002 116.466 88.9142 117.192L86.9582 116.145C88.4781 115.108 90.376 114.459 92.3295 114.245C94.2711 114.032 96.2592 114.245 97.9395 114.924L96.1826 116.403C95.0727 115.905 93.7421 115.734 92.4525 115.879ZM88.0643 117.97L86.0237 116.878C85.4473 117.4 85.0073 117.956 84.6875 118.521C84.2452 119.319 84.0732 120.143 84.1346 120.941C84.2083 121.728 84.5278 122.502 85.0929 123.19C85.4852 123.656 85.9873 124.095 86.607 124.467L88.5089 122.866C88.2681 122.681 88.0598 122.48 87.882 122.268C87.452 121.752 87.2063 121.162 87.1449 120.548C87.0835 119.946 87.2186 119.32 87.538 118.718C87.6756 118.463 87.8518 118.212 88.0643 117.97ZM92.2435 113.176C89.9242 113.433 87.6492 114.253 85.9112 115.585L82.1603 113.576C84.8622 111.596 88.3579 110.367 91.9378 109.97C95.5123 109.572 99.1602 110.003 102.184 111.349L98.8672 114.143C96.9158 113.223 94.5469 112.922 92.2435 113.176ZM85.0328 116.347L81.2337 114.314C80.1213 115.278 79.2696 116.313 78.6688 117.378C77.8702 118.803 77.5262 120.29 77.6367 121.74C77.7473 123.177 78.3125 124.578 79.3445 125.819C80.0663 126.698 81.0056 127.506 82.1718 128.202L85.7377 125.199C85.1565 124.806 84.6697 124.368 84.282 123.89C83.5694 123.03 83.164 122.047 83.078 121.04C82.992 120.032 83.2132 118.988 83.766 118.005C84.0841 117.432 84.5031 116.873 85.0328 116.347ZM104.023 126.51L99.98 124.347C98.217 125.743 95.8967 126.595 93.5212 126.851C91.1452 127.107 88.703 126.767 86.7283 125.779L83.193 128.755C86.2964 130.277 90.1125 130.788 93.8544 130.389C97.599 129.989 101.248 128.667 104.023 126.51ZM216.875 180.59C215.587 179.477 214.125 178.461 212.506 177.559L216.089 173.587L215.278 172.862L211.531 177.015C206.105 174.262 199.921 173.206 194.207 173.747C188.484 174.285 183.205 176.422 179.62 180.043L175.212 177.593L174.684 178.551L178.854 180.868C178.203 181.616 177.641 182.396 177.166 183.207C175.347 186.315 174.819 189.805 175.519 193.232C176.207 196.636 178.124 199.99 181.159 202.865C182.366 204.017 183.759 205.09 185.329 206.059L181.294 210.532L182.105 211.269L186.291 206.628C191.931 209.829 198.512 211.096 204.588 210.556C210.647 210.018 216.217 207.679 219.853 203.651L224.873 206.44L225.401 205.494L220.566 202.807C221.171 202.04 221.687 201.248 222.121 200.432C223.853 197.164 224.16 193.576 223.214 190.112C222.28 186.684 220.106 183.354 216.875 180.59ZM219.606 202.273C220.212 201.523 220.725 200.747 221.138 199.953C222.735 196.931 223.018 193.626 222.145 190.419C221.273 187.188 219.221 184.055 216.15 181.438L216.162 181.413C214.87 180.304 213.398 179.291 211.754 178.394L207.406 183.215C208.268 183.724 209.047 184.293 209.737 184.902C211.641 186.561 212.894 188.551 213.422 190.603C213.963 192.679 213.742 194.829 212.698 196.771C212.475 197.19 212.211 197.597 211.906 197.992L219.606 202.273ZM210.94 197.455C211.251 197.062 211.518 196.656 211.739 196.242C212.648 194.547 212.845 192.679 212.378 190.861C211.899 189.018 210.756 187.224 209.024 185.713C208.336 185.111 207.544 184.547 206.665 184.036L204.149 186.827C204.543 187.079 204.905 187.352 205.228 187.642C206.309 188.613 207.034 189.756 207.329 190.947C207.624 192.164 207.501 193.405 206.874 194.535C206.781 194.703 206.68 194.866 206.569 195.025L210.94 197.455ZM205.849 195.869L210.194 198.283C208.222 200.224 205.334 201.365 202.205 201.648C198.996 201.936 195.528 201.319 192.497 199.746L195.11 196.849C196.934 197.772 199.004 198.122 200.916 197.95C202.836 197.781 204.611 197.071 205.849 195.869ZM205.615 194.494C205.731 194.336 205.834 194.174 205.928 194.007C206.407 193.122 206.518 192.151 206.285 191.193C206.039 190.21 205.437 189.264 204.528 188.441L204.515 188.453C204.185 188.161 203.818 187.89 203.415 187.64L200.032 191.391L205.615 194.494ZM199.284 192.221L204.846 195.312C203.802 196.204 202.368 196.733 200.817 196.869C199.191 197.021 197.44 196.742 195.869 196.008L199.284 192.221ZM199.053 190.847L202.421 187.114C200.877 186.419 199.162 186.152 197.561 186.303C196.044 186.439 194.633 186.959 193.602 187.816L199.053 190.847ZM192.82 188.629L198.304 191.677L194.882 195.471C194.482 195.218 194.124 194.939 193.802 194.646C192.905 193.822 192.328 192.864 192.106 191.893C191.898 190.947 192.02 189.977 192.512 189.104C192.597 188.942 192.702 188.784 192.82 188.629ZM192.589 187.253C193.823 186.085 195.57 185.392 197.463 185.222C199.347 185.05 201.38 185.382 203.183 186.269L205.673 183.509C202.711 182.07 199.374 181.519 196.283 181.806C193.259 182.089 190.464 183.166 188.516 184.989L192.589 187.253ZM187.74 185.806L191.852 188.091C191.743 188.245 191.643 188.402 191.553 188.564C190.927 189.682 190.767 190.923 191.037 192.127C191.308 193.319 191.996 194.474 193.065 195.444C193.393 195.747 193.75 196.027 194.144 196.288L191.519 199.198C190.652 198.673 189.888 198.086 189.219 197.471C187.56 195.923 186.491 194.129 186.098 192.299C185.705 190.492 185.951 188.65 186.897 187.003C187.134 186.586 187.415 186.191 187.74 185.806ZM187.532 184.442C189.679 182.322 192.797 181.066 196.173 180.75C199.554 180.43 203.207 181.055 206.412 182.69L210.756 177.874C205.586 175.311 199.724 174.333 194.293 174.852C188.938 175.355 184.007 177.304 180.609 180.593L187.532 184.442ZM179.825 181.408L186.777 185.271C186.456 185.665 186.177 186.07 185.938 186.487C184.857 188.379 184.562 190.48 185.017 192.544C185.471 194.584 186.639 196.574 188.469 198.282C189.146 198.908 189.914 199.501 190.766 200.033L186.035 205.277C184.462 204.316 183.077 203.253 181.871 202.115C179.009 199.388 177.203 196.243 176.551 193.048C175.9 189.878 176.392 186.659 178.075 183.784C178.563 182.961 179.146 182.166 179.825 181.408ZM211.18 198.832L218.88 203.11C215.426 206.835 210.183 209.005 204.466 209.512C198.68 210.021 192.402 208.838 187.001 205.84L191.733 200.593C195.01 202.359 198.798 203.06 202.291 202.742C205.787 202.425 209.014 201.1 211.18 198.832ZM305.888 72.4109L304.249 74.2278C300.901 73.1383 297.278 72.8164 294.093 73.173C290.899 73.5356 288.107 74.5887 286.394 76.2581L284.021 75.4203L284.123 75.0151L281.154 74.2651L280.909 75.2347L283.473 75.8824L283.318 76.3302L285.626 77.144C285.328 77.5607 285.102 77.9934 284.939 78.4315C284.546 79.5249 284.559 80.6675 284.952 81.7856C285.333 82.879 286.07 83.9479 287.126 84.9308C288.329 86.0572 289.951 87.0667 291.939 87.8729L290.481 89.4886L291.292 90.2135L293.033 88.2834C296.479 89.4773 300.222 89.8453 303.528 89.4767C306.827 89.1024 309.69 88.0045 311.41 86.2358L314.328 87.2649L314.685 86.2451L312.132 85.344C312.401 84.9418 312.61 84.5274 312.755 84.1077C313.136 82.9773 313.087 81.7979 312.632 80.643C312.202 79.5372 311.391 78.4437 310.261 77.4609C309.008 76.3707 307.348 75.387 305.359 74.6212L306.699 73.1358L305.888 72.4109ZM311.061 84.9658C311.363 84.5698 311.583 84.1606 311.723 83.7514C312.018 82.8668 311.981 81.9453 311.625 81.0361C311.256 80.0901 310.544 79.1441 309.549 78.2718V78.284C308.313 77.1997 306.623 76.2371 304.574 75.4907L302.999 77.2372C304.06 77.6835 304.95 78.2277 305.629 78.8368C306.305 79.4388 306.796 80.1022 307.054 80.7903C307.324 81.5152 307.361 82.2523 307.116 82.9649C307.051 83.1423 306.973 83.3172 306.877 83.4888L311.061 84.9658ZM305.831 83.1197C305.946 82.9502 306.033 82.7757 306.096 82.5963C306.256 82.1417 306.231 81.6503 306.047 81.1711C305.85 80.6551 305.457 80.1268 304.916 79.6477C304.246 79.0558 303.333 78.5148 302.222 78.0982L301.503 78.8953C301.99 79.1302 302.406 79.405 302.731 79.6968C303.136 80.0531 303.419 80.4586 303.578 80.8763C303.75 81.3309 303.763 81.7978 303.603 82.2401C303.599 82.2515 303.595 82.263 303.591 82.2744C303.585 82.2905 303.579 82.3066 303.573 82.3227L305.831 83.1197ZM302.897 83.2341L304.977 83.9675C304.094 84.6023 302.836 85.0092 301.403 85.1641C299.783 85.3453 297.97 85.2122 296.251 84.717L296.973 83.9164C298.069 84.2519 299.242 84.3414 300.286 84.2304C301.332 84.113 302.267 83.7728 302.897 83.2341ZM302.554 81.9629C302.565 81.9406 302.574 81.9183 302.583 81.8961C302.657 81.6995 302.645 81.4783 302.559 81.2695C302.46 81.0237 302.276 80.7657 302.006 80.52V80.5077C301.689 80.2217 301.253 79.9611 300.734 79.7472L299.658 80.9404L302.554 81.9629ZM298.87 81.8139L301.615 82.7821C301.212 82.9701 300.718 83.0981 300.175 83.1615C299.428 83.2445 298.599 83.196 297.79 83.011L298.87 81.8139ZM298.547 80.5482L299.588 79.3946C298.798 79.2243 297.987 79.185 297.251 79.2668C296.743 79.327 296.276 79.4416 295.885 79.6087L298.547 80.5482ZM294.896 80.4126L297.758 81.422L296.652 82.6486C296.143 82.4331 295.722 82.1668 295.408 81.8838C295.138 81.6503 294.954 81.3923 294.868 81.1466C294.794 80.9255 294.782 80.7166 294.855 80.52C294.865 80.4834 294.879 80.4476 294.896 80.4126ZM294.563 79.1418C295.19 78.6183 296.11 78.2902 297.141 78.1734C298.171 78.0625 299.332 78.1517 300.415 78.4769L301.089 77.73C299.41 77.267 297.638 77.1454 296.058 77.3256C294.689 77.4767 293.472 77.8601 292.597 78.4479L294.563 79.1418ZM291.698 79.2851L293.876 80.0529C293.861 80.0857 293.848 80.1186 293.836 80.1514C293.676 80.5937 293.688 81.0483 293.848 81.5029C293.995 81.9206 294.278 82.3261 294.671 82.6824C294.997 82.9829 295.407 83.2551 295.892 83.4913L295.13 84.3355C294.033 83.9005 293.141 83.3587 292.483 82.7561C291.955 82.2769 291.598 81.7609 291.414 81.2571C291.242 80.778 291.23 80.3111 291.389 79.8565C291.457 79.6615 291.56 79.4724 291.698 79.2851ZM291.394 78.0234C292.45 77.0638 294.091 76.4582 295.948 76.2444C297.815 76.0356 299.923 76.2211 301.89 76.8421L303.447 75.1164C300.38 74.1914 297.121 73.9263 294.215 74.2542C291.497 74.5658 289.126 75.3851 287.563 76.6708L291.394 78.0234ZM286.706 77.5246L290.651 78.9159C290.54 79.1023 290.45 79.2938 290.382 79.4879C290.136 80.176 290.148 80.9008 290.406 81.6134C290.64 82.2892 291.107 82.9526 291.758 83.5546C292.419 84.1655 293.3 84.7273 294.362 85.187L292.723 87.0041C290.681 86.223 289.04 85.2273 287.864 84.1322C286.93 83.2722 286.291 82.3507 285.971 81.4293C285.664 80.5447 285.652 79.6478 285.959 78.8C286.12 78.3682 286.371 77.9363 286.706 77.5246ZM306.169 84.3879L310.247 85.8257C308.678 87.1949 306.227 88.0697 303.405 88.3832C300.397 88.7125 296.999 88.4122 293.835 87.395L295.453 85.6008C297.45 86.257 299.62 86.4545 301.525 86.2453C303.433 86.0296 305.12 85.3943 306.169 84.3879ZM324.575 72.2884C321.307 69.5609 316.946 67.1774 311.712 65.4451C304.156 62.951 295.949 62.2015 288.724 63.037C281.304 63.8847 274.829 66.4157 270.959 70.4332L270.529 70.9001L270.123 70.6298L269.765 71.388L269.279 71.2651L269.034 72.2347L269.33 72.3094L269.079 72.8413C268.796 73.2836 268.551 73.7382 268.33 74.2051C268.096 74.6965 267.912 75.1634 267.764 75.6303C259.545 92.8185 248.647 108.299 233.695 123.018C218.657 137.823 199.478 151.89 174.771 166.154C174.242 166.425 173.776 166.683 173.346 166.928C172.866 167.199 172.412 167.481 171.97 167.764C171.265 168.07 170.393 168.584 169.58 169.063L169.58 169.063C169.187 169.294 168.808 169.517 168.468 169.705L168.923 169.938L168.861 169.988C168.613 170.189 168.368 170.394 168.126 170.602L163.827 167.522L163.245 168.335L167.361 171.284C166.929 171.682 166.507 172.09 166.097 172.506C164.573 174.054 163.296 175.713 162.251 177.433C158.995 182.777 157.963 188.81 159.057 194.781C160.126 200.666 163.283 206.477 168.419 211.478C170.655 213.665 173.284 215.704 176.27 217.523C186.086 223.494 197.734 225.902 208.447 224.968C219.247 224.034 229.161 219.685 235.39 212.154C236.238 211.122 237 210.053 237.676 208.947L238.02 208.357L238.413 208.75L239.482 205.372C239.666 204.929 239.826 204.475 239.985 204.02C240.17 203.504 240.317 203 240.452 202.509C248.819 178.416 259.189 158.832 272.556 141.877C285.936 124.898 302.313 110.547 322.683 96.9221C323.31 96.5781 323.887 96.2341 324.428 95.8778C324.956 95.5338 325.472 95.1652 325.964 94.7597L328.691 92.9782L328.188 92.6465L328.36 92.45C329.502 91.0862 330.313 89.6487 330.804 88.1621C331.726 85.3854 331.529 82.5105 330.362 79.7215C329.256 77.0923 327.291 74.5614 324.575 72.2884ZM289.216 67.3617C283.279 68.0389 278.131 69.8668 274.894 72.6836L275.217 72.7651L274.972 73.7347L274.038 73.4988C273.785 73.7646 273.566 74.0082 273.391 74.2296C273.195 74.4754 273.011 74.7334 272.814 75.0282L272.765 75.102C272.556 75.4214 272.384 75.7408 272.237 76.048C272.089 76.3674 271.966 76.6992 271.856 77.0677L271.807 77.2397L271.745 77.3749C263.305 95.0546 252.124 110.965 236.73 126.114C221.409 141.189 201.923 155.478 176.835 169.963L176.749 170.012C176.42 170.182 176.064 170.379 175.673 170.595L175.483 170.7L175.42 170.737L175.327 170.791L175.285 170.816L175.285 170.816L175.285 170.816L175.284 170.816L175.284 170.816L175.284 170.817L175.284 170.817L175.283 170.817L175.283 170.817L175.283 170.817L175.282 170.818L175.282 170.818C174.989 170.988 174.692 171.162 174.402 171.351L174.267 171.437C173.309 172.052 172.4 172.691 171.564 173.366C170.729 174.042 169.93 174.755 169.193 175.516C167.915 176.831 166.834 178.219 165.949 179.681C163.271 184.092 162.423 189.056 163.32 193.982C164.242 198.995 166.969 203.983 171.441 208.345C173.456 210.311 175.815 212.141 178.53 213.788C187.524 219.255 198.225 221.466 208.066 220.606C217.76 219.759 226.581 215.95 232.036 209.352C232.774 208.468 233.412 207.571 233.965 206.662C234.506 205.777 234.973 204.856 235.366 203.934L235.415 203.811C235.587 203.406 235.734 203.013 235.87 202.607C236.005 202.202 236.128 201.796 236.25 201.379L236.3 201.231C244.851 176.585 255.466 156.534 269.14 139.186C282.815 121.826 299.549 107.169 320.337 93.2608L320.521 93.1503C321.025 92.88 321.528 92.5851 322.02 92.2534C322.487 91.9462 322.917 91.6268 323.298 91.3196L323.335 91.2828C323.642 91.0248 323.936 90.7668 324.231 90.4842C324.489 90.2262 324.747 89.9559 324.993 89.661C325.767 88.7273 326.308 87.7689 326.639 86.7983C327.217 85.0537 327.082 83.2108 326.32 81.3924C325.497 79.4144 323.937 77.4486 321.762 75.6303H321.774C318.924 73.2467 315.041 71.1335 310.348 69.5855C303.382 67.2757 295.85 66.6 289.216 67.3617ZM342.571 40H331V68.9477H340.853C344.579 68.9214 346.928 68.8556 347.903 68.7503C349.456 68.5791 350.759 68.125 351.812 67.3878C352.879 66.6375 353.715 65.6436 354.32 64.4061C354.939 63.1556 355.248 61.8721 355.248 60.5557C355.248 58.8838 354.774 57.4292 353.826 56.1918C352.879 54.9544 351.523 54.0789 349.759 53.5656C351.009 52.9995 351.997 52.1504 352.721 51.0183C353.458 49.8862 353.826 48.6422 353.826 47.2863C353.826 46.0357 353.53 44.9102 352.938 43.9097C352.345 42.8961 351.602 42.0865 350.707 41.481C349.825 40.8754 348.818 40.4805 347.685 40.2962C346.566 40.0987 344.862 40 342.571 40ZM336.845 51.512V44.818H340.202C342.953 44.818 344.618 44.851 345.197 44.9168C346.172 45.0352 346.902 45.3775 347.389 45.9436C347.889 46.4965 348.14 47.2205 348.14 48.1156C348.14 49.0503 347.85 49.8072 347.271 50.3864C346.705 50.9525 345.921 51.2948 344.921 51.4132C344.368 51.479 342.953 51.512 340.676 51.512H336.845ZM336.845 64.0705V56.33H341.564C344.223 56.33 345.948 56.4682 346.738 56.7447C347.541 57.0211 348.153 57.4621 348.574 58.0677C348.995 58.6732 349.206 59.4104 349.206 60.2792C349.206 61.306 348.929 62.1288 348.377 62.7475C347.837 63.353 347.133 63.7348 346.264 63.8927C345.698 64.0112 344.362 64.0705 342.255 64.0705H336.845ZM365.764 81.0798H369V64.1245H366.374C366.006 65.1535 365.326 66.0558 364.335 66.8314C363.345 67.5993 362.427 68.1215 361.582 68.3979V71.3352C363.187 70.8053 364.581 69.9875 365.764 68.8817V81.0798ZM255.571 213H244V241.948H253.853C257.579 241.921 259.928 241.856 260.903 241.75C262.456 241.579 263.759 241.125 264.812 240.388C265.879 239.637 266.715 238.644 267.32 237.406C267.939 236.156 268.248 234.872 268.248 233.556C268.248 231.884 267.774 230.429 266.826 229.192C265.879 227.954 264.523 227.079 262.759 226.566C264.009 225.999 264.997 225.15 265.721 224.018C266.458 222.886 266.826 221.642 266.826 220.286C266.826 219.036 266.53 217.91 265.938 216.91C265.345 215.896 264.602 215.087 263.707 214.481C262.825 213.875 261.818 213.48 260.685 213.296C259.566 213.099 257.862 213 255.571 213ZM249.845 224.512V217.818H253.202C255.953 217.818 257.618 217.851 258.197 217.917C259.172 218.035 259.902 218.378 260.389 218.944C260.889 219.496 261.14 220.22 261.14 221.116C261.14 222.05 260.85 222.807 260.271 223.386C259.705 223.952 258.921 224.295 257.921 224.413C257.368 224.479 255.953 224.512 253.676 224.512H249.845ZM249.845 237.07V229.33H254.564C257.223 229.33 258.948 229.468 259.738 229.745C260.541 230.021 261.153 230.462 261.574 231.068C261.995 231.673 262.206 232.41 262.206 233.279C262.206 234.306 261.929 235.129 261.377 235.747C260.837 236.353 260.133 236.735 259.264 236.893C258.698 237.011 257.362 237.07 255.255 237.07H249.845ZM191.847 52.7347L188.878 51.9847L189.123 51.0151L192.092 51.7651L191.847 52.7347ZM215.597 58.7347L209.659 57.2347L209.904 56.2651L215.842 57.7651L215.597 58.7347ZM227.472 61.7347L221.534 60.2347L221.779 59.2651L227.717 60.7651L227.472 61.7347ZM239.347 64.7347L233.409 63.2347L233.654 62.2651L239.592 63.7651L239.347 64.7347ZM251.222 67.7347L245.284 66.2347L245.529 65.2651L251.467 66.7651L251.222 67.7347ZM263.097 70.7347L257.159 69.2347L257.404 68.2651L263.342 69.7651L263.097 70.7347ZM115.388 134.05L120.173 137.478L120.756 136.665L115.97 133.237L115.388 134.05ZM124.959 140.907L129.745 144.335L130.327 143.522L125.541 140.094L124.959 140.907ZM134.53 147.764L139.316 151.192L139.899 150.379L135.113 146.951L134.53 147.764ZM144.102 154.621L148.888 158.05L149.47 157.237L144.684 153.808L144.102 154.621ZM153.673 161.478L158.459 164.907L159.041 164.094L154.256 160.665L153.673 161.478ZM172.816 175.192L175.209 176.907L175.791 176.094L173.399 174.379L172.816 175.192Z" fill="#9A9A9A"/>
</svg>
