<svg width="71" height="70" viewBox="0 0 71 70" fill="none" xmlns="http://www.w3.org/2000/svg">
<path fill-rule="evenodd" clip-rule="evenodd" d="M6.27813 67.7307H64.7219C65.844 67.7307 66.8649 67.2743 67.6058 66.5391C68.3466 65.8039 68.8064 64.7906 68.8064 63.677V6.23081C68.8064 5.11718 68.3466 4.10393 67.6058 3.3687C66.8649 2.63346 65.844 2.17707 64.7219 2.17707H6.27813C5.15604 2.17707 4.13508 2.63346 3.39426 3.3687C2.65344 4.10393 2.19356 5.11718 2.19356 6.23081V63.677C2.19356 64.7906 2.65344 65.8039 3.39426 66.5391C4.13508 67.2743 5.15604 67.7307 6.27813 67.7307ZM64.7219 69.9077H6.27813C4.5505 69.9077 2.98075 69.2071 1.84335 68.0783C0.705956 66.9495 0 65.3916 0 63.677V6.23076C0 4.51617 0.705956 2.95825 1.84335 1.82944C2.98075 0.70062 4.55046 0 6.27813 0H64.7219C66.4495 0 68.0193 0.70062 69.1567 1.82944C70.2941 2.95825 71 4.51612 71 6.23076V63.677C71 65.3915 70.2941 66.9495 69.1567 68.0783C68.0193 69.2071 66.4496 69.9077 64.7219 69.9077ZM33.3788 34.2501L21.5347 22.406L23.656 20.2847L35.5001 32.1288L47.3442 20.2847L49.4656 22.406L37.6214 34.2501L49.4654 46.0941L47.3441 48.2154L35.5001 36.3714L23.6562 48.2154L21.5348 46.0941L33.3788 34.2501Z" fill="#9A9A9A"/>
</svg>
