<svg width="91" height="90" viewBox="0 0 91 90" fill="none" xmlns="http://www.w3.org/2000/svg">
<g filter="url(#filter0_d_8_48)">
<path fill-rule="evenodd" clip-rule="evenodd" d="M16.2781 77.7307H74.7219C75.844 77.7307 76.8649 77.2743 77.6058 76.5391C78.3466 75.8039 78.8064 74.7906 78.8064 73.677V16.2308C78.8064 15.1172 78.3466 14.1039 77.6058 13.3687C76.8649 12.6335 75.844 12.1771 74.7219 12.1771H16.2781C15.156 12.1771 14.1351 12.6335 13.3943 13.3687C12.6534 14.1039 12.1936 15.1172 12.1936 16.2308V73.677C12.1936 74.7906 12.6534 75.8039 13.3943 76.5391C14.1351 77.2743 15.156 77.7307 16.2781 77.7307ZM74.7219 79.9077H16.2781C14.5505 79.9077 12.9808 79.2071 11.8434 78.0783C10.706 76.9495 10 75.3916 10 73.677V16.2308C10 14.5162 10.706 12.9583 11.8434 11.8294C12.9808 10.7006 14.5505 10 16.2781 10H74.7219C76.4495 10 78.0193 10.7006 79.1567 11.8294C80.2941 12.9583 81 14.5161 81 16.2308V73.677C81 75.3915 80.2941 76.9495 79.1567 78.0783C78.0193 79.2071 76.4496 79.9077 74.7219 79.9077ZM43.3788 44.2501L31.5347 32.406L33.656 30.2847L45.5001 42.1288L57.3442 30.2847L59.4656 32.406L47.6214 44.2501L59.4654 56.0941L57.3441 58.2154L45.5001 46.3714L33.6562 58.2154L31.5348 56.0941L43.3788 44.2501Z" fill="#D9D9D9"/>
</g>
<defs>
<filter id="filter0_d_8_48" x="0" y="0" width="91" height="89.9077" filterUnits="userSpaceOnUse" color-interpolation-filters="sRGB">
<feFlood flood-opacity="0" result="BackgroundImageFix"/>
<feColorMatrix in="SourceAlpha" type="matrix" values="0 0 0 0 0 0 0 0 0 0 0 0 0 0 0 0 0 0 127 0" result="hardAlpha"/>
<feOffset/>
<feGaussianBlur stdDeviation="5"/>
<feComposite in2="hardAlpha" operator="out"/>
<feColorMatrix type="matrix" values="0 0 0 0 1 0 0 0 0 1 0 0 0 0 1 0 0 0 1 0"/>
<feBlend mode="normal" in2="BackgroundImageFix" result="effect1_dropShadow_8_48"/>
<feBlend mode="normal" in="SourceGraphic" in2="effect1_dropShadow_8_48" result="shape"/>
</filter>
</defs>
</svg>
