<svg width="20" height="19" viewBox="0 0 20 19" fill="none" xmlns="http://www.w3.org/2000/svg">
<path fill-rule="evenodd" clip-rule="evenodd" d="M10 0C15.2467 0 19.5 4.25329 19.5 9.5C19.5 14.7467 15.2467 19 10 19C4.75329 19 0.5 14.7467 0.5 9.5C0.5 4.25329 4.75329 0 10 0ZM16.7321 4.30997C15.1777 2.2967 12.7403 1 10 1C5.30558 1 1.5 4.80558 1.5 9.5C1.5 14.1944 5.30558 18 10 18C14.6944 18 18.5 14.1944 18.5 9.5C18.5 8.27787 18.2421 7.11599 17.7777 6.06581L10.2268 14.1322C9.85628 14.5445 9.24901 14.5505 8.87044 14.1456L4.22844 9.16824C3.84987 8.76336 3.84335 8.10094 4.21387 7.68869C4.5844 7.27643 5.19167 7.27045 5.57024 7.67533L9.52677 11.9196L16.5 4.5C16.57 4.42216 16.6484 4.35881 16.7321 4.30997Z" fill="white"/>
</svg>
