<svg width="71" height="70" viewBox="0 0 71 70" fill="none" xmlns="http://www.w3.org/2000/svg">
<path fill-rule="evenodd" clip-rule="evenodd" d="M6.27813 67.7307H64.7219C65.844 67.7307 66.8649 67.2743 67.6058 66.5391C68.3466 65.8039 68.8064 64.7906 68.8064 63.677V6.23081C68.8064 5.11718 68.3466 4.10393 67.6058 3.36869C66.8649 2.63346 65.844 2.17707 64.7219 2.17707H6.27813C5.15604 2.17707 4.13508 2.63346 3.39426 3.36869C2.65344 4.10393 2.19356 5.11718 2.19356 6.23081V63.677C2.19356 64.7906 2.65344 65.8039 3.39426 66.5391C4.13508 67.2743 5.15604 67.7307 6.27813 67.7307ZM64.7219 69.9077H6.27813C4.5505 69.9077 2.98075 69.2071 1.84335 68.0783C0.705956 66.9494 0 65.3916 0 63.6769V6.23076C0 4.51617 0.705956 2.95825 1.84335 1.82944C2.98075 0.70062 4.55046 0 6.27813 0H64.7219C66.4495 0 68.0193 0.70062 69.1567 1.82944C70.2941 2.95825 71 4.51612 71 6.23076V63.6769C71 65.3915 70.2941 66.9494 69.1567 68.0783C68.0193 69.2071 66.4496 69.9077 64.7219 69.9077ZM50.6033 26.3099L50.6034 26.31C50.7613 26.5849 50.9277 26.8745 51.0499 27.1753L51.0985 27.2949C51.8938 29.2521 52.4573 30.639 52.6346 32.9792C52.7722 34.7955 52.6859 36.4481 52.2882 38.1853C52.0262 39.3303 51.6956 40.4055 51.2665 41.3531C50.4723 43.1062 49.8914 44.0164 48.667 45.5329L47.9048 46.3702C47.4647 46.9253 46.2966 47.8856 45.6862 48.341C44.944 48.8948 43.9643 49.5198 43.0737 49.9178L42.8432 50.0211L42.8431 50.0211C41.802 50.4876 41.2896 50.7172 40.0384 51.072C38.0368 51.6395 36.8705 51.6388 34.9403 51.6376H34.9403L34.6623 51.6375C32.6685 51.6375 30.8155 51.0606 29.3012 50.524C28.2024 50.1344 27.0443 49.5049 26.0854 48.8648L25.0645 48.0574C25.4064 48.0574 27.7571 47.5822 28.0575 47.318C28.41 47.0078 28.6515 46.6462 28.4828 46.0927C28.1293 44.9315 27.029 45.2256 26.0898 45.4767C25.9356 45.5179 25.7856 45.558 25.6441 45.5902L22.157 46.3689C21.6113 46.551 21.332 47.0469 21.332 47.7529V52.0947C21.332 53.9036 23.575 53.8815 23.6926 52.3223C23.7272 51.8632 23.7153 51.3002 23.7041 50.7663C23.6987 50.5121 23.6935 50.2645 23.6935 50.0379C23.8648 50.1526 24.0336 50.278 24.2032 50.4039L24.2033 50.404C24.3862 50.5397 24.57 50.6762 24.7589 50.8008C27.6001 52.6745 31.4194 53.9989 34.8908 53.9989C38.4447 53.9989 40.8503 53.5442 43.7016 52.222C45.6163 51.334 46.3725 50.7464 47.8169 49.6241L47.8169 49.6241L48.0256 49.462L49.2682 48.3433C50.7022 46.9093 52.3552 44.6319 53.171 42.8008C54.2613 40.3527 54.8818 37.8133 55.0001 35.2714V33.4841C54.8773 30.8678 54.2123 28.2708 52.969 25.7899C52.9336 25.7192 52.8961 25.6409 52.8564 25.5577L52.8564 25.5576C52.5507 24.9175 52.1065 23.9873 51.3439 23.9873C50.6856 23.9873 50.1251 24.6213 50.1251 25.1298C50.1253 25.4779 50.3538 25.8757 50.6033 26.3099ZM17.037 40.8509C16.1514 38.3189 16 36.6113 16 33.8143C16 30.5224 17.1279 27.3954 18.6413 24.6488C18.7388 24.4718 18.8441 24.3087 18.952 24.1417C19.0036 24.0617 19.0559 23.9808 19.1082 23.897C19.2173 23.7219 19.321 23.5807 19.4265 23.4371C19.4769 23.3686 19.5276 23.2995 19.5796 23.2259C20.0089 22.6173 20.3566 22.2179 20.6612 21.868C20.8472 21.6543 21.0172 21.4591 21.1798 21.246C21.3209 21.0609 21.4496 20.9343 21.6052 20.7812C21.6454 20.7416 21.6874 20.7002 21.7319 20.6557C23.3487 19.0345 25.2316 17.8108 27.2978 16.7763C28.1711 16.3391 29.8822 15.7714 30.7915 15.5474C32.1227 15.2193 33.5456 15.036 34.9828 15H36.0358C38.2671 15.0556 40.4875 15.4658 42.4102 16.2401C44.6356 17.1365 45.099 17.454 46.3815 18.3327C46.6471 18.5147 46.9478 18.7207 47.3066 18.961C47.3066 18.7344 47.3014 18.4869 47.296 18.2327C47.2848 17.6988 47.2729 17.1357 47.3075 16.6767C47.4251 15.1174 49.6681 15.0954 49.6681 16.9043V21.246C49.6681 21.952 49.3888 22.4479 48.8432 22.6301C48.5309 22.7343 48.0994 22.8219 47.6824 22.9066C47.4828 22.9471 47.2864 22.987 47.108 23.0277C46.7164 23.117 46.3774 23.1902 46.0246 23.2664C45.8124 23.3122 45.5953 23.3591 45.3587 23.4112C45.2279 23.44 45.0797 23.4771 44.923 23.5164C44.4725 23.6292 43.9521 23.7596 43.5743 23.7596C42.6628 23.7596 41.962 22.4526 42.9383 21.6763C43.2505 21.428 45.5924 20.9411 45.9356 20.9411V20.7888C45.7893 20.7497 45.6773 20.6642 45.5549 20.5708C45.5111 20.5374 45.4659 20.5029 45.4174 20.4692L43.9299 19.5192C41.7384 18.3535 39.0614 17.361 36.3381 17.361C32.3708 17.361 31.2593 17.6548 27.9687 19.0465C27.3435 19.3107 25.8976 20.2259 25.3573 20.6244C25.3066 20.6619 25.2561 20.6987 25.2059 20.7353C25.0506 20.8487 24.8983 20.9598 24.7485 21.0821L23.6285 22.0948C23.3752 22.2957 23.1783 22.5109 22.9479 22.7629C22.8437 22.8768 22.7326 22.9983 22.6063 23.1294C22.2411 23.5084 21.9038 23.9776 21.5822 24.425C21.4676 24.5844 21.355 24.7411 21.2439 24.8899C20.6623 25.6681 20.1752 26.7051 19.7614 27.5858L19.7579 27.5933C18.8785 29.4647 18.285 32.2863 18.285 34.4994C18.285 37.5082 18.9249 39.2979 19.9502 41.8225C20.0724 42.1233 20.2388 42.4129 20.3967 42.6878C20.6464 43.1223 20.875 43.5202 20.875 43.8684C20.875 44.4422 20.0303 45.4655 18.9991 44.7541C18.4038 44.3434 17.2617 41.4932 17.037 40.8509Z" fill="#9A9A9A"/>
</svg>
