<svg width="47" height="47" viewBox="0 0 47 47" fill="none" xmlns="http://www.w3.org/2000/svg">
<path fill-rule="evenodd" clip-rule="evenodd" d="M4.14403 44.7073H42.7212C43.4619 44.7073 44.1358 44.406 44.6248 43.9207C45.1138 43.4354 45.4173 42.7666 45.4173 42.0315V4.11279C45.4173 3.37772 45.1138 2.70889 44.6248 2.22359C44.1358 1.73828 43.4619 1.43702 42.7212 1.43702H4.14403C3.40337 1.43702 2.72946 1.73828 2.24046 2.22359C1.75147 2.70889 1.44791 3.37772 1.44791 4.11279V42.0315C1.44791 42.7666 1.75147 43.4354 2.24046 43.9207C2.72946 44.406 3.40337 44.7073 4.14403 44.7073ZM42.7212 46.1442H4.14403C3.00367 46.1442 1.96752 45.6818 1.21675 44.9367C0.465983 44.1916 0 43.1633 0 42.0315V4.11276C0 2.98101 0.465983 1.95267 1.21675 1.20756C1.96752 0.462461 3.00364 0 4.14403 0H42.7212C43.8616 0 44.8977 0.462461 45.6485 1.20756C46.3993 1.95267 46.8652 2.98097 46.8652 4.11276V42.0315C46.8652 43.1632 46.3993 44.1916 45.6485 44.9367C44.8977 45.6818 43.8616 46.1442 42.7212 46.1442ZM23.4332 35.6898H23.4336V31.7241H23.433C18.6547 31.7241 14.7811 27.8506 14.781 23.0723L10.8156 23.0723C10.8156 30.0408 16.4647 35.6898 23.4332 35.6898ZM10.8207 22.7118C11.0115 15.91 16.5853 10.4547 23.4332 10.4547H23.4336V14.4201H23.433C18.7753 14.4201 14.9772 18.1005 14.7883 22.7118H10.8207ZM15.8709 22.7118C16.059 18.698 19.3727 15.5016 23.433 15.5016H23.4336V22.7118H15.8709ZM15.8625 23.0723H23.4336V30.6426H23.433C19.252 30.6426 15.8626 27.2533 15.8625 23.0723ZM23.7941 23.0723V30.6342C27.8075 30.4457 31.0035 27.1322 31.0036 23.0723H23.7941ZM32.0851 23.0723C32.085 27.7296 28.405 31.5275 23.7941 31.7167V35.6848C30.5957 35.4937 36.0508 29.9201 36.0508 23.0723L32.0851 23.0723ZM36.0457 22.7118H32.0777C31.8937 18.2202 28.2855 14.6118 23.7941 14.4274V10.4598C30.4759 10.6474 35.8582 16.0299 36.0457 22.7118ZM30.9951 22.7118H23.7941V15.51C27.6881 15.6929 30.8127 18.8176 30.9951 22.7118ZM23.4332 37.4923C31.3972 37.4923 37.8533 31.0363 37.8533 23.0723C37.8533 15.1083 31.3972 8.6522 23.4332 8.6522C15.4692 8.6522 9.01313 15.1083 9.01313 23.0723C9.01313 31.0363 15.4692 37.4923 23.4332 37.4923Z" fill="#9A9A9A"/>
</svg>
