<svg width="67" height="67" viewBox="0 0 67 67" fill="none" xmlns="http://www.w3.org/2000/svg">
<g filter="url(#filter0_d_8_28)">
<path fill-rule="evenodd" clip-rule="evenodd" d="M14.144 54.7073H52.7212C53.4619 54.7073 54.1358 54.406 54.6248 53.9207C55.1138 53.4354 55.4173 52.7666 55.4173 52.0315V14.1128C55.4173 13.3777 55.1138 12.7089 54.6248 12.2236C54.1358 11.7383 53.4619 11.437 52.7212 11.437H14.144C13.4034 11.437 12.7295 11.7383 12.2405 12.2236C11.7515 12.7089 11.4479 13.3777 11.4479 14.1128V52.0315C11.4479 52.7666 11.7515 53.4354 12.2405 53.9207C12.7295 54.406 13.4034 54.7073 14.144 54.7073ZM52.7212 56.1442H14.144C13.0037 56.1442 11.9675 55.6818 11.2167 54.9367C10.466 54.1916 10 53.1633 10 52.0315V14.1128C10 12.981 10.466 11.9527 11.2167 11.2076C11.9675 10.4625 13.0036 10 14.144 10H52.7212C53.8616 10 54.8977 10.4625 55.6485 11.2076C56.3993 11.9527 56.8652 12.981 56.8652 14.1128V52.0315C56.8652 53.1632 56.3993 54.1916 55.6485 54.9367C54.8977 55.6818 53.8616 56.1442 52.7212 56.1442ZM33.4332 45.6898H33.4336V41.7241H33.433C28.6547 41.7241 24.7811 37.8506 24.781 33.0723L20.8156 33.0723C20.8156 40.0408 26.4647 45.6898 33.4332 45.6898ZM20.8207 32.7118C21.0115 25.91 26.5853 20.4547 33.4332 20.4547H33.4336V24.4201H33.433C28.7753 24.4201 24.9772 28.1005 24.7883 32.7118H20.8207ZM25.8709 32.7118C26.059 28.698 29.3727 25.5016 33.433 25.5016H33.4336V32.7118H25.8709ZM25.8625 33.0723H33.4336V40.6426H33.433C29.252 40.6426 25.8626 37.2533 25.8625 33.0723ZM33.7941 33.0723V40.6342C37.8075 40.4457 41.0035 37.1322 41.0036 33.0723H33.7941ZM42.0851 33.0723C42.085 37.7296 38.405 41.5275 33.7941 41.7167V45.6848C40.5957 45.4937 46.0508 39.9201 46.0508 33.0723L42.0851 33.0723ZM46.0457 32.7118H42.0777C41.8937 28.2202 38.2855 24.6118 33.7941 24.4274V20.4598C40.4759 20.6474 45.8582 26.0299 46.0457 32.7118ZM40.9951 32.7118H33.7941V25.51C37.6881 25.6929 40.8127 28.8176 40.9951 32.7118ZM33.4332 47.4923C41.3972 47.4923 47.8533 41.0363 47.8533 33.0723C47.8533 25.1083 41.3972 18.6522 33.4332 18.6522C25.4692 18.6522 19.0131 25.1083 19.0131 33.0723C19.0131 41.0363 25.4692 47.4923 33.4332 47.4923Z" fill="#D9D9D9"/>
</g>
<defs>
<filter id="filter0_d_8_28" x="0" y="0" width="66.8652" height="66.1442" filterUnits="userSpaceOnUse" color-interpolation-filters="sRGB">
<feFlood flood-opacity="0" result="BackgroundImageFix"/>
<feColorMatrix in="SourceAlpha" type="matrix" values="0 0 0 0 0 0 0 0 0 0 0 0 0 0 0 0 0 0 127 0" result="hardAlpha"/>
<feOffset/>
<feGaussianBlur stdDeviation="5"/>
<feComposite in2="hardAlpha" operator="out"/>
<feColorMatrix type="matrix" values="0 0 0 0 1 0 0 0 0 1 0 0 0 0 1 0 0 0 1 0"/>
<feBlend mode="normal" in2="BackgroundImageFix" result="effect1_dropShadow_8_28"/>
<feBlend mode="normal" in="SourceGraphic" in2="effect1_dropShadow_8_28" result="shape"/>
</filter>
</defs>
</svg>
